<?xml version="1.0" encoding="utf-8" standalone="no"?>
<!DOCTYPE svg PUBLIC "-//W3C//DTD SVG 1.1//EN"
  "http://www.w3.org/Graphics/SVG/1.1/DTD/svg11.dtd">
<svg xmlns:xlink="http://www.w3.org/1999/xlink" width="648pt" height="540pt" viewBox="0 0 648 540" xmlns="http://www.w3.org/2000/svg" version="1.1">
 <metadata>
  <rdf:RDF xmlns:dc="http://purl.org/dc/elements/1.1/" xmlns:cc="http://creativecommons.org/ns#" xmlns:rdf="http://www.w3.org/1999/02/22-rdf-syntax-ns#">
   <cc:Work>
    <dc:type rdf:resource="http://purl.org/dc/dcmitype/StillImage"/>
    <dc:date>2026-02-11T22:39:51.278523</dc:date>
    <dc:format>image/svg+xml</dc:format>
    <dc:creator>
     <cc:Agent>
      <dc:title>Matplotlib v3.9.4, https://matplotlib.org/</dc:title>
     </cc:Agent>
    </dc:creator>
   </cc:Work>
  </rdf:RDF>
 </metadata>
 <defs>
  <style type="text/css">*{stroke-linejoin: round; stroke-linecap: butt}</style>
 </defs>
 <g id="figure_1">
  <g id="patch_1">
   <path d="M 0 540 
L 648 540 
L 648 0 
L 0 0 
z
" style="fill: #f6f7f3"/>
  </g>
  <g id="axes_1">
   <g id="patch_2">
    <path d="M 51.84 486 
L 615.6 486 
L 615.6 64.8 
L 51.84 64.8 
z
" style="fill: #f6f7f3"/>
   </g>
   <g id="matplotlib.axis_1">
    <g id="xtick_1">
     <g id="line2d_1">
      <defs>
       <path id="m089090bc96" d="M 0 0 
L 0 3 
" style="stroke: #999999; stroke-width: 0.8"/>
      </defs>
      <g>
       <use xlink:href="#m089090bc96" x="51.84" y="486" style="fill: #999999; stroke: #999999; stroke-width: 0.8"/>
      </g>
     </g>
     <g id="text_1">
      <text style="fill: #3d3733; font: 9px 'ABC Oracle Edu'; text-anchor: middle" x="51.84" y="498.8" transform="rotate(-0 51.84 498.8)">4AM</text>
     </g>
    </g>
    <g id="xtick_2">
     <g id="line2d_2">
      <g>
       <use xlink:href="#m089090bc96" x="99.148531" y="486" style="fill: #999999; stroke: #999999; stroke-width: 0.8"/>
      </g>
     </g>
     <g id="text_2">
      <text style="fill: #3d3733; font: 9px 'ABC Oracle Edu'; text-anchor: middle" x="99.148531" y="498.8" transform="rotate(-0 99.148531 498.8)">6AM</text>
     </g>
    </g>
    <g id="xtick_3">
     <g id="line2d_3">
      <g>
       <use xlink:href="#m089090bc96" x="146.457063" y="486" style="fill: #999999; stroke: #999999; stroke-width: 0.8"/>
      </g>
     </g>
     <g id="text_3">
      <text style="fill: #3d3733; font: 9px 'ABC Oracle Edu'; text-anchor: middle" x="146.457063" y="498.8" transform="rotate(-0 146.457063 498.8)">8AM</text>
     </g>
    </g>
    <g id="xtick_4">
     <g id="line2d_4">
      <g>
       <use xlink:href="#m089090bc96" x="193.765594" y="486" style="fill: #999999; stroke: #999999; stroke-width: 0.8"/>
      </g>
     </g>
     <g id="text_4">
      <text style="fill: #3d3733; font: 9px 'ABC Oracle Edu'; text-anchor: middle" x="193.765594" y="498.8" transform="rotate(-0 193.765594 498.8)">10AM</text>
     </g>
    </g>
    <g id="xtick_5">
     <g id="line2d_5">
      <g>
       <use xlink:href="#m089090bc96" x="241.074126" y="486" style="fill: #999999; stroke: #999999; stroke-width: 0.8"/>
      </g>
     </g>
     <g id="text_5">
      <text style="fill: #3d3733; font: 9px 'ABC Oracle Edu'; text-anchor: middle" x="241.074126" y="498.8" transform="rotate(-0 241.074126 498.8)">12PM</text>
     </g>
    </g>
    <g id="xtick_6">
     <g id="line2d_6">
      <g>
       <use xlink:href="#m089090bc96" x="288.382657" y="486" style="fill: #999999; stroke: #999999; stroke-width: 0.8"/>
      </g>
     </g>
     <g id="text_6">
      <text style="fill: #3d3733; font: 9px 'ABC Oracle Edu'; text-anchor: middle" x="288.382657" y="498.8" transform="rotate(-0 288.382657 498.8)">2PM</text>
     </g>
    </g>
    <g id="xtick_7">
     <g id="line2d_7">
      <g>
       <use xlink:href="#m089090bc96" x="335.691189" y="486" style="fill: #999999; stroke: #999999; stroke-width: 0.8"/>
      </g>
     </g>
     <g id="text_7">
      <text style="fill: #3d3733; font: 9px 'ABC Oracle Edu'; text-anchor: middle" x="335.691189" y="498.8" transform="rotate(-0 335.691189 498.8)">4PM</text>
     </g>
    </g>
    <g id="xtick_8">
     <g id="line2d_8">
      <g>
       <use xlink:href="#m089090bc96" x="382.99972" y="486" style="fill: #999999; stroke: #999999; stroke-width: 0.8"/>
      </g>
     </g>
     <g id="text_8">
      <text style="fill: #3d3733; font: 9px 'ABC Oracle Edu'; text-anchor: middle" x="382.99972" y="498.8" transform="rotate(-0 382.99972 498.8)">6PM</text>
     </g>
    </g>
    <g id="xtick_9">
     <g id="line2d_9">
      <g>
       <use xlink:href="#m089090bc96" x="430.308252" y="486" style="fill: #999999; stroke: #999999; stroke-width: 0.8"/>
      </g>
     </g>
     <g id="text_9">
      <text style="fill: #3d3733; font: 9px 'ABC Oracle Edu'; text-anchor: middle" x="430.308252" y="498.8" transform="rotate(-0 430.308252 498.8)">8PM</text>
     </g>
    </g>
    <g id="xtick_10">
     <g id="line2d_10">
      <g>
       <use xlink:href="#m089090bc96" x="477.616783" y="486" style="fill: #999999; stroke: #999999; stroke-width: 0.8"/>
      </g>
     </g>
     <g id="text_10">
      <text style="fill: #3d3733; font: 9px 'ABC Oracle Edu'; text-anchor: middle" x="477.616783" y="498.8" transform="rotate(-0 477.616783 498.8)">10PM</text>
     </g>
    </g>
    <g id="xtick_11">
     <g id="line2d_11">
      <g>
       <use xlink:href="#m089090bc96" x="524.925315" y="486" style="fill: #999999; stroke: #999999; stroke-width: 0.8"/>
      </g>
     </g>
     <g id="text_11">
      <text style="fill: #3d3733; font: 9px 'ABC Oracle Edu'; text-anchor: middle" x="524.925315" y="498.8" transform="rotate(-0 524.925315 498.8)">12AM</text>
     </g>
    </g>
    <g id="xtick_12">
     <g id="line2d_12">
      <g>
       <use xlink:href="#m089090bc96" x="572.233846" y="486" style="fill: #999999; stroke: #999999; stroke-width: 0.8"/>
      </g>
     </g>
     <g id="text_12">
      <text style="fill: #3d3733; font: 9px 'ABC Oracle Edu'; text-anchor: middle" x="572.233846" y="498.8" transform="rotate(-0 572.233846 498.8)">2AM</text>
     </g>
    </g>
   </g>
   <g id="matplotlib.axis_2">
    <g id="ytick_1">
     <g id="line2d_13">
      <path d="M 51.84 443.88 
L 615.6 443.88 
" clip-path="url(#p3af781179b)" style="fill: none; stroke: #999999; stroke-opacity: 0.2; stroke-width: 0.5; stroke-linecap: square"/>
     </g>
     <g id="line2d_14"/>
     <g id="text_13">
      <text style="fill: #3d3733; font: 9px 'ABC Oracle Edu'; text-anchor: end" x="48.34" y="447.0975" transform="rotate(-0 48.34 447.0975)">-10pp</text>
     </g>
    </g>
    <g id="ytick_2">
     <g id="line2d_15">
      <path d="M 51.84 373.68 
L 615.6 373.68 
" clip-path="url(#p3af781179b)" style="fill: none; stroke: #999999; stroke-opacity: 0.2; stroke-width: 0.5; stroke-linecap: square"/>
     </g>
     <g id="line2d_16"/>
     <g id="text_14">
      <text style="fill: #3d3733; font: 9px 'ABC Oracle Edu'; text-anchor: end" x="48.34" y="376.83" transform="rotate(-0 48.34 376.83)">-5pp</text>
     </g>
    </g>
    <g id="ytick_3">
     <g id="line2d_17">
      <path d="M 51.84 303.48 
L 615.6 303.48 
" clip-path="url(#p3af781179b)" style="fill: none; stroke: #999999; stroke-opacity: 0.2; stroke-width: 0.5; stroke-linecap: square"/>
     </g>
     <g id="line2d_18"/>
     <g id="text_15">
      <text style="fill: #3d3733; font: 9px 'ABC Oracle Edu'; text-anchor: end" x="48.34" y="306.63" transform="rotate(-0 48.34 306.63)">0</text>
     </g>
    </g>
    <g id="ytick_4">
     <g id="line2d_19">
      <path d="M 51.84 233.28 
L 615.6 233.28 
" clip-path="url(#p3af781179b)" style="fill: none; stroke: #999999; stroke-opacity: 0.2; stroke-width: 0.5; stroke-linecap: square"/>
     </g>
     <g id="line2d_20"/>
     <g id="text_16">
      <text style="fill: #3d3733; font: 9px 'ABC Oracle Edu'; text-anchor: end" x="48.34" y="236.43" transform="rotate(-0 48.34 236.43)">+5pp</text>
     </g>
    </g>
    <g id="ytick_5">
     <g id="line2d_21">
      <path d="M 51.84 163.08 
L 615.6 163.08 
" clip-path="url(#p3af781179b)" style="fill: none; stroke: #999999; stroke-opacity: 0.2; stroke-width: 0.5; stroke-linecap: square"/>
     </g>
     <g id="line2d_22"/>
     <g id="text_17">
      <text style="fill: #3d3733; font: 9px 'ABC Oracle Edu'; text-anchor: end" x="48.34" y="166.2975" transform="rotate(-0 48.34 166.2975)">+10pp</text>
     </g>
    </g>
    <g id="ytick_6">
     <g id="line2d_23">
      <path d="M 51.84 92.88 
L 615.6 92.88 
" clip-path="url(#p3af781179b)" style="fill: none; stroke: #999999; stroke-opacity: 0.2; stroke-width: 0.5; stroke-linecap: square"/>
     </g>
     <g id="line2d_24"/>
     <g id="text_18">
      <text style="fill: #3d3733; font: 9px 'ABC Oracle Edu'; text-anchor: end" x="48.34" y="96.03" transform="rotate(-0 48.34 96.03)">+15pp</text>
     </g>
    </g>
   </g>
   <g id="PolyCollection_1">
    <defs>
     <path id="m3728af86b4" d="M 51.84 -252.764892 
L 51.84 -236.52 
L 55.782378 -236.52 
L 59.724755 -236.52 
L 63.667133 -236.52 
L 67.60951 -236.52 
L 71.551888 -236.52 
L 75.494266 -236.52 
L 79.436643 -236.52 
L 83.379021 -236.52 
L 87.321399 -236.52 
L 91.263776 -236.52 
L 95.206154 -236.52 
L 99.148531 -236.52 
L 103.090909 -236.52 
L 107.033287 -236.52 
L 110.975664 -236.52 
L 114.918042 -236.52 
L 118.86042 -236.52 
L 122.802797 -236.52 
L 126.745175 -236.52 
L 130.687552 -236.52 
L 134.62993 -236.52 
L 138.572308 -236.52 
L 142.514685 -236.52 
L 146.457063 -236.52 
L 150.399441 -236.52 
L 154.341818 -236.52 
L 158.284196 -236.52 
L 162.226573 -236.52 
L 166.168951 -236.52 
L 170.111329 -236.52 
L 174.053706 -236.52 
L 177.996084 -236.52 
L 181.938462 -236.52 
L 185.880839 -236.52 
L 189.823217 -236.52 
L 193.765594 -236.52 
L 197.707972 -236.52 
L 201.65035 -236.52 
L 205.592727 -236.52 
L 209.535105 -236.52 
L 213.477483 -236.52 
L 217.41986 -236.52 
L 221.362238 -236.52 
L 225.304615 -236.52 
L 229.246993 -236.52 
L 233.189371 -236.52 
L 237.131748 -236.52 
L 241.074126 -236.52 
L 245.016503 -236.52 
L 248.958881 -236.52 
L 252.901259 -236.52 
L 256.843636 -236.52 
L 260.786014 -236.52 
L 264.728392 -236.52 
L 268.670769 -236.52 
L 272.613147 -236.52 
L 276.555524 -236.52 
L 280.497902 -236.52 
L 284.44028 -236.52 
L 288.382657 -236.52 
L 292.325035 -236.52 
L 296.267413 -236.52 
L 300.20979 -236.52 
L 304.152168 -236.52 
L 308.094545 -236.52 
L 312.036923 -236.52 
L 315.979301 -236.52 
L 319.921678 -236.52 
L 323.864056 -236.52 
L 327.806434 -236.52 
L 331.748811 -236.52 
L 335.691189 -236.52 
L 339.633566 -236.52 
L 343.575944 -236.52 
L 347.518322 -236.52 
L 351.460699 -236.52 
L 355.403077 -236.52 
L 359.345455 -236.52 
L 363.287832 -236.52 
L 367.23021 -236.52 
L 371.172587 -236.52 
L 375.114965 -236.52 
L 379.057343 -236.52 
L 382.99972 -236.52 
L 386.942098 -236.52 
L 390.884476 -236.52 
L 394.826853 -236.52 
L 398.769231 -236.52 
L 402.711608 -236.52 
L 406.653986 -236.52 
L 410.596364 -236.52 
L 414.538741 -236.52 
L 418.481119 -236.52 
L 422.423497 -236.52 
L 426.365874 -236.52 
L 430.308252 -236.52 
L 434.250629 -236.52 
L 438.193007 -236.52 
L 442.135385 -236.52 
L 446.077762 -236.52 
L 450.02014 -236.52 
L 453.962517 -236.52 
L 457.904895 -236.52 
L 461.847273 -236.52 
L 465.78965 -236.52 
L 469.732028 -236.52 
L 473.674406 -236.52 
L 477.616783 -236.52 
L 481.559161 -236.52 
L 485.501538 -236.52 
L 489.443916 -236.52 
L 493.386294 -236.52 
L 497.328671 -236.52 
L 501.271049 -236.52 
L 505.213427 -236.52 
L 509.155804 -236.52 
L 513.098182 -236.52 
L 517.040559 -236.52 
L 520.982937 -236.52 
L 524.925315 -236.52 
L 528.867692 -236.52 
L 532.81007 -236.52 
L 536.752448 -236.52 
L 540.694825 -236.52 
L 544.637203 -236.52 
L 548.57958 -236.52 
L 552.521958 -236.52 
L 556.464336 -236.52 
L 560.406713 -236.52 
L 564.349091 -236.52 
L 568.291469 -236.52 
L 572.233846 -236.52 
L 576.176224 -236.52 
L 580.118601 -236.52 
L 584.060979 -236.52 
L 588.003357 -236.52 
L 591.945734 -236.52 
L 595.888112 -236.52 
L 599.83049 -236.52 
L 603.772867 -236.52 
L 607.715245 -236.52 
L 611.657622 -236.52 
L 615.6 -236.52 
L 615.6 -241.528395 
L 615.6 -241.528395 
L 611.657622 -242.400823 
L 607.715245 -243.827934 
L 603.772867 -242.219224 
L 599.83049 -244.062176 
L 595.888112 -245.647555 
L 591.945734 -240.821105 
L 588.003357 -242.146559 
L 584.060979 -242.649561 
L 580.118601 -241.738231 
L 576.176224 -243.196339 
L 572.233846 -245.364272 
L 568.291469 -241.286147 
L 564.349091 -242.60566 
L 560.406713 -243.204169 
L 556.464336 -242.1372 
L 552.521958 -243.732259 
L 548.57958 -244.902559 
L 544.637203 -242.108467 
L 540.694825 -243.270841 
L 536.752448 -243.816687 
L 532.81007 -243.171671 
L 528.867692 -245.523306 
L 524.925315 -246.575201 
L 520.982937 -245.253351 
L 517.040559 -247.091635 
L 513.098182 -247.143458 
L 509.155804 -249.962046 
L 505.213427 -252.596741 
L 501.271049 -254.838587 
L 497.328671 -256.967317 
L 493.386294 -262.406354 
L 489.443916 -265.930466 
L 485.501538 -271.929349 
L 481.559161 -281.922062 
L 477.616783 -289.005908 
L 473.674406 -298.831173 
L 469.732028 -310.820731 
L 465.78965 -321.49527 
L 461.847273 -337.965217 
L 457.904895 -355.513678 
L 453.962517 -368.23795 
L 450.02014 -380.85681 
L 446.077762 -394.9853 
L 442.135385 -403.120277 
L 438.193007 -412.782382 
L 434.250629 -424.506264 
L 430.308252 -429.697762 
L 426.365874 -427.782159 
L 422.423497 -429.206658 
L 418.481119 -428.868154 
L 414.538741 -419.749796 
L 410.596364 -417.200351 
L 406.653986 -408.556051 
L 402.711608 -398.224628 
L 398.769231 -387.564061 
L 394.826853 -381.497614 
L 390.884476 -375.772126 
L 386.942098 -366.766467 
L 382.99972 -364.58626 
L 379.057343 -366.225016 
L 375.114965 -363.078884 
L 371.172587 -359.395462 
L 367.23021 -359.803351 
L 363.287832 -359.119668 
L 359.345455 -354.573668 
L 355.403077 -359.456286 
L 351.460699 -358.513865 
L 347.518322 -357.778589 
L 343.575944 -358.30689 
L 339.633566 -359.591978 
L 335.691189 -356.399608 
L 331.748811 -354.908921 
L 327.806434 -354.042333 
L 323.864056 -349.838844 
L 319.921678 -345.549777 
L 315.979301 -345.165653 
L 312.036923 -340.987337 
L 308.094545 -330.25717 
L 304.152168 -326.794195 
L 300.20979 -319.551341 
L 296.267413 -312.209141 
L 292.325035 -308.896508 
L 288.382657 -306.105691 
L 284.44028 -302.964209 
L 280.497902 -302.173341 
L 276.555524 -301.950419 
L 272.613147 -300.914021 
L 268.670769 -299.626972 
L 264.728392 -299.382875 
L 260.786014 -297.565922 
L 256.843636 -298.104345 
L 252.901259 -296.456218 
L 248.958881 -297.865406 
L 245.016503 -297.011252 
L 241.074126 -296.315089 
L 237.131748 -302.10238 
L 233.189371 -301.645157 
L 229.246993 -301.764761 
L 225.304615 -304.89332 
L 221.362238 -305.37814 
L 217.41986 -305.181275 
L 213.477483 -308.919163 
L 209.535105 -310.419437 
L 205.592727 -310.443827 
L 201.65035 -311.576787 
L 197.707972 -310.370826 
L 193.765594 -309.695874 
L 189.823217 -309.499152 
L 185.880839 -310.832653 
L 181.938462 -312.074084 
L 177.996084 -311.277607 
L 174.053706 -312.740727 
L 170.111329 -316.12021 
L 166.168951 -315.042913 
L 162.226573 -319.692342 
L 158.284196 -325.599381 
L 154.341818 -331.673691 
L 150.399441 -340.888631 
L 146.457063 -347.725075 
L 142.514685 -350.666197 
L 138.572308 -362.064935 
L 134.62993 -368.574774 
L 130.687552 -363.837323 
L 126.745175 -373.645052 
L 122.802797 -372.978592 
L 118.86042 -341.306886 
L 114.918042 -343.266297 
L 110.975664 -339.485454 
L 107.033287 -305.039404 
L 103.090909 -304.396324 
L 99.148531 -302.845473 
L 95.206154 -262.200159 
L 91.263776 -260.95377 
L 87.321399 -258.873856 
L 83.379021 -250.758471 
L 79.436643 -250.225809 
L 75.494266 -249.720508 
L 71.551888 -245.968695 
L 67.60951 -247.456619 
L 63.667133 -247.257922 
L 59.724755 -248.815588 
L 55.782378 -251.886261 
L 51.84 -252.764892 
z
" style="stroke: #ffffff; stroke-opacity: 0.85; stroke-width: 0.3"/>
    </defs>
    <g clip-path="url(#p3af781179b)">
     <use xlink:href="#m3728af86b4" x="0" y="540" style="fill: #67a275; fill-opacity: 0.85; stroke: #ffffff; stroke-opacity: 0.85; stroke-width: 0.3"/>
    </g>
   </g>
   <g id="PolyCollection_2">
    <defs>
     <path id="m0f1725de07" d="M 51.84 -252.764892 
L 51.84 -252.764892 
L 55.782378 -251.886261 
L 59.724755 -248.815588 
L 63.667133 -247.257922 
L 67.60951 -247.456619 
L 71.551888 -245.968695 
L 75.494266 -249.720508 
L 79.436643 -250.225809 
L 83.379021 -250.758471 
L 87.321399 -258.873856 
L 91.263776 -260.95377 
L 95.206154 -262.200159 
L 99.148531 -302.845473 
L 103.090909 -304.396324 
L 107.033287 -305.039404 
L 110.975664 -339.485454 
L 114.918042 -343.266297 
L 118.86042 -341.306886 
L 122.802797 -372.978592 
L 126.745175 -373.645052 
L 130.687552 -363.837323 
L 134.62993 -368.574774 
L 138.572308 -362.064935 
L 142.514685 -350.666197 
L 146.457063 -347.725075 
L 150.399441 -340.888631 
L 154.341818 -331.673691 
L 158.284196 -325.599381 
L 162.226573 -319.692342 
L 166.168951 -315.042913 
L 170.111329 -316.12021 
L 174.053706 -312.740727 
L 177.996084 -311.277607 
L 181.938462 -312.074084 
L 185.880839 -310.832653 
L 189.823217 -309.499152 
L 193.765594 -309.695874 
L 197.707972 -310.370826 
L 201.65035 -311.576787 
L 205.592727 -310.443827 
L 209.535105 -310.419437 
L 213.477483 -308.919163 
L 217.41986 -305.181275 
L 221.362238 -305.37814 
L 225.304615 -304.89332 
L 229.246993 -301.764761 
L 233.189371 -301.645157 
L 237.131748 -302.10238 
L 241.074126 -296.315089 
L 245.016503 -297.011252 
L 248.958881 -297.865406 
L 252.901259 -296.456218 
L 256.843636 -298.104345 
L 260.786014 -297.565922 
L 264.728392 -299.382875 
L 268.670769 -299.626972 
L 272.613147 -300.914021 
L 276.555524 -301.950419 
L 280.497902 -302.173341 
L 284.44028 -302.964209 
L 288.382657 -306.105691 
L 292.325035 -308.896508 
L 296.267413 -312.209141 
L 300.20979 -319.551341 
L 304.152168 -326.794195 
L 308.094545 -330.25717 
L 312.036923 -340.987337 
L 315.979301 -345.165653 
L 319.921678 -345.549777 
L 323.864056 -349.838844 
L 327.806434 -354.042333 
L 331.748811 -354.908921 
L 335.691189 -356.399608 
L 339.633566 -359.591978 
L 343.575944 -358.30689 
L 347.518322 -357.778589 
L 351.460699 -358.513865 
L 355.403077 -359.456286 
L 359.345455 -354.573668 
L 363.287832 -359.119668 
L 367.23021 -359.803351 
L 371.172587 -359.395462 
L 375.114965 -363.078884 
L 379.057343 -366.225016 
L 382.99972 -364.58626 
L 386.942098 -366.766467 
L 390.884476 -375.772126 
L 394.826853 -381.497614 
L 398.769231 -387.564061 
L 402.711608 -398.224628 
L 406.653986 -408.556051 
L 410.596364 -417.200351 
L 414.538741 -419.749796 
L 418.481119 -428.868154 
L 422.423497 -429.206658 
L 426.365874 -427.782159 
L 430.308252 -429.697762 
L 434.250629 -424.506264 
L 438.193007 -412.782382 
L 442.135385 -403.120277 
L 446.077762 -394.9853 
L 450.02014 -380.85681 
L 453.962517 -368.23795 
L 457.904895 -355.513678 
L 461.847273 -337.965217 
L 465.78965 -321.49527 
L 469.732028 -310.820731 
L 473.674406 -298.831173 
L 477.616783 -289.005908 
L 481.559161 -281.922062 
L 485.501538 -271.929349 
L 489.443916 -265.930466 
L 493.386294 -262.406354 
L 497.328671 -256.967317 
L 501.271049 -254.838587 
L 505.213427 -252.596741 
L 509.155804 -249.962046 
L 513.098182 -247.143458 
L 517.040559 -247.091635 
L 520.982937 -245.253351 
L 524.925315 -246.575201 
L 528.867692 -245.523306 
L 532.81007 -243.171671 
L 536.752448 -243.816687 
L 540.694825 -243.270841 
L 544.637203 -242.108467 
L 548.57958 -244.902559 
L 552.521958 -243.732259 
L 556.464336 -242.1372 
L 560.406713 -243.204169 
L 564.349091 -242.60566 
L 568.291469 -241.286147 
L 572.233846 -245.364272 
L 576.176224 -243.196339 
L 580.118601 -241.738231 
L 584.060979 -242.649561 
L 588.003357 -242.146559 
L 591.945734 -240.821105 
L 595.888112 -245.647555 
L 599.83049 -244.062176 
L 603.772867 -242.219224 
L 607.715245 -243.827934 
L 611.657622 -242.400823 
L 615.6 -241.528395 
L 615.6 -241.528395 
L 615.6 -241.528395 
L 611.657622 -242.400823 
L 607.715245 -243.827934 
L 603.772867 -242.219224 
L 599.83049 -244.062176 
L 595.888112 -245.647555 
L 591.945734 -240.821105 
L 588.003357 -242.146559 
L 584.060979 -242.649561 
L 580.118601 -241.738231 
L 576.176224 -243.196339 
L 572.233846 -245.364272 
L 568.291469 -241.286147 
L 564.349091 -242.60566 
L 560.406713 -243.204169 
L 556.464336 -242.1372 
L 552.521958 -243.732259 
L 548.57958 -244.902559 
L 544.637203 -242.108467 
L 540.694825 -243.270841 
L 536.752448 -243.816687 
L 532.81007 -243.171671 
L 528.867692 -245.523306 
L 524.925315 -246.575201 
L 520.982937 -245.253351 
L 517.040559 -247.091635 
L 513.098182 -247.143458 
L 509.155804 -249.962046 
L 505.213427 -253.412985 
L 501.271049 -255.371987 
L 497.328671 -260.982802 
L 493.386294 -266.694295 
L 489.443916 -268.679065 
L 485.501538 -274.268386 
L 481.559161 -284.674609 
L 477.616783 -291.095536 
L 473.674406 -304.923223 
L 469.732028 -320.603864 
L 465.78965 -330.333935 
L 461.847273 -349.107447 
L 457.904895 -365.166021 
L 453.962517 -377.281136 
L 450.02014 -393.592909 
L 446.077762 -409.936534 
L 442.135385 -414.933787 
L 438.193007 -421.495762 
L 434.250629 -429.999316 
L 430.308252 -434.429931 
L 426.365874 -437.101218 
L 422.423497 -436.883396 
L 418.481119 -434.299681 
L 414.538741 -426.155226 
L 410.596364 -424.961267 
L 406.653986 -418.653428 
L 402.711608 -414.649475 
L 398.769231 -402.005397 
L 394.826853 -401.259089 
L 390.884476 -403.244149 
L 386.942098 -393.290534 
L 382.99972 -390.022776 
L 379.057343 -402.353505 
L 375.114965 -399.106263 
L 371.172587 -396.178653 
L 367.23021 -399.763175 
L 363.287832 -399.751121 
L 359.345455 -396.005114 
L 355.403077 -403.889611 
L 351.460699 -400.132271 
L 347.518322 -397.819344 
L 343.575944 -397.615459 
L 339.633566 -396.894412 
L 335.691189 -388.619711 
L 331.748811 -390.08842 
L 327.806434 -385.763908 
L 323.864056 -378.063068 
L 319.921678 -377.373037 
L 315.979301 -373.857315 
L 312.036923 -367.869931 
L 308.094545 -363.137459 
L 304.152168 -362.031685 
L 300.20979 -354.801022 
L 296.267413 -348.190743 
L 292.325035 -346.186698 
L 288.382657 -344.766009 
L 284.44028 -340.857109 
L 280.497902 -339.472606 
L 276.555524 -338.102155 
L 272.613147 -339.470838 
L 268.670769 -337.381013 
L 264.728392 -335.22477 
L 260.786014 -337.427326 
L 256.843636 -336.905159 
L 252.901259 -332.19209 
L 248.958881 -335.641067 
L 245.016503 -333.690621 
L 241.074126 -330.808743 
L 237.131748 -342.079168 
L 233.189371 -340.988299 
L 229.246993 -342.307173 
L 225.304615 -350.638118 
L 221.362238 -349.294305 
L 217.41986 -348.030816 
L 213.477483 -358.538945 
L 209.535105 -359.103602 
L 205.592727 -357.852319 
L 201.65035 -365.84057 
L 197.707972 -363.408437 
L 193.765594 -360.020154 
L 189.823217 -368.120945 
L 185.880839 -366.45196 
L 181.938462 -366.503973 
L 177.996084 -370.264114 
L 174.053706 -373.515568 
L 170.111329 -375.607872 
L 166.168951 -377.422682 
L 162.226573 -377.602107 
L 158.284196 -380.264582 
L 154.341818 -388.710953 
L 150.399441 -395.458433 
L 146.457063 -392.58971 
L 142.514685 -390.161934 
L 138.572308 -402.30637 
L 134.62993 -406.916234 
L 130.687552 -405.400904 
L 126.745175 -415.748357 
L 122.802797 -415.035578 
L 118.86042 -370.086775 
L 114.918042 -376.859735 
L 110.975664 -370.619317 
L 107.033287 -325.815812 
L 103.090909 -327.728746 
L 99.148531 -324.074848 
L 95.206154 -269.362743 
L 91.263776 -266.467439 
L 87.321399 -262.873533 
L 83.379021 -253.523605 
L 79.436643 -250.225809 
L 75.494266 -249.720508 
L 71.551888 -245.968695 
L 67.60951 -247.456619 
L 63.667133 -247.257922 
L 59.724755 -248.815588 
L 55.782378 -251.886261 
L 51.84 -252.764892 
z
" style="stroke: #ffffff; stroke-opacity: 0.85; stroke-width: 0.3"/>
    </defs>
    <g clip-path="url(#p3af781179b)">
     <use xlink:href="#m0f1725de07" x="0" y="540" style="fill: #dadfce; fill-opacity: 0.85; stroke: #ffffff; stroke-opacity: 0.85; stroke-width: 0.3"/>
    </g>
   </g>
   <g id="PolyCollection_3">
    <defs>
     <path id="mf5d4f15ab8" d="M 51.84 -252.764892 
L 51.84 -252.764892 
L 55.782378 -251.886261 
L 59.724755 -248.815588 
L 63.667133 -247.257922 
L 67.60951 -247.456619 
L 71.551888 -245.968695 
L 75.494266 -249.720508 
L 79.436643 -250.225809 
L 83.379021 -253.523605 
L 87.321399 -262.873533 
L 91.263776 -266.467439 
L 95.206154 -269.362743 
L 99.148531 -324.074848 
L 103.090909 -327.728746 
L 107.033287 -325.815812 
L 110.975664 -370.619317 
L 114.918042 -376.859735 
L 118.86042 -370.086775 
L 122.802797 -415.035578 
L 126.745175 -415.748357 
L 130.687552 -405.400904 
L 134.62993 -406.916234 
L 138.572308 -402.30637 
L 142.514685 -390.161934 
L 146.457063 -392.58971 
L 150.399441 -395.458433 
L 154.341818 -388.710953 
L 158.284196 -380.264582 
L 162.226573 -377.602107 
L 166.168951 -377.422682 
L 170.111329 -375.607872 
L 174.053706 -373.515568 
L 177.996084 -370.264114 
L 181.938462 -366.503973 
L 185.880839 -366.45196 
L 189.823217 -368.120945 
L 193.765594 -360.020154 
L 197.707972 -363.408437 
L 201.65035 -365.84057 
L 205.592727 -357.852319 
L 209.535105 -359.103602 
L 213.477483 -358.538945 
L 217.41986 -348.030816 
L 221.362238 -349.294305 
L 225.304615 -350.638118 
L 229.246993 -342.307173 
L 233.189371 -340.988299 
L 237.131748 -342.079168 
L 241.074126 -330.808743 
L 245.016503 -333.690621 
L 248.958881 -335.641067 
L 252.901259 -332.19209 
L 256.843636 -336.905159 
L 260.786014 -337.427326 
L 264.728392 -335.22477 
L 268.670769 -337.381013 
L 272.613147 -339.470838 
L 276.555524 -338.102155 
L 280.497902 -339.472606 
L 284.44028 -340.857109 
L 288.382657 -344.766009 
L 292.325035 -346.186698 
L 296.267413 -348.190743 
L 300.20979 -354.801022 
L 304.152168 -362.031685 
L 308.094545 -363.137459 
L 312.036923 -367.869931 
L 315.979301 -373.857315 
L 319.921678 -377.373037 
L 323.864056 -378.063068 
L 327.806434 -385.763908 
L 331.748811 -390.08842 
L 335.691189 -388.619711 
L 339.633566 -396.894412 
L 343.575944 -397.615459 
L 347.518322 -397.819344 
L 351.460699 -400.132271 
L 355.403077 -403.889611 
L 359.345455 -396.005114 
L 363.287832 -399.751121 
L 367.23021 -399.763175 
L 371.172587 -396.178653 
L 375.114965 -399.106263 
L 379.057343 -402.353505 
L 382.99972 -390.022776 
L 386.942098 -393.290534 
L 390.884476 -403.244149 
L 394.826853 -401.259089 
L 398.769231 -402.005397 
L 402.711608 -414.649475 
L 406.653986 -418.653428 
L 410.596364 -424.961267 
L 414.538741 -426.155226 
L 418.481119 -434.299681 
L 422.423497 -436.883396 
L 426.365874 -437.101218 
L 430.308252 -434.429931 
L 434.250629 -429.999316 
L 438.193007 -421.495762 
L 442.135385 -414.933787 
L 446.077762 -409.936534 
L 450.02014 -393.592909 
L 453.962517 -377.281136 
L 457.904895 -365.166021 
L 461.847273 -349.107447 
L 465.78965 -330.333935 
L 469.732028 -320.603864 
L 473.674406 -304.923223 
L 477.616783 -291.095536 
L 481.559161 -284.674609 
L 485.501538 -274.268386 
L 489.443916 -268.679065 
L 493.386294 -266.694295 
L 497.328671 -260.982802 
L 501.271049 -255.371987 
L 505.213427 -253.412985 
L 509.155804 -249.962046 
L 513.098182 -247.143458 
L 517.040559 -247.091635 
L 520.982937 -245.253351 
L 524.925315 -246.575201 
L 528.867692 -245.523306 
L 532.81007 -243.171671 
L 536.752448 -243.816687 
L 540.694825 -243.270841 
L 544.637203 -242.108467 
L 548.57958 -244.902559 
L 552.521958 -243.732259 
L 556.464336 -242.1372 
L 560.406713 -243.204169 
L 564.349091 -242.60566 
L 568.291469 -241.286147 
L 572.233846 -245.364272 
L 576.176224 -243.196339 
L 580.118601 -241.738231 
L 584.060979 -242.649561 
L 588.003357 -242.146559 
L 591.945734 -240.821105 
L 595.888112 -245.647555 
L 599.83049 -244.062176 
L 603.772867 -242.219224 
L 607.715245 -243.827934 
L 611.657622 -242.400823 
L 615.6 -241.528395 
L 615.6 -241.528395 
L 615.6 -241.528395 
L 611.657622 -242.400823 
L 607.715245 -243.827934 
L 603.772867 -242.219224 
L 599.83049 -244.062176 
L 595.888112 -245.647555 
L 591.945734 -240.821105 
L 588.003357 -242.146559 
L 584.060979 -242.649561 
L 580.118601 -241.738231 
L 576.176224 -243.196339 
L 572.233846 -245.364272 
L 568.291469 -241.286147 
L 564.349091 -242.60566 
L 560.406713 -243.204169 
L 556.464336 -242.1372 
L 552.521958 -243.732259 
L 548.57958 -244.902559 
L 544.637203 -242.108467 
L 540.694825 -243.270841 
L 536.752448 -243.816687 
L 532.81007 -243.171671 
L 528.867692 -245.523306 
L 524.925315 -246.575201 
L 520.982937 -245.253351 
L 517.040559 -247.091635 
L 513.098182 -247.143458 
L 509.155804 -249.962046 
L 505.213427 -253.412985 
L 501.271049 -255.371987 
L 497.328671 -260.982802 
L 493.386294 -266.694295 
L 489.443916 -268.679065 
L 485.501538 -274.268386 
L 481.559161 -284.674609 
L 477.616783 -291.095536 
L 473.674406 -304.923223 
L 469.732028 -320.603864 
L 465.78965 -330.333935 
L 461.847273 -349.107447 
L 457.904895 -365.166021 
L 453.962517 -377.281136 
L 450.02014 -394.355797 
L 446.077762 -409.936534 
L 442.135385 -414.933787 
L 438.193007 -421.495762 
L 434.250629 -429.999316 
L 430.308252 -434.444378 
L 426.365874 -441.702056 
L 422.423497 -441.508575 
L 418.481119 -437.708338 
L 414.538741 -429.999442 
L 410.596364 -424.961267 
L 406.653986 -418.653428 
L 402.711608 -420.109256 
L 398.769231 -404.154747 
L 394.826853 -401.259089 
L 390.884476 -405.812412 
L 386.942098 -397.551473 
L 382.99972 -390.022776 
L 379.057343 -413.527718 
L 375.114965 -418.471856 
L 371.172587 -412.17728 
L 367.23021 -417.352154 
L 363.287832 -412.203527 
L 359.345455 -409.697457 
L 355.403077 -426.102128 
L 351.460699 -421.710336 
L 347.518322 -419.063086 
L 343.575944 -420.048712 
L 339.633566 -420.528863 
L 335.691189 -415.402302 
L 331.748811 -414.580534 
L 327.806434 -416.544801 
L 323.864056 -409.496377 
L 319.921678 -405.919995 
L 315.979301 -405.808834 
L 312.036923 -405.315306 
L 308.094545 -395.01887 
L 304.152168 -393.099557 
L 300.20979 -380.595253 
L 296.267413 -366.677634 
L 292.325035 -363.831508 
L 288.382657 -358.612267 
L 284.44028 -346.881691 
L 280.497902 -344.531099 
L 276.555524 -346.56623 
L 272.613147 -339.948144 
L 268.670769 -340.703733 
L 264.728392 -335.22477 
L 260.786014 -339.880806 
L 256.843636 -342.138163 
L 252.901259 -337.340518 
L 248.958881 -340.331125 
L 245.016503 -339.649418 
L 241.074126 -336.370109 
L 237.131748 -352.306275 
L 233.189371 -349.374393 
L 229.246993 -351.859585 
L 225.304615 -359.576574 
L 221.362238 -355.409191 
L 217.41986 -354.765887 
L 213.477483 -361.41055 
L 209.535105 -364.8397 
L 205.592727 -362.707639 
L 201.65035 -368.461041 
L 197.707972 -365.079158 
L 193.765594 -361.814162 
L 189.823217 -368.644652 
L 185.880839 -367.823225 
L 181.938462 -368.243913 
L 177.996084 -376.07716 
L 174.053706 -382.600866 
L 170.111329 -383.852003 
L 166.168951 -393.833117 
L 162.226573 -398.608149 
L 158.284196 -405.033788 
L 154.341818 -417.596069 
L 150.399441 -428.966396 
L 146.457063 -434.606686 
L 142.514685 -429.662473 
L 138.572308 -446.494438 
L 134.62993 -455.814278 
L 130.687552 -439.142653 
L 126.745175 -447.349938 
L 122.802797 -438.693913 
L 118.86042 -379.948203 
L 114.918042 -380.976624 
L 110.975664 -371.266725 
L 107.033287 -325.815812 
L 103.090909 -327.728746 
L 99.148531 -324.074848 
L 95.206154 -269.362743 
L 91.263776 -266.467439 
L 87.321399 -262.873533 
L 83.379021 -253.523605 
L 79.436643 -251.755484 
L 75.494266 -251.638762 
L 71.551888 -246.816141 
L 67.60951 -247.98031 
L 63.667133 -250.132821 
L 59.724755 -248.849487 
L 55.782378 -251.886261 
L 51.84 -252.764892 
z
" style="stroke: #ffffff; stroke-opacity: 0.85; stroke-width: 0.3"/>
    </defs>
    <g clip-path="url(#p3af781179b)">
     <use xlink:href="#mf5d4f15ab8" x="0" y="540" style="fill: #999999; fill-opacity: 0.85; stroke: #ffffff; stroke-opacity: 0.85; stroke-width: 0.3"/>
    </g>
   </g>
   <g id="PolyCollection_4">
    <defs>
     <path id="m5b67049eaf" d="M 51.84 -252.764892 
L 51.84 -252.764892 
L 55.782378 -251.886261 
L 59.724755 -248.849487 
L 63.667133 -250.132821 
L 67.60951 -247.98031 
L 71.551888 -246.816141 
L 75.494266 -251.638762 
L 79.436643 -251.755484 
L 83.379021 -253.523605 
L 87.321399 -262.873533 
L 91.263776 -266.467439 
L 95.206154 -269.362743 
L 99.148531 -324.074848 
L 103.090909 -327.728746 
L 107.033287 -325.815812 
L 110.975664 -371.266725 
L 114.918042 -380.976624 
L 118.86042 -379.948203 
L 122.802797 -438.693913 
L 126.745175 -447.349938 
L 130.687552 -439.142653 
L 134.62993 -455.814278 
L 138.572308 -446.494438 
L 142.514685 -429.662473 
L 146.457063 -434.606686 
L 150.399441 -428.966396 
L 154.341818 -417.596069 
L 158.284196 -405.033788 
L 162.226573 -398.608149 
L 166.168951 -393.833117 
L 170.111329 -383.852003 
L 174.053706 -382.600866 
L 177.996084 -376.07716 
L 181.938462 -368.243913 
L 185.880839 -367.823225 
L 189.823217 -368.644652 
L 193.765594 -361.814162 
L 197.707972 -365.079158 
L 201.65035 -368.461041 
L 205.592727 -362.707639 
L 209.535105 -364.8397 
L 213.477483 -361.41055 
L 217.41986 -354.765887 
L 221.362238 -355.409191 
L 225.304615 -359.576574 
L 229.246993 -351.859585 
L 233.189371 -349.374393 
L 237.131748 -352.306275 
L 241.074126 -336.370109 
L 245.016503 -339.649418 
L 248.958881 -340.331125 
L 252.901259 -337.340518 
L 256.843636 -342.138163 
L 260.786014 -339.880806 
L 264.728392 -335.22477 
L 268.670769 -340.703733 
L 272.613147 -339.948144 
L 276.555524 -346.56623 
L 280.497902 -344.531099 
L 284.44028 -346.881691 
L 288.382657 -358.612267 
L 292.325035 -363.831508 
L 296.267413 -366.677634 
L 300.20979 -380.595253 
L 304.152168 -393.099557 
L 308.094545 -395.01887 
L 312.036923 -405.315306 
L 315.979301 -405.808834 
L 319.921678 -405.919995 
L 323.864056 -409.496377 
L 327.806434 -416.544801 
L 331.748811 -414.580534 
L 335.691189 -415.402302 
L 339.633566 -420.528863 
L 343.575944 -420.048712 
L 347.518322 -419.063086 
L 351.460699 -421.710336 
L 355.403077 -426.102128 
L 359.345455 -409.697457 
L 363.287832 -412.203527 
L 367.23021 -417.352154 
L 371.172587 -412.17728 
L 375.114965 -418.471856 
L 379.057343 -413.527718 
L 382.99972 -390.022776 
L 386.942098 -397.551473 
L 390.884476 -405.812412 
L 394.826853 -401.259089 
L 398.769231 -404.154747 
L 402.711608 -420.109256 
L 406.653986 -418.653428 
L 410.596364 -424.961267 
L 414.538741 -429.999442 
L 418.481119 -437.708338 
L 422.423497 -441.508575 
L 426.365874 -441.702056 
L 430.308252 -434.444378 
L 434.250629 -429.999316 
L 438.193007 -421.495762 
L 442.135385 -414.933787 
L 446.077762 -409.936534 
L 450.02014 -394.355797 
L 453.962517 -377.281136 
L 457.904895 -365.166021 
L 461.847273 -349.107447 
L 465.78965 -330.333935 
L 469.732028 -320.603864 
L 473.674406 -304.923223 
L 477.616783 -291.095536 
L 481.559161 -284.674609 
L 485.501538 -274.268386 
L 489.443916 -268.679065 
L 493.386294 -266.694295 
L 497.328671 -260.982802 
L 501.271049 -255.371987 
L 505.213427 -253.412985 
L 509.155804 -249.962046 
L 513.098182 -247.143458 
L 517.040559 -247.091635 
L 520.982937 -245.253351 
L 524.925315 -246.575201 
L 528.867692 -245.523306 
L 532.81007 -243.171671 
L 536.752448 -243.816687 
L 540.694825 -243.270841 
L 544.637203 -242.108467 
L 548.57958 -244.902559 
L 552.521958 -243.732259 
L 556.464336 -242.1372 
L 560.406713 -243.204169 
L 564.349091 -242.60566 
L 568.291469 -241.286147 
L 572.233846 -245.364272 
L 576.176224 -243.196339 
L 580.118601 -241.738231 
L 584.060979 -242.649561 
L 588.003357 -242.146559 
L 591.945734 -240.821105 
L 595.888112 -245.647555 
L 599.83049 -244.062176 
L 603.772867 -242.219224 
L 607.715245 -243.827934 
L 611.657622 -242.400823 
L 615.6 -241.528395 
L 615.6 -241.528395 
L 615.6 -241.528395 
L 611.657622 -242.400823 
L 607.715245 -243.827934 
L 603.772867 -242.219224 
L 599.83049 -244.062176 
L 595.888112 -245.647555 
L 591.945734 -240.821105 
L 588.003357 -242.146559 
L 584.060979 -242.649561 
L 580.118601 -241.738231 
L 576.176224 -243.196339 
L 572.233846 -245.364272 
L 568.291469 -241.286147 
L 564.349091 -242.60566 
L 560.406713 -243.204169 
L 556.464336 -242.1372 
L 552.521958 -243.732259 
L 548.57958 -244.902559 
L 544.637203 -242.108467 
L 540.694825 -243.270841 
L 536.752448 -243.816687 
L 532.81007 -243.171671 
L 528.867692 -245.523306 
L 524.925315 -246.575201 
L 520.982937 -245.253351 
L 517.040559 -247.091635 
L 513.098182 -247.143458 
L 509.155804 -249.962046 
L 505.213427 -253.412985 
L 501.271049 -255.371987 
L 497.328671 -260.982802 
L 493.386294 -266.694295 
L 489.443916 -268.679065 
L 485.501538 -274.268386 
L 481.559161 -284.674609 
L 477.616783 -291.095536 
L 473.674406 -304.923223 
L 469.732028 -320.603864 
L 465.78965 -330.333935 
L 461.847273 -349.107447 
L 457.904895 -365.166021 
L 453.962517 -377.281136 
L 450.02014 -394.355797 
L 446.077762 -409.936534 
L 442.135385 -414.933787 
L 438.193007 -421.495762 
L 434.250629 -429.999316 
L 430.308252 -434.444378 
L 426.365874 -441.702056 
L 422.423497 -441.508575 
L 418.481119 -437.708338 
L 414.538741 -429.999442 
L 410.596364 -424.961267 
L 406.653986 -418.678607 
L 402.711608 -434.209051 
L 398.769231 -424.26577 
L 394.826853 -425.512095 
L 390.884476 -436.273347 
L 386.942098 -432.134202 
L 382.99972 -429.970865 
L 379.057343 -448.252942 
L 375.114965 -449.5122 
L 371.172587 -442.870561 
L 367.23021 -436.771092 
L 363.287832 -425.014827 
L 359.345455 -418.666407 
L 355.403077 -432.039926 
L 351.460699 -423.871868 
L 347.518322 -419.063086 
L 343.575944 -420.048712 
L 339.633566 -420.528863 
L 335.691189 -415.402302 
L 331.748811 -418.109794 
L 327.806434 -418.124999 
L 323.864056 -409.64849 
L 319.921678 -405.919995 
L 315.979301 -405.808834 
L 312.036923 -405.315306 
L 308.094545 -395.01887 
L 304.152168 -393.099557 
L 300.20979 -380.595253 
L 296.267413 -366.677634 
L 292.325035 -363.831508 
L 288.382657 -358.612267 
L 284.44028 -346.881691 
L 280.497902 -344.531099 
L 276.555524 -346.56623 
L 272.613147 -339.948144 
L 268.670769 -340.703733 
L 264.728392 -335.22477 
L 260.786014 -339.880806 
L 256.843636 -342.138163 
L 252.901259 -338.680596 
L 248.958881 -344.279081 
L 245.016503 -340.057317 
L 241.074126 -336.370109 
L 237.131748 -361.670896 
L 233.189371 -357.129445 
L 229.246993 -356.664837 
L 225.304615 -361.707053 
L 221.362238 -357.789038 
L 217.41986 -354.765887 
L 213.477483 -361.41055 
L 209.535105 -364.8397 
L 205.592727 -362.707639 
L 201.65035 -368.461041 
L 197.707972 -365.079158 
L 193.765594 -361.814162 
L 189.823217 -369.784139 
L 185.880839 -369.821052 
L 181.938462 -370.904759 
L 177.996084 -376.519519 
L 174.053706 -382.600866 
L 170.111329 -383.852003 
L 166.168951 -397.99175 
L 162.226573 -402.550479 
L 158.284196 -407.240282 
L 154.341818 -422.784129 
L 150.399441 -430.154797 
L 146.457063 -436.752667 
L 142.514685 -435.694196 
L 138.572308 -448.375921 
L 134.62993 -458.957441 
L 130.687552 -442.264076 
L 126.745175 -447.349938 
L 122.802797 -438.693913 
L 118.86042 -383.353611 
L 114.918042 -382.736369 
L 110.975664 -374.405826 
L 107.033287 -325.815812 
L 103.090909 -327.728746 
L 99.148531 -324.074848 
L 95.206154 -269.362743 
L 91.263776 -266.467439 
L 87.321399 -262.873533 
L 83.379021 -253.523605 
L 79.436643 -251.755484 
L 75.494266 -251.638762 
L 71.551888 -246.816141 
L 67.60951 -247.98031 
L 63.667133 -250.132821 
L 59.724755 -248.849487 
L 55.782378 -251.886261 
L 51.84 -252.764892 
z
" style="stroke: #ffffff; stroke-opacity: 0.85; stroke-width: 0.3"/>
    </defs>
    <g clip-path="url(#p3af781179b)">
     <use xlink:href="#m5b67049eaf" x="0" y="540" style="fill: #e8a87c; fill-opacity: 0.85; stroke: #ffffff; stroke-opacity: 0.85; stroke-width: 0.3"/>
    </g>
   </g>
   <g id="PolyCollection_5">
    <defs>
     <path id="m3380296e0f" d="M 51.84 -259.296739 
L 51.84 -252.764892 
L 55.782378 -251.886261 
L 59.724755 -248.849487 
L 63.667133 -250.132821 
L 67.60951 -247.98031 
L 71.551888 -246.816141 
L 75.494266 -251.638762 
L 79.436643 -251.755484 
L 83.379021 -253.523605 
L 87.321399 -262.873533 
L 91.263776 -266.467439 
L 95.206154 -269.362743 
L 99.148531 -324.074848 
L 103.090909 -327.728746 
L 107.033287 -325.815812 
L 110.975664 -374.405826 
L 114.918042 -382.736369 
L 118.86042 -383.353611 
L 122.802797 -438.693913 
L 126.745175 -447.349938 
L 130.687552 -442.264076 
L 134.62993 -458.957441 
L 138.572308 -448.375921 
L 142.514685 -435.694196 
L 146.457063 -436.752667 
L 150.399441 -430.154797 
L 154.341818 -422.784129 
L 158.284196 -407.240282 
L 162.226573 -402.550479 
L 166.168951 -397.99175 
L 170.111329 -383.852003 
L 174.053706 -382.600866 
L 177.996084 -376.519519 
L 181.938462 -370.904759 
L 185.880839 -369.821052 
L 189.823217 -369.784139 
L 193.765594 -361.814162 
L 197.707972 -365.079158 
L 201.65035 -368.461041 
L 205.592727 -362.707639 
L 209.535105 -364.8397 
L 213.477483 -361.41055 
L 217.41986 -354.765887 
L 221.362238 -357.789038 
L 225.304615 -361.707053 
L 229.246993 -356.664837 
L 233.189371 -357.129445 
L 237.131748 -361.670896 
L 241.074126 -336.370109 
L 245.016503 -340.057317 
L 248.958881 -344.279081 
L 252.901259 -338.680596 
L 256.843636 -342.138163 
L 260.786014 -339.880806 
L 264.728392 -335.22477 
L 268.670769 -340.703733 
L 272.613147 -339.948144 
L 276.555524 -346.56623 
L 280.497902 -344.531099 
L 284.44028 -346.881691 
L 288.382657 -358.612267 
L 292.325035 -363.831508 
L 296.267413 -366.677634 
L 300.20979 -380.595253 
L 304.152168 -393.099557 
L 308.094545 -395.01887 
L 312.036923 -405.315306 
L 315.979301 -405.808834 
L 319.921678 -405.919995 
L 323.864056 -409.64849 
L 327.806434 -418.124999 
L 331.748811 -418.109794 
L 335.691189 -415.402302 
L 339.633566 -420.528863 
L 343.575944 -420.048712 
L 347.518322 -419.063086 
L 351.460699 -423.871868 
L 355.403077 -432.039926 
L 359.345455 -418.666407 
L 363.287832 -425.014827 
L 367.23021 -436.771092 
L 371.172587 -442.870561 
L 375.114965 -449.5122 
L 379.057343 -448.252942 
L 382.99972 -429.970865 
L 386.942098 -432.134202 
L 390.884476 -436.273347 
L 394.826853 -425.512095 
L 398.769231 -424.26577 
L 402.711608 -434.209051 
L 406.653986 -418.678607 
L 410.596364 -424.961267 
L 414.538741 -429.999442 
L 418.481119 -437.708338 
L 422.423497 -441.508575 
L 426.365874 -441.702056 
L 430.308252 -434.444378 
L 434.250629 -429.999316 
L 438.193007 -421.495762 
L 442.135385 -414.933787 
L 446.077762 -409.936534 
L 450.02014 -394.355797 
L 453.962517 -377.281136 
L 457.904895 -365.166021 
L 461.847273 -349.107447 
L 465.78965 -330.333935 
L 469.732028 -320.603864 
L 473.674406 -304.923223 
L 477.616783 -291.095536 
L 481.559161 -284.674609 
L 485.501538 -274.268386 
L 489.443916 -268.679065 
L 493.386294 -266.694295 
L 497.328671 -260.982802 
L 501.271049 -255.371987 
L 505.213427 -253.412985 
L 509.155804 -249.962046 
L 513.098182 -247.143458 
L 517.040559 -247.091635 
L 520.982937 -245.253351 
L 524.925315 -246.575201 
L 528.867692 -245.523306 
L 532.81007 -243.171671 
L 536.752448 -243.816687 
L 540.694825 -243.270841 
L 544.637203 -242.108467 
L 548.57958 -244.902559 
L 552.521958 -243.732259 
L 556.464336 -242.1372 
L 560.406713 -243.204169 
L 564.349091 -242.60566 
L 568.291469 -241.286147 
L 572.233846 -245.364272 
L 576.176224 -243.196339 
L 580.118601 -241.738231 
L 584.060979 -242.649561 
L 588.003357 -242.146559 
L 591.945734 -240.821105 
L 595.888112 -245.647555 
L 599.83049 -244.062176 
L 603.772867 -242.219224 
L 607.715245 -243.827934 
L 611.657622 -242.400823 
L 615.6 -241.528395 
L 615.6 -258.469332 
L 615.6 -258.469332 
L 611.657622 -259.682569 
L 607.715245 -259.357653 
L 603.772867 -259.016338 
L 599.83049 -260.185241 
L 595.888112 -259.762248 
L 591.945734 -265.021492 
L 588.003357 -265.008247 
L 584.060979 -265.108961 
L 580.118601 -267.526451 
L 576.176224 -270.546086 
L 572.233846 -271.137259 
L 568.291469 -279.831596 
L 564.349091 -282.23717 
L 560.406713 -283.584825 
L 556.464336 -288.984027 
L 552.521958 -289.802762 
L 548.57958 -292.203812 
L 544.637203 -302.531637 
L 540.694825 -304.780526 
L 536.752448 -306.254354 
L 532.81007 -310.001207 
L 528.867692 -314.210433 
L 524.925315 -315.195144 
L 520.982937 -333.284242 
L 517.040559 -337.846696 
L 513.098182 -339.420718 
L 509.155804 -344.286764 
L 505.213427 -344.535077 
L 501.271049 -346.97001 
L 497.328671 -359.985221 
L 493.386294 -356.972078 
L 489.443916 -358.29038 
L 485.501538 -359.501819 
L 481.559161 -359.22989 
L 477.616783 -355.581204 
L 473.674406 -365.258395 
L 469.732028 -369.827513 
L 465.78965 -371.693163 
L 461.847273 -374.704719 
L 457.904895 -380.122764 
L 453.962517 -384.95487 
L 450.02014 -397.040477 
L 446.077762 -409.936534 
L 442.135385 -414.933787 
L 438.193007 -421.495762 
L 434.250629 -429.999316 
L 430.308252 -434.444378 
L 426.365874 -441.702056 
L 422.423497 -441.508575 
L 418.481119 -437.708338 
L 414.538741 -429.999442 
L 410.596364 -424.961267 
L 406.653986 -418.678607 
L 402.711608 -434.209051 
L 398.769231 -424.26577 
L 394.826853 -425.512095 
L 390.884476 -436.273347 
L 386.942098 -432.134202 
L 382.99972 -429.970865 
L 379.057343 -448.252942 
L 375.114965 -449.5122 
L 371.172587 -442.870561 
L 367.23021 -436.771092 
L 363.287832 -425.014827 
L 359.345455 -418.666407 
L 355.403077 -432.039926 
L 351.460699 -423.871868 
L 347.518322 -419.063086 
L 343.575944 -420.048712 
L 339.633566 -420.528863 
L 335.691189 -415.402302 
L 331.748811 -418.109794 
L 327.806434 -418.124999 
L 323.864056 -409.64849 
L 319.921678 -405.919995 
L 315.979301 -405.808834 
L 312.036923 -405.315306 
L 308.094545 -395.01887 
L 304.152168 -393.099557 
L 300.20979 -380.595253 
L 296.267413 -366.677634 
L 292.325035 -363.831508 
L 288.382657 -358.612267 
L 284.44028 -346.881691 
L 280.497902 -344.531099 
L 276.555524 -346.56623 
L 272.613147 -339.948144 
L 268.670769 -340.703733 
L 264.728392 -335.22477 
L 260.786014 -339.880806 
L 256.843636 -342.138163 
L 252.901259 -338.680596 
L 248.958881 -344.279081 
L 245.016503 -340.057317 
L 241.074126 -336.370109 
L 237.131748 -361.670896 
L 233.189371 -357.129445 
L 229.246993 -356.664837 
L 225.304615 -361.707053 
L 221.362238 -357.789038 
L 217.41986 -354.765887 
L 213.477483 -361.41055 
L 209.535105 -364.8397 
L 205.592727 -362.707639 
L 201.65035 -368.461041 
L 197.707972 -365.079158 
L 193.765594 -361.814162 
L 189.823217 -369.784139 
L 185.880839 -369.821052 
L 181.938462 -370.904759 
L 177.996084 -376.519519 
L 174.053706 -382.600866 
L 170.111329 -383.852003 
L 166.168951 -397.99175 
L 162.226573 -402.550479 
L 158.284196 -407.240282 
L 154.341818 -422.784129 
L 150.399441 -430.154797 
L 146.457063 -436.752667 
L 142.514685 -435.694196 
L 138.572308 -448.375921 
L 134.62993 -458.957441 
L 130.687552 -442.264076 
L 126.745175 -447.349938 
L 122.802797 -438.693913 
L 118.86042 -383.353611 
L 114.918042 -382.736369 
L 110.975664 -374.405826 
L 107.033287 -325.815812 
L 103.090909 -327.728746 
L 99.148531 -324.074848 
L 95.206154 -269.362743 
L 91.263776 -266.467439 
L 87.321399 -262.873533 
L 83.379021 -254.782008 
L 79.436643 -255.307816 
L 75.494266 -256.323712 
L 71.551888 -257.576764 
L 67.60951 -258.248174 
L 63.667133 -258.904647 
L 59.724755 -257.107572 
L 55.782378 -259.461731 
L 51.84 -259.296739 
z
" style="stroke: #ffffff; stroke-opacity: 0.85; stroke-width: 0.3"/>
    </defs>
    <g clip-path="url(#p3af781179b)">
     <use xlink:href="#m3380296e0f" x="0" y="540" style="fill: #d4d4d4; fill-opacity: 0.85; stroke: #ffffff; stroke-opacity: 0.85; stroke-width: 0.3"/>
    </g>
   </g>
   <g id="PolyCollection_6">
    <defs>
     <path id="mab19019141" d="M 51.84 -236.52 
L 51.84 -225.039426 
L 55.782378 -223.913657 
L 59.724755 -224.467057 
L 63.667133 -223.595405 
L 67.60951 -223.496951 
L 71.551888 -223.409362 
L 75.494266 -223.307365 
L 79.436643 -223.046544 
L 83.379021 -222.847437 
L 87.321399 -221.789704 
L 91.263776 -221.595592 
L 95.206154 -221.871291 
L 99.148531 -223.429731 
L 103.090909 -224.550745 
L 107.033287 -223.218138 
L 110.975664 -223.890853 
L 114.918042 -222.90915 
L 118.86042 -225.023174 
L 122.802797 -221.182832 
L 126.745175 -220.876992 
L 130.687552 -220.830148 
L 134.62993 -214.776875 
L 138.572308 -217.067103 
L 142.514685 -218.215425 
L 146.457063 -217.313159 
L 150.399441 -215.741609 
L 154.341818 -213.12048 
L 158.284196 -215.102376 
L 162.226573 -212.685399 
L 166.168951 -212.690377 
L 170.111329 -208.012807 
L 174.053706 -206.47518 
L 177.996084 -207.162284 
L 181.938462 -203.148614 
L 185.880839 -202.873857 
L 189.823217 -203.098705 
L 193.765594 -196.18093 
L 197.707972 -193.503427 
L 201.65035 -193.842266 
L 205.592727 -192.258854 
L 209.535105 -192.872603 
L 213.477483 -193.570107 
L 217.41986 -190.501671 
L 221.362238 -192.24955 
L 225.304615 -190.471023 
L 229.246993 -187.43834 
L 233.189371 -184.80913 
L 237.131748 -183.853082 
L 241.074126 -192.662059 
L 245.016503 -190.316943 
L 248.958881 -187.262462 
L 252.901259 -188.986437 
L 256.843636 -187.386783 
L 260.786014 -187.662931 
L 264.728392 -191.104948 
L 268.670769 -189.983629 
L 272.613147 -189.10787 
L 276.555524 -186.569973 
L 280.497902 -186.260997 
L 284.44028 -186.895242 
L 288.382657 -183.887503 
L 292.325035 -182.280404 
L 296.267413 -181.150388 
L 300.20979 -179.985738 
L 304.152168 -178.636834 
L 308.094545 -176.681201 
L 312.036923 -172.216354 
L 315.979301 -172.489543 
L 319.921678 -171.719747 
L 323.864056 -169.203605 
L 327.806434 -165.216101 
L 331.748811 -163.4348 
L 335.691189 -166.744519 
L 339.633566 -160.412133 
L 343.575944 -158.035465 
L 347.518322 -150.855361 
L 351.460699 -144.433784 
L 355.403077 -138.49513 
L 359.345455 -140.581441 
L 363.287832 -139.876731 
L 367.23021 -131.836445 
L 371.172587 -127.511844 
L 375.114965 -122.451846 
L 379.057343 -116.056168 
L 382.99972 -124.056527 
L 386.942098 -119.834735 
L 390.884476 -113.74628 
L 394.826853 -113.147542 
L 398.769231 -111.21679 
L 402.711608 -102.217948 
L 406.653986 -110.731183 
L 410.596364 -105.326543 
L 414.538741 -98.788798 
L 418.481119 -96.171466 
L 422.423497 -96.790464 
L 426.365874 -95.358119 
L 430.308252 -104.351502 
L 434.250629 -102.928741 
L 438.193007 -103.712926 
L 442.135385 -105.781175 
L 446.077762 -108.560695 
L 450.02014 -117.254858 
L 453.962517 -131.261631 
L 457.904895 -134.133886 
L 461.847273 -137.324144 
L 465.78965 -139.313644 
L 469.732028 -142.365845 
L 473.674406 -141.561055 
L 477.616783 -156.602311 
L 481.559161 -151.73622 
L 485.501538 -147.843403 
L 489.443916 -153.833746 
L 493.386294 -152.187177 
L 497.328671 -150.55974 
L 501.271049 -164.025552 
L 505.213427 -164.005176 
L 509.155804 -162.883054 
L 513.098182 -170.350488 
L 517.040559 -171.485614 
L 520.982937 -172.156907 
L 524.925315 -189.49032 
L 528.867692 -187.873573 
L 532.81007 -188.28518 
L 536.752448 -192.859312 
L 540.694825 -193.187363 
L 544.637203 -193.442201 
L 548.57958 -202.477326 
L 552.521958 -203.467835 
L 556.464336 -203.88561 
L 560.406713 -206.716182 
L 564.349091 -207.279781 
L 568.291469 -207.884109 
L 572.233846 -216.229669 
L 576.176224 -216.250229 
L 580.118601 -216.873347 
L 584.060979 -219.942646 
L 588.003357 -220.231345 
L 591.945734 -220.526365 
L 595.888112 -224.191701 
L 599.83049 -223.985742 
L 603.772867 -224.285209 
L 607.715245 -224.704051 
L 611.657622 -224.123187 
L 615.6 -224.597369 
L 615.6 -236.52 
L 615.6 -236.52 
L 611.657622 -236.52 
L 607.715245 -236.52 
L 603.772867 -236.52 
L 599.83049 -236.52 
L 595.888112 -236.52 
L 591.945734 -236.52 
L 588.003357 -236.52 
L 584.060979 -236.52 
L 580.118601 -236.52 
L 576.176224 -236.52 
L 572.233846 -236.52 
L 568.291469 -236.52 
L 564.349091 -236.52 
L 560.406713 -236.52 
L 556.464336 -236.52 
L 552.521958 -236.52 
L 548.57958 -236.52 
L 544.637203 -236.52 
L 540.694825 -236.52 
L 536.752448 -236.52 
L 532.81007 -236.52 
L 528.867692 -236.52 
L 524.925315 -236.52 
L 520.982937 -236.52 
L 517.040559 -236.52 
L 513.098182 -236.52 
L 509.155804 -236.52 
L 505.213427 -236.52 
L 501.271049 -236.52 
L 497.328671 -236.52 
L 493.386294 -236.52 
L 489.443916 -236.52 
L 485.501538 -236.52 
L 481.559161 -236.52 
L 477.616783 -236.52 
L 473.674406 -236.52 
L 469.732028 -236.52 
L 465.78965 -236.52 
L 461.847273 -236.52 
L 457.904895 -236.52 
L 453.962517 -236.52 
L 450.02014 -236.52 
L 446.077762 -236.52 
L 442.135385 -236.52 
L 438.193007 -236.52 
L 434.250629 -236.52 
L 430.308252 -236.52 
L 426.365874 -236.52 
L 422.423497 -236.52 
L 418.481119 -236.52 
L 414.538741 -236.52 
L 410.596364 -236.52 
L 406.653986 -236.52 
L 402.711608 -236.52 
L 398.769231 -236.52 
L 394.826853 -236.52 
L 390.884476 -236.52 
L 386.942098 -236.52 
L 382.99972 -236.52 
L 379.057343 -236.52 
L 375.114965 -236.52 
L 371.172587 -236.52 
L 367.23021 -236.52 
L 363.287832 -236.52 
L 359.345455 -236.52 
L 355.403077 -236.52 
L 351.460699 -236.52 
L 347.518322 -236.52 
L 343.575944 -236.52 
L 339.633566 -236.52 
L 335.691189 -236.52 
L 331.748811 -236.52 
L 327.806434 -236.52 
L 323.864056 -236.52 
L 319.921678 -236.52 
L 315.979301 -236.52 
L 312.036923 -236.52 
L 308.094545 -236.52 
L 304.152168 -236.52 
L 300.20979 -236.52 
L 296.267413 -236.52 
L 292.325035 -236.52 
L 288.382657 -236.52 
L 284.44028 -236.52 
L 280.497902 -236.52 
L 276.555524 -236.52 
L 272.613147 -236.52 
L 268.670769 -236.52 
L 264.728392 -236.52 
L 260.786014 -236.52 
L 256.843636 -236.52 
L 252.901259 -236.52 
L 248.958881 -236.52 
L 245.016503 -236.52 
L 241.074126 -236.52 
L 237.131748 -236.52 
L 233.189371 -236.52 
L 229.246993 -236.52 
L 225.304615 -236.52 
L 221.362238 -236.52 
L 217.41986 -236.52 
L 213.477483 -236.52 
L 209.535105 -236.52 
L 205.592727 -236.52 
L 201.65035 -236.52 
L 197.707972 -236.52 
L 193.765594 -236.52 
L 189.823217 -236.52 
L 185.880839 -236.52 
L 181.938462 -236.52 
L 177.996084 -236.52 
L 174.053706 -236.52 
L 170.111329 -236.52 
L 166.168951 -236.52 
L 162.226573 -236.52 
L 158.284196 -236.52 
L 154.341818 -236.52 
L 150.399441 -236.52 
L 146.457063 -236.52 
L 142.514685 -236.52 
L 138.572308 -236.52 
L 134.62993 -236.52 
L 130.687552 -236.52 
L 126.745175 -236.52 
L 122.802797 -236.52 
L 118.86042 -236.52 
L 114.918042 -236.52 
L 110.975664 -236.52 
L 107.033287 -236.52 
L 103.090909 -236.52 
L 99.148531 -236.52 
L 95.206154 -236.52 
L 91.263776 -236.52 
L 87.321399 -236.52 
L 83.379021 -236.52 
L 79.436643 -236.52 
L 75.494266 -236.52 
L 71.551888 -236.52 
L 67.60951 -236.52 
L 63.667133 -236.52 
L 59.724755 -236.52 
L 55.782378 -236.52 
L 51.84 -236.52 
z
" style="stroke: #ffffff; stroke-opacity: 0.85; stroke-width: 0.3"/>
    </defs>
    <g clip-path="url(#p3af781179b)">
     <use xlink:href="#mab19019141" x="0" y="540" style="fill: #fec439; fill-opacity: 0.85; stroke: #ffffff; stroke-opacity: 0.85; stroke-width: 0.3"/>
    </g>
   </g>
   <g id="PolyCollection_7">
    <defs>
     <path id="ma8ab942061" d="M 51.84 -225.039426 
L 51.84 -220.946858 
L 55.782378 -219.892248 
L 59.724755 -219.803008 
L 63.667133 -218.475016 
L 67.60951 -219.243433 
L 71.551888 -219.456959 
L 75.494266 -220.666009 
L 79.436643 -221.605784 
L 83.379021 -221.373473 
L 87.321399 -220.390285 
L 91.263776 -218.297336 
L 95.206154 -217.570067 
L 99.148531 -217.631454 
L 103.090909 -217.010172 
L 107.033287 -215.05814 
L 110.975664 -211.774191 
L 114.918042 -208.036409 
L 118.86042 -208.637915 
L 122.802797 -199.542984 
L 126.745175 -195.104604 
L 130.687552 -198.917143 
L 134.62993 -185.770683 
L 138.572308 -189.941305 
L 142.514685 -193.341807 
L 146.457063 -184.79698 
L 150.399441 -186.078303 
L 154.341818 -187.753522 
L 158.284196 -190.200076 
L 162.226573 -189.733671 
L 166.168951 -189.747934 
L 170.111329 -179.221749 
L 174.053706 -177.959735 
L 177.996084 -179.62297 
L 181.938462 -175.742889 
L 185.880839 -174.680505 
L 189.823217 -172.69292 
L 193.765594 -167.301324 
L 197.707972 -161.730637 
L 201.65035 -157.676239 
L 205.592727 -155.642346 
L 209.535105 -153.40382 
L 213.477483 -153.350384 
L 217.41986 -150.043762 
L 221.362238 -150.586371 
L 225.304615 -146.246354 
L 229.246993 -144.524615 
L 233.189371 -143.591248 
L 237.131748 -141.814344 
L 241.074126 -161.173359 
L 245.016503 -157.936396 
L 248.958881 -153.903283 
L 252.901259 -159.460212 
L 256.843636 -157.994034 
L 260.786014 -158.482502 
L 264.728392 -164.43287 
L 268.670769 -160.418399 
L 272.613147 -157.523654 
L 276.555524 -149.200799 
L 280.497902 -147.711848 
L 284.44028 -145.013178 
L 288.382657 -131.556132 
L 292.325035 -126.531385 
L 296.267413 -122.732581 
L 300.20979 -114.380447 
L 304.152168 -107.893166 
L 308.094545 -100.434963 
L 312.036923 -94.93307 
L 315.979301 -93.221227 
L 319.921678 -92.274296 
L 323.864056 -87.557211 
L 327.806434 -81.327635 
L 331.748811 -79.155534 
L 335.691189 -89.985511 
L 339.633566 -81.739073 
L 343.575944 -78.917723 
L 347.518322 -79.456856 
L 351.460699 -74.470219 
L 355.403077 -65.88964 
L 359.345455 -84.8387 
L 363.287832 -81.357175 
L 367.23021 -72.762322 
L 371.172587 -72.057846 
L 375.114965 -66.895852 
L 379.057343 -59.162317 
L 382.99972 -81.125981 
L 386.942098 -78.074663 
L 390.884476 -71.316356 
L 394.826853 -76.067662 
L 398.769231 -73.743939 
L 402.711608 -65.268275 
L 406.653986 -84.757476 
L 410.596364 -79.243897 
L 414.538741 -70.443733 
L 418.481119 -71.474845 
L 422.423497 -71.700061 
L 426.365874 -69.260706 
L 430.308252 -83.957583 
L 434.250629 -81.915459 
L 438.193007 -84.133378 
L 442.135385 -88.436646 
L 446.077762 -91.709478 
L 450.02014 -101.564961 
L 453.962517 -120.485322 
L 457.904895 -122.725772 
L 461.847273 -128.154707 
L 465.78965 -130.923403 
L 469.732028 -133.691457 
L 473.674406 -132.734611 
L 477.616783 -148.159031 
L 481.559161 -143.253945 
L 485.501538 -139.537338 
L 489.443916 -144.711446 
L 493.386294 -141.793172 
L 497.328671 -139.023007 
L 501.271049 -155.69386 
L 505.213427 -156.33425 
L 509.155804 -154.862241 
L 513.098182 -163.322475 
L 517.040559 -164.230926 
L 520.982937 -164.120255 
L 524.925315 -182.790516 
L 528.867692 -181.272124 
L 532.81007 -181.957532 
L 536.752448 -186.329958 
L 540.694825 -186.302851 
L 544.637203 -186.205276 
L 548.57958 -195.307361 
L 552.521958 -196.124791 
L 556.464336 -196.710155 
L 560.406713 -200.071312 
L 564.349091 -200.814065 
L 568.291469 -201.189422 
L 572.233846 -210.245424 
L 576.176224 -210.160001 
L 580.118601 -210.805149 
L 584.060979 -213.447655 
L 588.003357 -213.550947 
L 591.945734 -213.822618 
L 595.888112 -220.167499 
L 599.83049 -219.614577 
L 603.772867 -220.283476 
L 607.715245 -219.882304 
L 611.657622 -218.719366 
L 615.6 -219.450003 
L 615.6 -224.597369 
L 615.6 -224.597369 
L 611.657622 -224.123187 
L 607.715245 -224.704051 
L 603.772867 -224.285209 
L 599.83049 -223.985742 
L 595.888112 -224.191701 
L 591.945734 -220.526365 
L 588.003357 -220.231345 
L 584.060979 -219.942646 
L 580.118601 -216.873347 
L 576.176224 -216.250229 
L 572.233846 -216.229669 
L 568.291469 -207.884109 
L 564.349091 -207.279781 
L 560.406713 -206.716182 
L 556.464336 -203.88561 
L 552.521958 -203.467835 
L 548.57958 -202.477326 
L 544.637203 -193.442201 
L 540.694825 -193.187363 
L 536.752448 -192.859312 
L 532.81007 -188.28518 
L 528.867692 -187.873573 
L 524.925315 -189.49032 
L 520.982937 -172.156907 
L 517.040559 -171.485614 
L 513.098182 -170.350488 
L 509.155804 -162.883054 
L 505.213427 -164.005176 
L 501.271049 -164.025552 
L 497.328671 -150.55974 
L 493.386294 -152.187177 
L 489.443916 -153.833746 
L 485.501538 -147.843403 
L 481.559161 -151.73622 
L 477.616783 -156.602311 
L 473.674406 -141.561055 
L 469.732028 -142.365845 
L 465.78965 -139.313644 
L 461.847273 -137.324144 
L 457.904895 -134.133886 
L 453.962517 -131.261631 
L 450.02014 -117.254858 
L 446.077762 -108.560695 
L 442.135385 -105.781175 
L 438.193007 -103.712926 
L 434.250629 -102.928741 
L 430.308252 -104.351502 
L 426.365874 -95.358119 
L 422.423497 -96.790464 
L 418.481119 -96.171466 
L 414.538741 -98.788798 
L 410.596364 -105.326543 
L 406.653986 -110.731183 
L 402.711608 -102.217948 
L 398.769231 -111.21679 
L 394.826853 -113.147542 
L 390.884476 -113.74628 
L 386.942098 -119.834735 
L 382.99972 -124.056527 
L 379.057343 -116.056168 
L 375.114965 -122.451846 
L 371.172587 -127.511844 
L 367.23021 -131.836445 
L 363.287832 -139.876731 
L 359.345455 -140.581441 
L 355.403077 -138.49513 
L 351.460699 -144.433784 
L 347.518322 -150.855361 
L 343.575944 -158.035465 
L 339.633566 -160.412133 
L 335.691189 -166.744519 
L 331.748811 -163.4348 
L 327.806434 -165.216101 
L 323.864056 -169.203605 
L 319.921678 -171.719747 
L 315.979301 -172.489543 
L 312.036923 -172.216354 
L 308.094545 -176.681201 
L 304.152168 -178.636834 
L 300.20979 -179.985738 
L 296.267413 -181.150388 
L 292.325035 -182.280404 
L 288.382657 -183.887503 
L 284.44028 -186.895242 
L 280.497902 -186.260997 
L 276.555524 -186.569973 
L 272.613147 -189.10787 
L 268.670769 -189.983629 
L 264.728392 -191.104948 
L 260.786014 -187.662931 
L 256.843636 -187.386783 
L 252.901259 -188.986437 
L 248.958881 -187.262462 
L 245.016503 -190.316943 
L 241.074126 -192.662059 
L 237.131748 -183.853082 
L 233.189371 -184.80913 
L 229.246993 -187.43834 
L 225.304615 -190.471023 
L 221.362238 -192.24955 
L 217.41986 -190.501671 
L 213.477483 -193.570107 
L 209.535105 -192.872603 
L 205.592727 -192.258854 
L 201.65035 -193.842266 
L 197.707972 -193.503427 
L 193.765594 -196.18093 
L 189.823217 -203.098705 
L 185.880839 -202.873857 
L 181.938462 -203.148614 
L 177.996084 -207.162284 
L 174.053706 -206.47518 
L 170.111329 -208.012807 
L 166.168951 -212.690377 
L 162.226573 -212.685399 
L 158.284196 -215.102376 
L 154.341818 -213.12048 
L 150.399441 -215.741609 
L 146.457063 -217.313159 
L 142.514685 -218.215425 
L 138.572308 -217.067103 
L 134.62993 -214.776875 
L 130.687552 -220.830148 
L 126.745175 -220.876992 
L 122.802797 -221.182832 
L 118.86042 -225.023174 
L 114.918042 -222.90915 
L 110.975664 -223.890853 
L 107.033287 -223.218138 
L 103.090909 -224.550745 
L 99.148531 -223.429731 
L 95.206154 -221.871291 
L 91.263776 -221.595592 
L 87.321399 -221.789704 
L 83.379021 -222.847437 
L 79.436643 -223.046544 
L 75.494266 -223.307365 
L 71.551888 -223.409362 
L 67.60951 -223.496951 
L 63.667133 -223.595405 
L 59.724755 -224.467057 
L 55.782378 -223.913657 
L 51.84 -225.039426 
z
" style="stroke: #ffffff; stroke-opacity: 0.85; stroke-width: 0.3"/>
    </defs>
    <g clip-path="url(#p3af781179b)">
     <use xlink:href="#ma8ab942061" x="0" y="540" style="fill: #0bb4ff; fill-opacity: 0.85; stroke: #ffffff; stroke-opacity: 0.85; stroke-width: 0.3"/>
    </g>
   </g>
   <g id="PolyCollection_8">
    <defs>
     <path id="m1efa006cbd" d="M 51.84 -220.946858 
L 51.84 -219.435458 
L 55.782378 -218.836196 
L 59.724755 -219.803008 
L 63.667133 -218.475016 
L 67.60951 -219.243433 
L 71.551888 -219.456959 
L 75.494266 -220.666009 
L 79.436643 -221.605784 
L 83.379021 -221.165126 
L 87.321399 -218.157256 
L 91.263776 -216.632417 
L 95.206154 -216.150111 
L 99.148531 -211.434032 
L 103.090909 -212.545174 
L 107.033287 -212.636849 
L 110.975664 -211.774191 
L 114.918042 -208.036409 
L 118.86042 -208.637915 
L 122.802797 -199.542984 
L 126.745175 -195.104604 
L 130.687552 -198.917143 
L 134.62993 -185.770683 
L 138.572308 -189.941305 
L 142.514685 -193.341807 
L 146.457063 -184.79698 
L 150.399441 -186.078303 
L 154.341818 -187.753522 
L 158.284196 -190.200076 
L 162.226573 -189.733671 
L 166.168951 -189.747934 
L 170.111329 -179.221749 
L 174.053706 -177.959735 
L 177.996084 -179.62297 
L 181.938462 -175.742889 
L 185.880839 -174.680505 
L 189.823217 -172.69292 
L 193.765594 -167.301324 
L 197.707972 -161.730637 
L 201.65035 -157.676239 
L 205.592727 -155.642346 
L 209.535105 -153.40382 
L 213.477483 -153.350384 
L 217.41986 -150.043762 
L 221.362238 -150.586371 
L 225.304615 -146.246354 
L 229.246993 -144.524615 
L 233.189371 -143.591248 
L 237.131748 -141.814344 
L 241.074126 -161.173359 
L 245.016503 -157.936396 
L 248.958881 -153.903283 
L 252.901259 -159.460212 
L 256.843636 -157.994034 
L 260.786014 -158.482502 
L 264.728392 -162.329649 
L 268.670769 -160.418399 
L 272.613147 -157.523654 
L 276.555524 -149.200799 
L 280.497902 -147.711848 
L 284.44028 -145.013178 
L 288.382657 -131.556132 
L 292.325035 -126.531385 
L 296.267413 -122.732581 
L 300.20979 -114.380447 
L 304.152168 -107.893166 
L 308.094545 -100.434963 
L 312.036923 -94.93307 
L 315.979301 -93.221227 
L 319.921678 -92.274296 
L 323.864056 -87.557211 
L 327.806434 -81.327635 
L 331.748811 -79.155534 
L 335.691189 -89.985511 
L 339.633566 -81.739073 
L 343.575944 -78.917723 
L 347.518322 -79.456856 
L 351.460699 -74.470219 
L 355.403077 -65.88964 
L 359.345455 -84.8387 
L 363.287832 -81.357175 
L 367.23021 -72.762322 
L 371.172587 -72.057846 
L 375.114965 -66.895852 
L 379.057343 -59.162317 
L 382.99972 -80.327248 
L 386.942098 -78.074663 
L 390.884476 -71.316356 
L 394.826853 -75.640372 
L 398.769231 -73.743939 
L 402.711608 -65.268275 
L 406.653986 -80.116246 
L 410.596364 -73.671868 
L 414.538741 -70.443733 
L 418.481119 -71.474845 
L 422.423497 -71.700061 
L 426.365874 -69.260706 
L 430.308252 -83.957583 
L 434.250629 -79.868274 
L 438.193007 -82.143521 
L 442.135385 -87.876671 
L 446.077762 -91.15707 
L 450.02014 -101.564961 
L 453.962517 -113.644563 
L 457.904895 -116.418218 
L 461.847273 -124.118992 
L 465.78965 -126.622641 
L 469.732028 -127.154721 
L 473.674406 -128.300727 
L 477.616783 -140.294186 
L 481.559161 -136.529463 
L 485.501538 -134.829924 
L 489.443916 -136.128672 
L 493.386294 -136.738595 
L 497.328671 -134.305641 
L 501.271049 -148.426069 
L 505.213427 -150.551777 
L 509.155804 -150.495363 
L 513.098182 -155.655141 
L 517.040559 -157.366656 
L 520.982937 -159.087222 
L 524.925315 -175.097601 
L 528.867692 -175.451559 
L 532.81007 -179.515134 
L 536.752448 -182.794019 
L 540.694825 -184.325129 
L 544.637203 -185.7071 
L 548.57958 -193.447294 
L 552.521958 -194.935831 
L 556.464336 -194.968973 
L 560.406713 -197.242557 
L 564.349091 -198.564356 
L 568.291469 -200.356757 
L 572.233846 -206.437346 
L 576.176224 -207.368213 
L 580.118601 -209.641555 
L 584.060979 -212.196093 
L 588.003357 -212.64976 
L 591.945734 -213.088043 
L 595.888112 -218.948942 
L 599.83049 -218.432794 
L 603.772867 -219.009167 
L 607.715245 -218.29813 
L 611.657622 -217.726203 
L 615.6 -218.646475 
L 615.6 -219.450003 
L 615.6 -219.450003 
L 611.657622 -218.719366 
L 607.715245 -219.882304 
L 603.772867 -220.283476 
L 599.83049 -219.614577 
L 595.888112 -220.167499 
L 591.945734 -213.822618 
L 588.003357 -213.550947 
L 584.060979 -213.447655 
L 580.118601 -210.805149 
L 576.176224 -210.160001 
L 572.233846 -210.245424 
L 568.291469 -201.189422 
L 564.349091 -200.814065 
L 560.406713 -200.071312 
L 556.464336 -196.710155 
L 552.521958 -196.124791 
L 548.57958 -195.307361 
L 544.637203 -186.205276 
L 540.694825 -186.302851 
L 536.752448 -186.329958 
L 532.81007 -181.957532 
L 528.867692 -181.272124 
L 524.925315 -182.790516 
L 520.982937 -164.120255 
L 517.040559 -164.230926 
L 513.098182 -163.322475 
L 509.155804 -154.862241 
L 505.213427 -156.33425 
L 501.271049 -155.69386 
L 497.328671 -139.023007 
L 493.386294 -141.793172 
L 489.443916 -144.711446 
L 485.501538 -139.537338 
L 481.559161 -143.253945 
L 477.616783 -148.159031 
L 473.674406 -132.734611 
L 469.732028 -133.691457 
L 465.78965 -130.923403 
L 461.847273 -128.154707 
L 457.904895 -122.725772 
L 453.962517 -120.485322 
L 450.02014 -101.564961 
L 446.077762 -91.709478 
L 442.135385 -88.436646 
L 438.193007 -84.133378 
L 434.250629 -81.915459 
L 430.308252 -83.957583 
L 426.365874 -69.260706 
L 422.423497 -71.700061 
L 418.481119 -71.474845 
L 414.538741 -70.443733 
L 410.596364 -79.243897 
L 406.653986 -84.757476 
L 402.711608 -65.268275 
L 398.769231 -73.743939 
L 394.826853 -76.067662 
L 390.884476 -71.316356 
L 386.942098 -78.074663 
L 382.99972 -81.125981 
L 379.057343 -59.162317 
L 375.114965 -66.895852 
L 371.172587 -72.057846 
L 367.23021 -72.762322 
L 363.287832 -81.357175 
L 359.345455 -84.8387 
L 355.403077 -65.88964 
L 351.460699 -74.470219 
L 347.518322 -79.456856 
L 343.575944 -78.917723 
L 339.633566 -81.739073 
L 335.691189 -89.985511 
L 331.748811 -79.155534 
L 327.806434 -81.327635 
L 323.864056 -87.557211 
L 319.921678 -92.274296 
L 315.979301 -93.221227 
L 312.036923 -94.93307 
L 308.094545 -100.434963 
L 304.152168 -107.893166 
L 300.20979 -114.380447 
L 296.267413 -122.732581 
L 292.325035 -126.531385 
L 288.382657 -131.556132 
L 284.44028 -145.013178 
L 280.497902 -147.711848 
L 276.555524 -149.200799 
L 272.613147 -157.523654 
L 268.670769 -160.418399 
L 264.728392 -164.43287 
L 260.786014 -158.482502 
L 256.843636 -157.994034 
L 252.901259 -159.460212 
L 248.958881 -153.903283 
L 245.016503 -157.936396 
L 241.074126 -161.173359 
L 237.131748 -141.814344 
L 233.189371 -143.591248 
L 229.246993 -144.524615 
L 225.304615 -146.246354 
L 221.362238 -150.586371 
L 217.41986 -150.043762 
L 213.477483 -153.350384 
L 209.535105 -153.40382 
L 205.592727 -155.642346 
L 201.65035 -157.676239 
L 197.707972 -161.730637 
L 193.765594 -167.301324 
L 189.823217 -172.69292 
L 185.880839 -174.680505 
L 181.938462 -175.742889 
L 177.996084 -179.62297 
L 174.053706 -177.959735 
L 170.111329 -179.221749 
L 166.168951 -189.747934 
L 162.226573 -189.733671 
L 158.284196 -190.200076 
L 154.341818 -187.753522 
L 150.399441 -186.078303 
L 146.457063 -184.79698 
L 142.514685 -193.341807 
L 138.572308 -189.941305 
L 134.62993 -185.770683 
L 130.687552 -198.917143 
L 126.745175 -195.104604 
L 122.802797 -199.542984 
L 118.86042 -208.637915 
L 114.918042 -208.036409 
L 110.975664 -211.774191 
L 107.033287 -215.05814 
L 103.090909 -217.010172 
L 99.148531 -217.631454 
L 95.206154 -217.570067 
L 91.263776 -218.297336 
L 87.321399 -220.390285 
L 83.379021 -221.373473 
L 79.436643 -221.605784 
L 75.494266 -220.666009 
L 71.551888 -219.456959 
L 67.60951 -219.243433 
L 63.667133 -218.475016 
L 59.724755 -219.803008 
L 55.782378 -219.892248 
L 51.84 -220.946858 
z
" style="stroke: #ffffff; stroke-opacity: 0.85; stroke-width: 0.3"/>
    </defs>
    <g clip-path="url(#p3af781179b)">
     <use xlink:href="#m1efa006cbd" x="0" y="540" style="fill: #999999; fill-opacity: 0.85; stroke: #ffffff; stroke-opacity: 0.85; stroke-width: 0.3"/>
    </g>
   </g>
   <g id="PolyCollection_9">
    <defs>
     <path id="m927f1f639b" d="M 51.84 -219.435458 
L 51.84 -216.242679 
L 55.782378 -215.367289 
L 59.724755 -217.119465 
L 63.667133 -214.928447 
L 67.60951 -215.017745 
L 71.551888 -215.606641 
L 75.494266 -216.116418 
L 79.436643 -216.294263 
L 83.379021 -216.553231 
L 87.321399 -214.316349 
L 91.263776 -212.511191 
L 95.206154 -213.458881 
L 99.148531 -206.596269 
L 103.090909 -209.478554 
L 107.033287 -210.955228 
L 110.975664 -211.774191 
L 114.918042 -208.036409 
L 118.86042 -208.637915 
L 122.802797 -198.508597 
L 126.745175 -193.605866 
L 130.687552 -198.917143 
L 134.62993 -185.770683 
L 138.572308 -189.941305 
L 142.514685 -193.341807 
L 146.457063 -184.79698 
L 150.399441 -186.078303 
L 154.341818 -187.753522 
L 158.284196 -190.200076 
L 162.226573 -189.733671 
L 166.168951 -189.747934 
L 170.111329 -177.017526 
L 174.053706 -177.576354 
L 177.996084 -179.62297 
L 181.938462 -175.742889 
L 185.880839 -174.680505 
L 189.823217 -172.69292 
L 193.765594 -158.855197 
L 197.707972 -155.026845 
L 201.65035 -152.749338 
L 205.592727 -152.556245 
L 209.535105 -149.811117 
L 213.477483 -151.273382 
L 217.41986 -149.956003 
L 221.362238 -150.586371 
L 225.304615 -146.246354 
L 229.246993 -144.524615 
L 233.189371 -143.591248 
L 237.131748 -141.814344 
L 241.074126 -158.304813 
L 245.016503 -157.936396 
L 248.958881 -153.903283 
L 252.901259 -159.460212 
L 256.843636 -157.236399 
L 260.786014 -156.743996 
L 264.728392 -153.30213 
L 268.670769 -149.68401 
L 272.613147 -148.773502 
L 276.555524 -141.091132 
L 280.497902 -141.364994 
L 284.44028 -141.083096 
L 288.382657 -127.176344 
L 292.325035 -123.765512 
L 296.267413 -119.295139 
L 300.20979 -111.415828 
L 304.152168 -103.003175 
L 308.094545 -98.332476 
L 312.036923 -92.417562 
L 315.979301 -90.876208 
L 319.921678 -91.954978 
L 323.864056 -87.557211 
L 327.806434 -81.327635 
L 331.748811 -79.155534 
L 335.691189 -89.390988 
L 339.633566 -79.012771 
L 343.575944 -78.865808 
L 347.518322 -78.554462 
L 351.460699 -74.470219 
L 355.403077 -65.88964 
L 359.345455 -84.8387 
L 363.287832 -81.357175 
L 367.23021 -72.762322 
L 371.172587 -72.057846 
L 375.114965 -66.895852 
L 379.057343 -59.162317 
L 382.99972 -80.327248 
L 386.942098 -78.074663 
L 390.884476 -71.316356 
L 394.826853 -75.640372 
L 398.769231 -73.743939 
L 402.711608 -65.268275 
L 406.653986 -80.116246 
L 410.596364 -69.665859 
L 414.538741 -64.553531 
L 418.481119 -59.920674 
L 422.423497 -56.287641 
L 426.365874 -53.52916 
L 430.308252 -64.396016 
L 434.250629 -61.404948 
L 438.193007 -63.689393 
L 442.135385 -70.142903 
L 446.077762 -71.594783 
L 450.02014 -82.42994 
L 453.962517 -96.235517 
L 457.904895 -99.75182 
L 461.847273 -105.983541 
L 465.78965 -109.910008 
L 469.732028 -110.079566 
L 473.674406 -114.70868 
L 477.616783 -128.815459 
L 481.559161 -125.51792 
L 485.501538 -124.902881 
L 489.443916 -126.195924 
L 493.386294 -128.023791 
L 497.328671 -125.976972 
L 501.271049 -141.082332 
L 505.213427 -143.894482 
L 509.155804 -144.957453 
L 513.098182 -150.760896 
L 517.040559 -151.597482 
L 520.982937 -154.231319 
L 524.925315 -170.568531 
L 528.867692 -171.327436 
L 532.81007 -175.558683 
L 536.752448 -179.162456 
L 540.694825 -181.295739 
L 544.637203 -182.678015 
L 548.57958 -191.273099 
L 552.521958 -193.158385 
L 556.464336 -193.720656 
L 560.406713 -195.308429 
L 564.349091 -196.376586 
L 568.291469 -198.537591 
L 572.233846 -205.293194 
L 576.176224 -206.111235 
L 580.118601 -208.851027 
L 584.060979 -211.878056 
L 588.003357 -211.668762 
L 591.945734 -211.637845 
L 595.888112 -217.06583 
L 599.83049 -216.862327 
L 603.772867 -217.349679 
L 607.715245 -217.387229 
L 611.657622 -216.088405 
L 615.6 -217.175266 
L 615.6 -218.646475 
L 615.6 -218.646475 
L 611.657622 -217.726203 
L 607.715245 -218.29813 
L 603.772867 -219.009167 
L 599.83049 -218.432794 
L 595.888112 -218.948942 
L 591.945734 -213.088043 
L 588.003357 -212.64976 
L 584.060979 -212.196093 
L 580.118601 -209.641555 
L 576.176224 -207.368213 
L 572.233846 -206.437346 
L 568.291469 -200.356757 
L 564.349091 -198.564356 
L 560.406713 -197.242557 
L 556.464336 -194.968973 
L 552.521958 -194.935831 
L 548.57958 -193.447294 
L 544.637203 -185.7071 
L 540.694825 -184.325129 
L 536.752448 -182.794019 
L 532.81007 -179.515134 
L 528.867692 -175.451559 
L 524.925315 -175.097601 
L 520.982937 -159.087222 
L 517.040559 -157.366656 
L 513.098182 -155.655141 
L 509.155804 -150.495363 
L 505.213427 -150.551777 
L 501.271049 -148.426069 
L 497.328671 -134.305641 
L 493.386294 -136.738595 
L 489.443916 -136.128672 
L 485.501538 -134.829924 
L 481.559161 -136.529463 
L 477.616783 -140.294186 
L 473.674406 -128.300727 
L 469.732028 -127.154721 
L 465.78965 -126.622641 
L 461.847273 -124.118992 
L 457.904895 -116.418218 
L 453.962517 -113.644563 
L 450.02014 -101.564961 
L 446.077762 -91.15707 
L 442.135385 -87.876671 
L 438.193007 -82.143521 
L 434.250629 -79.868274 
L 430.308252 -83.957583 
L 426.365874 -69.260706 
L 422.423497 -71.700061 
L 418.481119 -71.474845 
L 414.538741 -70.443733 
L 410.596364 -73.671868 
L 406.653986 -80.116246 
L 402.711608 -65.268275 
L 398.769231 -73.743939 
L 394.826853 -75.640372 
L 390.884476 -71.316356 
L 386.942098 -78.074663 
L 382.99972 -80.327248 
L 379.057343 -59.162317 
L 375.114965 -66.895852 
L 371.172587 -72.057846 
L 367.23021 -72.762322 
L 363.287832 -81.357175 
L 359.345455 -84.8387 
L 355.403077 -65.88964 
L 351.460699 -74.470219 
L 347.518322 -79.456856 
L 343.575944 -78.917723 
L 339.633566 -81.739073 
L 335.691189 -89.985511 
L 331.748811 -79.155534 
L 327.806434 -81.327635 
L 323.864056 -87.557211 
L 319.921678 -92.274296 
L 315.979301 -93.221227 
L 312.036923 -94.93307 
L 308.094545 -100.434963 
L 304.152168 -107.893166 
L 300.20979 -114.380447 
L 296.267413 -122.732581 
L 292.325035 -126.531385 
L 288.382657 -131.556132 
L 284.44028 -145.013178 
L 280.497902 -147.711848 
L 276.555524 -149.200799 
L 272.613147 -157.523654 
L 268.670769 -160.418399 
L 264.728392 -162.329649 
L 260.786014 -158.482502 
L 256.843636 -157.994034 
L 252.901259 -159.460212 
L 248.958881 -153.903283 
L 245.016503 -157.936396 
L 241.074126 -161.173359 
L 237.131748 -141.814344 
L 233.189371 -143.591248 
L 229.246993 -144.524615 
L 225.304615 -146.246354 
L 221.362238 -150.586371 
L 217.41986 -150.043762 
L 213.477483 -153.350384 
L 209.535105 -153.40382 
L 205.592727 -155.642346 
L 201.65035 -157.676239 
L 197.707972 -161.730637 
L 193.765594 -167.301324 
L 189.823217 -172.69292 
L 185.880839 -174.680505 
L 181.938462 -175.742889 
L 177.996084 -179.62297 
L 174.053706 -177.959735 
L 170.111329 -179.221749 
L 166.168951 -189.747934 
L 162.226573 -189.733671 
L 158.284196 -190.200076 
L 154.341818 -187.753522 
L 150.399441 -186.078303 
L 146.457063 -184.79698 
L 142.514685 -193.341807 
L 138.572308 -189.941305 
L 134.62993 -185.770683 
L 130.687552 -198.917143 
L 126.745175 -195.104604 
L 122.802797 -199.542984 
L 118.86042 -208.637915 
L 114.918042 -208.036409 
L 110.975664 -211.774191 
L 107.033287 -212.636849 
L 103.090909 -212.545174 
L 99.148531 -211.434032 
L 95.206154 -216.150111 
L 91.263776 -216.632417 
L 87.321399 -218.157256 
L 83.379021 -221.165126 
L 79.436643 -221.605784 
L 75.494266 -220.666009 
L 71.551888 -219.456959 
L 67.60951 -219.243433 
L 63.667133 -218.475016 
L 59.724755 -219.803008 
L 55.782378 -218.836196 
L 51.84 -219.435458 
z
" style="stroke: #ffffff; stroke-opacity: 0.85; stroke-width: 0.3"/>
    </defs>
    <g clip-path="url(#p3af781179b)">
     <use xlink:href="#m927f1f639b" x="0" y="540" style="fill: #e8a87c; fill-opacity: 0.85; stroke: #ffffff; stroke-opacity: 0.85; stroke-width: 0.3"/>
    </g>
   </g>
   <g id="PolyCollection_10">
    <defs>
     <path id="ma1a9b7511f" d="M 51.84 -216.242679 
L 51.84 -216.242679 
L 55.782378 -215.367289 
L 59.724755 -217.119465 
L 63.667133 -214.928447 
L 67.60951 -215.017745 
L 71.551888 -215.606641 
L 75.494266 -216.116418 
L 79.436643 -216.294263 
L 83.379021 -216.553231 
L 87.321399 -204.96026 
L 91.263776 -202.243809 
L 95.206154 -201.651594 
L 99.148531 -142.416881 
L 103.090909 -138.666739 
L 107.033287 -139.249629 
L 110.975664 -90.606142 
L 114.918042 -81.822287 
L 118.86042 -81.728588 
L 122.802797 -28.600607 
L 126.745175 -21.990598 
L 130.687552 -27.030498 
L 134.62993 -9.306618 
L 138.572308 -18.226931 
L 142.514685 -27.937097 
L 146.457063 -29.712278 
L 150.399441 -36.985715 
L 154.341818 -42.180876 
L 158.284196 -58.632173 
L 162.226573 -61.854456 
L 166.168951 -63.663695 
L 170.111329 -76.645651 
L 174.053706 -80.302267 
L 177.996084 -84.085152 
L 181.938462 -92.1005 
L 185.880839 -92.585842 
L 189.823217 -90.32166 
L 193.765594 -101.392458 
L 197.707972 -98.868091 
L 201.65035 -93.870618 
L 205.592727 -101.596073 
L 209.535105 -98.88597 
L 213.477483 -99.792979 
L 217.41986 -108.676414 
L 221.362238 -108.444386 
L 225.304615 -104.000193 
L 229.246993 -105.462726 
L 233.189371 -106.513608 
L 237.131748 -105.437778 
L 241.074126 -131.936002 
L 245.016503 -130.089176 
L 248.958881 -125.986773 
L 252.901259 -133.385424 
L 256.843636 -132.743282 
L 260.786014 -132.172807 
L 264.728392 -134.045363 
L 268.670769 -130.304079 
L 272.613147 -129.688788 
L 276.555524 -125.365374 
L 280.497902 -128.636804 
L 284.44028 -126.423474 
L 288.382657 -113.47161 
L 292.325035 -108.757442 
L 296.267413 -104.642053 
L 300.20979 -94.869118 
L 304.152168 -86.03237 
L 308.094545 -79.975906 
L 312.036923 -70.730741 
L 315.979301 -70.4491 
L 319.921678 -69.80519 
L 323.864056 -64.387033 
L 327.806434 -56.64676 
L 331.748811 -55.18478 
L 335.691189 -62.274359 
L 339.633566 -51.336201 
L 343.575944 -51.754252 
L 347.518322 -55.290173 
L 351.460699 -49.328022 
L 355.403077 -39.998302 
L 359.345455 -59.243533 
L 363.287832 -55.784985 
L 367.23021 -45.642875 
L 371.172587 -41.14339 
L 375.114965 -35.894541 
L 379.057343 -31.377339 
L 382.99972 -52.652001 
L 386.942098 -50.127529 
L 390.884476 -44.107373 
L 394.826853 -48.681672 
L 398.769231 -47.920774 
L 402.711608 -38.287913 
L 406.653986 -55.029893 
L 410.596364 -45.213089 
L 414.538741 -39.579365 
L 418.481119 -37.357514 
L 422.423497 -32.546878 
L 426.365874 -30.926759 
L 430.308252 -43.625978 
L 434.250629 -46.522048 
L 438.193007 -53.832278 
L 442.135385 -62.38573 
L 446.077762 -69.552628 
L 450.02014 -82.42994 
L 453.962517 -96.235517 
L 457.904895 -99.75182 
L 461.847273 -105.983541 
L 465.78965 -109.910008 
L 469.732028 -110.079566 
L 473.674406 -114.70868 
L 477.616783 -128.815459 
L 481.559161 -125.51792 
L 485.501538 -124.902881 
L 489.443916 -126.195924 
L 493.386294 -128.023791 
L 497.328671 -125.976972 
L 501.271049 -141.082332 
L 505.213427 -143.894482 
L 509.155804 -144.957453 
L 513.098182 -150.760896 
L 517.040559 -151.597482 
L 520.982937 -154.231319 
L 524.925315 -170.568531 
L 528.867692 -171.327436 
L 532.81007 -175.558683 
L 536.752448 -179.162456 
L 540.694825 -181.295739 
L 544.637203 -182.678015 
L 548.57958 -191.273099 
L 552.521958 -193.158385 
L 556.464336 -193.720656 
L 560.406713 -195.308429 
L 564.349091 -196.376586 
L 568.291469 -198.537591 
L 572.233846 -205.293194 
L 576.176224 -206.111235 
L 580.118601 -208.851027 
L 584.060979 -211.878056 
L 588.003357 -211.668762 
L 591.945734 -211.637845 
L 595.888112 -217.06583 
L 599.83049 -216.862327 
L 603.772867 -217.349679 
L 607.715245 -217.387229 
L 611.657622 -216.088405 
L 615.6 -217.175266 
L 615.6 -217.175266 
L 615.6 -217.175266 
L 611.657622 -216.088405 
L 607.715245 -217.387229 
L 603.772867 -217.349679 
L 599.83049 -216.862327 
L 595.888112 -217.06583 
L 591.945734 -211.637845 
L 588.003357 -211.668762 
L 584.060979 -211.878056 
L 580.118601 -208.851027 
L 576.176224 -206.111235 
L 572.233846 -205.293194 
L 568.291469 -198.537591 
L 564.349091 -196.376586 
L 560.406713 -195.308429 
L 556.464336 -193.720656 
L 552.521958 -193.158385 
L 548.57958 -191.273099 
L 544.637203 -182.678015 
L 540.694825 -181.295739 
L 536.752448 -179.162456 
L 532.81007 -175.558683 
L 528.867692 -171.327436 
L 524.925315 -170.568531 
L 520.982937 -154.231319 
L 517.040559 -151.597482 
L 513.098182 -150.760896 
L 509.155804 -144.957453 
L 505.213427 -143.894482 
L 501.271049 -141.082332 
L 497.328671 -125.976972 
L 493.386294 -128.023791 
L 489.443916 -126.195924 
L 485.501538 -124.902881 
L 481.559161 -125.51792 
L 477.616783 -128.815459 
L 473.674406 -114.70868 
L 469.732028 -110.079566 
L 465.78965 -109.910008 
L 461.847273 -105.983541 
L 457.904895 -99.75182 
L 453.962517 -96.235517 
L 450.02014 -82.42994 
L 446.077762 -71.594783 
L 442.135385 -70.142903 
L 438.193007 -63.689393 
L 434.250629 -61.404948 
L 430.308252 -64.396016 
L 426.365874 -53.52916 
L 422.423497 -56.287641 
L 418.481119 -59.920674 
L 414.538741 -64.553531 
L 410.596364 -69.665859 
L 406.653986 -80.116246 
L 402.711608 -65.268275 
L 398.769231 -73.743939 
L 394.826853 -75.640372 
L 390.884476 -71.316356 
L 386.942098 -78.074663 
L 382.99972 -80.327248 
L 379.057343 -59.162317 
L 375.114965 -66.895852 
L 371.172587 -72.057846 
L 367.23021 -72.762322 
L 363.287832 -81.357175 
L 359.345455 -84.8387 
L 355.403077 -65.88964 
L 351.460699 -74.470219 
L 347.518322 -78.554462 
L 343.575944 -78.865808 
L 339.633566 -79.012771 
L 335.691189 -89.390988 
L 331.748811 -79.155534 
L 327.806434 -81.327635 
L 323.864056 -87.557211 
L 319.921678 -91.954978 
L 315.979301 -90.876208 
L 312.036923 -92.417562 
L 308.094545 -98.332476 
L 304.152168 -103.003175 
L 300.20979 -111.415828 
L 296.267413 -119.295139 
L 292.325035 -123.765512 
L 288.382657 -127.176344 
L 284.44028 -141.083096 
L 280.497902 -141.364994 
L 276.555524 -141.091132 
L 272.613147 -148.773502 
L 268.670769 -149.68401 
L 264.728392 -153.30213 
L 260.786014 -156.743996 
L 256.843636 -157.236399 
L 252.901259 -159.460212 
L 248.958881 -153.903283 
L 245.016503 -157.936396 
L 241.074126 -158.304813 
L 237.131748 -141.814344 
L 233.189371 -143.591248 
L 229.246993 -144.524615 
L 225.304615 -146.246354 
L 221.362238 -150.586371 
L 217.41986 -149.956003 
L 213.477483 -151.273382 
L 209.535105 -149.811117 
L 205.592727 -152.556245 
L 201.65035 -152.749338 
L 197.707972 -155.026845 
L 193.765594 -158.855197 
L 189.823217 -172.69292 
L 185.880839 -174.680505 
L 181.938462 -175.742889 
L 177.996084 -179.62297 
L 174.053706 -177.576354 
L 170.111329 -177.017526 
L 166.168951 -189.747934 
L 162.226573 -189.733671 
L 158.284196 -190.200076 
L 154.341818 -187.753522 
L 150.399441 -186.078303 
L 146.457063 -184.79698 
L 142.514685 -193.341807 
L 138.572308 -189.941305 
L 134.62993 -185.770683 
L 130.687552 -198.917143 
L 126.745175 -193.605866 
L 122.802797 -198.508597 
L 118.86042 -208.637915 
L 114.918042 -208.036409 
L 110.975664 -211.774191 
L 107.033287 -210.955228 
L 103.090909 -209.478554 
L 99.148531 -206.596269 
L 95.206154 -213.458881 
L 91.263776 -212.511191 
L 87.321399 -214.316349 
L 83.379021 -216.553231 
L 79.436643 -216.294263 
L 75.494266 -216.116418 
L 71.551888 -215.606641 
L 67.60951 -215.017745 
L 63.667133 -214.928447 
L 59.724755 -217.119465 
L 55.782378 -215.367289 
L 51.84 -216.242679 
z
" style="stroke: #ffffff; stroke-opacity: 0.85; stroke-width: 0.3"/>
    </defs>
    <g clip-path="url(#p3af781179b)">
     <use xlink:href="#ma1a9b7511f" x="0" y="540" style="fill: #d4d4d4; fill-opacity: 0.85; stroke: #ffffff; stroke-opacity: 0.85; stroke-width: 0.3"/>
    </g>
   </g>
   <g id="line2d_25">
    <path d="M 51.84 303.48 
L 615.6 303.48 
" clip-path="url(#p3af781179b)" style="fill: none; stroke: #3d3733; stroke-opacity: 0.5; stroke-width: 0.8; stroke-linecap: square"/>
   </g>
   <g id="text_19">
    <text style="fill: #888888; font: 10px 'ABC Oracle Edu'; text-anchor: start" x="51.84" y="56.376" transform="rotate(-0 51.84 56.376)">Difference in activity share: parents minus non-parents, by time of day</text>
   </g>
   <g id="patch_3">
    <path d="M 445.498037 93.315615 
Q 436.825273 97.659742 429.152151 101.503156 
" style="fill: none; stroke: #67a275; stroke-linecap: round"/>
    <path d="M 432.729859 101.5006 
L 429.152151 101.503156 
L 431.296731 98.639456 
" style="fill: none; stroke: #67a275; stroke-linecap: round"/>
   </g>
   <g id="text_20">
    <text style="fill: #67a275; font: 700 8px 'ABC Oracle Edu'" transform="translate(438.193007 80.578782)">Childcare peak</text>
    <text style="fill: #67a275; font: 700 8px 'ABC Oracle Edu'" transform="translate(438.193007 88.858782)">+14pp</text>
   </g>
   <g id="patch_4">
    <path d="M 383.230272 448.796246 
Q 381.309614 437.357522 379.574092 427.021397 
" style="fill: none; stroke: #c5a200; stroke-linecap: round"/>
    <path d="M 378.52607 430.442164 
L 379.574092 427.021397 
L 381.681892 429.912275 
" style="fill: none; stroke: #c5a200; stroke-linecap: round"/>
   </g>
   <g id="text_21">
    <text style="fill: #c5a200; font: 700 8px 'ABC Oracle Edu'" transform="translate(367.23021 458.373683)">TV deficit</text>
    <text style="fill: #c5a200; font: 700 8px 'ABC Oracle Edu'" transform="translate(367.23021 466.797683)">-13pp</text>
   </g>
   <g id="text_22">
    <text style="fill: #3d3733; font: 700 16px 'ABC Oracle Edu'; text-anchor: start" x="51.84" y="34.8" transform="rotate(-0 51.84 34.8)">The parent time swap: childcare in, TV out</text>
   </g>
   <g id="legend_1">
    <g id="patch_5">
     <path d="M 510.381563 80.955 
L 523.881563 80.955 
L 523.881563 72.9 
L 510.381563 72.9 
z
" style="fill: #67a275; fill-opacity: 0.85; stroke: #ffffff; stroke-opacity: 0.85; stroke-width: 0.3; stroke-linejoin: miter"/>
    </g>
    <g id="text_23">
     <text style="fill: #3d3733; font: 9px 'ABC Oracle Edu'; text-anchor: start" x="531.081563" y="80.01" transform="rotate(-0 531.081563 80.01)">Childcare</text>
    </g>
    <g id="patch_6">
     <path d="M 510.381563 94.32 
L 523.881563 94.32 
L 523.881563 86.265 
L 510.381563 86.265 
z
" style="fill: #dadfce; fill-opacity: 0.85; stroke: #ffffff; stroke-opacity: 0.85; stroke-width: 0.3; stroke-linejoin: miter"/>
    </g>
    <g id="text_24">
     <text style="fill: #3d3733; font: 9px 'ABC Oracle Edu'; text-anchor: start" x="531.081563" y="93.375" transform="rotate(-0 531.081563 93.375)">Housework</text>
    </g>
    <g id="patch_7">
     <path d="M 510.381563 107.685 
L 523.881563 107.685 
L 523.881563 99.63 
L 510.381563 99.63 
z
" style="fill: #999999; fill-opacity: 0.85; stroke: #ffffff; stroke-opacity: 0.85; stroke-width: 0.3; stroke-linejoin: miter"/>
    </g>
    <g id="text_25">
     <text style="fill: #3d3733; font: 9px 'ABC Oracle Edu'; text-anchor: start" x="531.081563" y="106.74" transform="rotate(-0 531.081563 106.74)">Travel</text>
    </g>
    <g id="patch_8">
     <path d="M 510.381563 121.05 
L 523.881563 121.05 
L 523.881563 112.995 
L 510.381563 112.995 
z
" style="fill: #e8a87c; fill-opacity: 0.85; stroke: #ffffff; stroke-opacity: 0.85; stroke-width: 0.3; stroke-linejoin: miter"/>
    </g>
    <g id="text_26">
     <text style="fill: #3d3733; font: 9px 'ABC Oracle Edu'; text-anchor: start" x="531.081563" y="120.105" transform="rotate(-0 531.081563 120.105)">Eating &amp; Drinking</text>
    </g>
    <g id="patch_9">
     <path d="M 510.381563 134.55 
L 523.881563 134.55 
L 523.881563 126.495 
L 510.381563 126.495 
z
" style="fill: #d4d4d4; fill-opacity: 0.85; stroke: #ffffff; stroke-opacity: 0.85; stroke-width: 0.3; stroke-linejoin: miter"/>
    </g>
    <g id="text_27">
     <text style="fill: #3d3733; font: 9px 'ABC Oracle Edu'; text-anchor: start" x="531.081563" y="133.605" transform="rotate(-0 531.081563 133.605)">Sleep &amp; Grooming</text>
    </g>
    <g id="patch_10">
     <path d="M 510.381563 148.05 
L 523.881563 148.05 
L 523.881563 139.995 
L 510.381563 139.995 
z
" style="fill: #fec439; fill-opacity: 0.85; stroke: #ffffff; stroke-opacity: 0.85; stroke-width: 0.3; stroke-linejoin: miter"/>
    </g>
    <g id="text_28">
     <text style="fill: #3d3733; font: 9px 'ABC Oracle Edu'; text-anchor: start" x="531.081563" y="147.105" transform="rotate(-0 531.081563 147.105)">TV &amp; Leisure</text>
    </g>
    <g id="patch_11">
     <path d="M 510.381563 161.415 
L 523.881563 161.415 
L 523.881563 153.36 
L 510.381563 153.36 
z
" style="fill: #0bb4ff; fill-opacity: 0.85; stroke: #ffffff; stroke-opacity: 0.85; stroke-width: 0.3; stroke-linejoin: miter"/>
    </g>
    <g id="text_29">
     <text style="fill: #3d3733; font: 9px 'ABC Oracle Edu'; text-anchor: start" x="531.081563" y="160.47" transform="rotate(-0 531.081563 160.47)">Work</text>
    </g>
   </g>
  </g>
  <g id="text_30">
   <text style="fill: #999999; font: italic 7px 'ABC Oracle Edu'; text-anchor: start" x="32.4" y="529.2" transform="rotate(-0 32.4 529.2)">Source: American Time Use Survey (2003-2023), respondents aged 25-54</text>
  </g>
 </g>
 <defs>
  <clipPath id="p3af781179b">
   <rect x="51.84" y="64.8" width="563.76" height="421.2"/>
  </clipPath>
 </defs>
</svg>
