<?xml version="1.0" encoding="utf-8" standalone="no"?>
<!DOCTYPE svg PUBLIC "-//W3C//DTD SVG 1.1//EN"
  "http://www.w3.org/Graphics/SVG/1.1/DTD/svg11.dtd">
<svg xmlns:xlink="http://www.w3.org/1999/xlink" width="648pt" height="648pt" viewBox="0 0 648 648" xmlns="http://www.w3.org/2000/svg" version="1.1">
 <metadata>
  <rdf:RDF xmlns:dc="http://purl.org/dc/elements/1.1/" xmlns:cc="http://creativecommons.org/ns#" xmlns:rdf="http://www.w3.org/1999/02/22-rdf-syntax-ns#">
   <cc:Work>
    <dc:type rdf:resource="http://purl.org/dc/dcmitype/StillImage"/>
    <dc:date>2026-02-11T23:13:26.461634</dc:date>
    <dc:format>image/svg+xml</dc:format>
    <dc:creator>
     <cc:Agent>
      <dc:title>Matplotlib v3.9.4, https://matplotlib.org/</dc:title>
     </cc:Agent>
    </dc:creator>
   </cc:Work>
  </rdf:RDF>
 </metadata>
 <defs>
  <style type="text/css">*{stroke-linejoin: round; stroke-linecap: butt}</style>
 </defs>
 <g id="figure_1">
  <g id="patch_1">
   <path d="M 0 648 
L 648 648 
L 648 0 
L 0 0 
z
" style="fill: #f6f7f3"/>
  </g>
  <g id="axes_1">
   <g id="patch_2">
    <path d="M 64.8 478.523077 
L 615.6 478.523077 
L 615.6 64.8 
L 64.8 64.8 
z
" style="fill: #f6f7f3"/>
   </g>
   <g id="matplotlib.axis_1">
    <g id="xtick_1">
     <g id="line2d_1"/>
    </g>
    <g id="xtick_2">
     <g id="line2d_2"/>
    </g>
    <g id="xtick_3">
     <g id="line2d_3"/>
    </g>
    <g id="xtick_4">
     <g id="line2d_4"/>
    </g>
    <g id="xtick_5">
     <g id="line2d_5"/>
    </g>
    <g id="xtick_6">
     <g id="line2d_6"/>
    </g>
    <g id="xtick_7">
     <g id="line2d_7"/>
    </g>
    <g id="xtick_8">
     <g id="line2d_8"/>
    </g>
    <g id="xtick_9">
     <g id="line2d_9"/>
    </g>
    <g id="xtick_10">
     <g id="line2d_10"/>
    </g>
    <g id="xtick_11">
     <g id="line2d_11"/>
    </g>
    <g id="xtick_12">
     <g id="line2d_12"/>
    </g>
   </g>
   <g id="matplotlib.axis_2">
    <g id="ytick_1">
     <g id="line2d_13">
      <path d="M 64.8 478.523077 
L 615.6 478.523077 
" clip-path="url(#p62f29b5aac)" style="fill: none; stroke: #999999; stroke-opacity: 0.2; stroke-width: 0.5; stroke-linecap: square"/>
     </g>
     <g id="line2d_14"/>
     <g id="text_1">
      <text style="fill: #3d3733; font: 9px 'ABC Oracle Edu'; text-anchor: end" x="61.3" y="481.673077" transform="rotate(-0 61.3 481.673077)">-18 min</text>
     </g>
    </g>
    <g id="ytick_2">
     <g id="line2d_15">
      <path d="M 64.8 446.698225 
L 615.6 446.698225 
" clip-path="url(#p62f29b5aac)" style="fill: none; stroke: #999999; stroke-opacity: 0.2; stroke-width: 0.5; stroke-linecap: square"/>
     </g>
     <g id="line2d_16"/>
     <g id="text_2">
      <text style="fill: #3d3733; font: 9px 'ABC Oracle Edu'; text-anchor: end" x="61.3" y="449.848225" transform="rotate(-0 61.3 449.848225)">-15 min</text>
     </g>
    </g>
    <g id="ytick_3">
     <g id="line2d_17">
      <path d="M 64.8 414.873373 
L 615.6 414.873373 
" clip-path="url(#p62f29b5aac)" style="fill: none; stroke: #999999; stroke-opacity: 0.2; stroke-width: 0.5; stroke-linecap: square"/>
     </g>
     <g id="line2d_18"/>
     <g id="text_3">
      <text style="fill: #3d3733; font: 9px 'ABC Oracle Edu'; text-anchor: end" x="61.3" y="418.023373" transform="rotate(-0 61.3 418.023373)">-12 min</text>
     </g>
    </g>
    <g id="ytick_4">
     <g id="line2d_19">
      <path d="M 64.8 383.048521 
L 615.6 383.048521 
" clip-path="url(#p62f29b5aac)" style="fill: none; stroke: #999999; stroke-opacity: 0.2; stroke-width: 0.5; stroke-linecap: square"/>
     </g>
     <g id="line2d_20"/>
     <g id="text_4">
      <text style="fill: #3d3733; font: 9px 'ABC Oracle Edu'; text-anchor: end" x="61.3" y="386.198521" transform="rotate(-0 61.3 386.198521)">-9 min</text>
     </g>
    </g>
    <g id="ytick_5">
     <g id="line2d_21">
      <path d="M 64.8 351.223669 
L 615.6 351.223669 
" clip-path="url(#p62f29b5aac)" style="fill: none; stroke: #999999; stroke-opacity: 0.2; stroke-width: 0.5; stroke-linecap: square"/>
     </g>
     <g id="line2d_22"/>
     <g id="text_5">
      <text style="fill: #3d3733; font: 9px 'ABC Oracle Edu'; text-anchor: end" x="61.3" y="354.373669" transform="rotate(-0 61.3 354.373669)">-6 min</text>
     </g>
    </g>
    <g id="ytick_6">
     <g id="line2d_23">
      <path d="M 64.8 319.398817 
L 615.6 319.398817 
" clip-path="url(#p62f29b5aac)" style="fill: none; stroke: #999999; stroke-opacity: 0.2; stroke-width: 0.5; stroke-linecap: square"/>
     </g>
     <g id="line2d_24"/>
     <g id="text_6">
      <text style="fill: #3d3733; font: 9px 'ABC Oracle Edu'; text-anchor: end" x="61.3" y="322.548817" transform="rotate(-0 61.3 322.548817)">-3 min</text>
     </g>
    </g>
    <g id="ytick_7">
     <g id="line2d_25">
      <path d="M 64.8 287.573964 
L 615.6 287.573964 
" clip-path="url(#p62f29b5aac)" style="fill: none; stroke: #999999; stroke-opacity: 0.2; stroke-width: 0.5; stroke-linecap: square"/>
     </g>
     <g id="line2d_26"/>
     <g id="text_7">
      <text style="fill: #3d3733; font: 9px 'ABC Oracle Edu'; text-anchor: end" x="61.3" y="290.723964" transform="rotate(-0 61.3 290.723964)">0</text>
     </g>
    </g>
    <g id="ytick_8">
     <g id="line2d_27">
      <path d="M 64.8 255.749112 
L 615.6 255.749112 
" clip-path="url(#p62f29b5aac)" style="fill: none; stroke: #999999; stroke-opacity: 0.2; stroke-width: 0.5; stroke-linecap: square"/>
     </g>
     <g id="line2d_28"/>
     <g id="text_8">
      <text style="fill: #3d3733; font: 9px 'ABC Oracle Edu'; text-anchor: end" x="61.3" y="258.899112" transform="rotate(-0 61.3 258.899112)">+3 min</text>
     </g>
    </g>
    <g id="ytick_9">
     <g id="line2d_29">
      <path d="M 64.8 223.92426 
L 615.6 223.92426 
" clip-path="url(#p62f29b5aac)" style="fill: none; stroke: #999999; stroke-opacity: 0.2; stroke-width: 0.5; stroke-linecap: square"/>
     </g>
     <g id="line2d_30"/>
     <g id="text_9">
      <text style="fill: #3d3733; font: 9px 'ABC Oracle Edu'; text-anchor: end" x="61.3" y="227.07426" transform="rotate(-0 61.3 227.07426)">+6 min</text>
     </g>
    </g>
    <g id="ytick_10">
     <g id="line2d_31">
      <path d="M 64.8 192.099408 
L 615.6 192.099408 
" clip-path="url(#p62f29b5aac)" style="fill: none; stroke: #999999; stroke-opacity: 0.2; stroke-width: 0.5; stroke-linecap: square"/>
     </g>
     <g id="line2d_32"/>
     <g id="text_10">
      <text style="fill: #3d3733; font: 9px 'ABC Oracle Edu'; text-anchor: end" x="61.3" y="195.249408" transform="rotate(-0 61.3 195.249408)">+9 min</text>
     </g>
    </g>
    <g id="ytick_11">
     <g id="line2d_33">
      <path d="M 64.8 160.274556 
L 615.6 160.274556 
" clip-path="url(#p62f29b5aac)" style="fill: none; stroke: #999999; stroke-opacity: 0.2; stroke-width: 0.5; stroke-linecap: square"/>
     </g>
     <g id="line2d_34"/>
     <g id="text_11">
      <text style="fill: #3d3733; font: 9px 'ABC Oracle Edu'; text-anchor: end" x="61.3" y="163.424556" transform="rotate(-0 61.3 163.424556)">+12 min</text>
     </g>
    </g>
    <g id="ytick_12">
     <g id="line2d_35">
      <path d="M 64.8 128.449704 
L 615.6 128.449704 
" clip-path="url(#p62f29b5aac)" style="fill: none; stroke: #999999; stroke-opacity: 0.2; stroke-width: 0.5; stroke-linecap: square"/>
     </g>
     <g id="line2d_36"/>
     <g id="text_12">
      <text style="fill: #3d3733; font: 9px 'ABC Oracle Edu'; text-anchor: end" x="61.3" y="131.599704" transform="rotate(-0 61.3 131.599704)">+15 min</text>
     </g>
    </g>
    <g id="ytick_13">
     <g id="line2d_37">
      <path d="M 64.8 96.624852 
L 615.6 96.624852 
" clip-path="url(#p62f29b5aac)" style="fill: none; stroke: #999999; stroke-opacity: 0.2; stroke-width: 0.5; stroke-linecap: square"/>
     </g>
     <g id="line2d_38"/>
     <g id="text_13">
      <text style="fill: #3d3733; font: 9px 'ABC Oracle Edu'; text-anchor: end" x="61.3" y="99.774852" transform="rotate(-0 61.3 99.774852)">+18 min</text>
     </g>
    </g>
    <g id="ytick_14">
     <g id="line2d_39">
      <path d="M 64.8 64.8 
L 615.6 64.8 
" clip-path="url(#p62f29b5aac)" style="fill: none; stroke: #999999; stroke-opacity: 0.2; stroke-width: 0.5; stroke-linecap: square"/>
     </g>
     <g id="line2d_40"/>
     <g id="text_14">
      <text style="fill: #3d3733; font: 9px 'ABC Oracle Edu'; text-anchor: end" x="61.3" y="67.95" transform="rotate(-0 61.3 67.95)">+21 min</text>
     </g>
    </g>
   </g>
   <g id="PolyCollection_1">
    <defs>
     <path id="mc4ac1f9006" d="M 64.8 -379.355871 
L 64.8 -360.426036 
L 76.519149 -360.426036 
L 88.238298 -360.426036 
L 99.957447 -360.426036 
L 111.676596 -360.426036 
L 123.395745 -360.426036 
L 135.114894 -360.426036 
L 146.834043 -360.426036 
L 158.553191 -360.426036 
L 170.27234 -360.426036 
L 181.991489 -360.426036 
L 193.710638 -360.426036 
L 205.429787 -360.426036 
L 217.148936 -360.426036 
L 228.868085 -360.426036 
L 240.587234 -360.426036 
L 252.306383 -360.426036 
L 264.025532 -360.426036 
L 275.744681 -360.426036 
L 287.46383 -360.426036 
L 299.182979 -360.426036 
L 310.902128 -360.426036 
L 322.621277 -360.426036 
L 334.340426 -360.426036 
L 346.059574 -360.426036 
L 357.778723 -360.426036 
L 369.497872 -360.426036 
L 381.217021 -360.426036 
L 392.93617 -360.426036 
L 404.655319 -360.426036 
L 416.374468 -360.426036 
L 428.093617 -360.426036 
L 439.812766 -360.426036 
L 451.531915 -360.426036 
L 463.251064 -360.426036 
L 474.970213 -360.426036 
L 486.689362 -360.426036 
L 498.408511 -360.426036 
L 510.12766 -360.426036 
L 521.846809 -360.426036 
L 533.565957 -360.426036 
L 545.285106 -360.426036 
L 557.004255 -360.426036 
L 568.723404 -360.426036 
L 580.442553 -360.426036 
L 592.161702 -360.426036 
L 603.880851 -360.426036 
L 615.6 -360.426036 
L 615.6 -364.851472 
L 615.6 -364.851472 
L 603.880851 -367.761584 
L 592.161702 -366.160949 
L 580.442553 -369.11556 
L 568.723404 -366.464094 
L 557.004255 -372.348228 
L 545.285106 -368.188713 
L 533.565957 -366.152931 
L 521.846809 -372.004541 
L 510.12766 -369.337032 
L 498.408511 -378.069417 
L 486.689362 -390.302804 
L 474.970213 -398.190994 
L 463.251064 -426.022358 
L 451.531915 -474.24573 
L 439.812766 -495.73264 
L 428.093617 -513.378932 
L 416.374468 -523.886393 
L 404.655319 -514.708762 
L 392.93617 -485.314011 
L 381.217021 -456.037773 
L 369.497872 -457.211527 
L 357.778723 -452.791664 
L 346.059574 -456.936142 
L 334.340426 -434.541897 
L 322.621277 -434.08706 
L 310.902128 -418.213992 
L 299.182979 -410.220911 
L 287.46383 -397.764447 
L 275.744681 -398.569967 
L 264.025532 -397.949918 
L 252.306383 -389.565873 
L 240.587234 -401.066642 
L 228.868085 -408.847266 
L 217.148936 -403.785238 
L 205.429787 -410.258569 
L 193.710638 -407.419094 
L 181.991489 -416.643455 
L 170.27234 -423.812906 
L 158.553191 -443.029296 
L 146.834043 -464.302253 
L 135.114894 -494.711833 
L 123.395745 -457.42141 
L 111.676596 -429.207523 
L 99.957447 -378.998776 
L 88.238298 -371.664193 
L 76.519149 -374.070054 
L 64.8 -379.355871 
z
" style="stroke: #ffffff; stroke-opacity: 0.85; stroke-width: 0.3"/>
    </defs>
    <g clip-path="url(#p62f29b5aac)">
     <use xlink:href="#mc4ac1f9006" x="0" y="648" style="fill: #67a275; fill-opacity: 0.85; stroke: #ffffff; stroke-opacity: 0.85; stroke-width: 0.3"/>
    </g>
   </g>
   <g id="PolyCollection_2">
    <defs>
     <path id="m3ddc33635f" d="M 64.8 -380.21347 
L 64.8 -379.355871 
L 76.519149 -374.070054 
L 88.238298 -371.664193 
L 99.957447 -378.998776 
L 111.676596 -429.207523 
L 123.395745 -457.42141 
L 135.114894 -494.711833 
L 146.834043 -464.302253 
L 158.553191 -443.029296 
L 170.27234 -423.812906 
L 181.991489 -416.643455 
L 193.710638 -407.419094 
L 205.429787 -410.258569 
L 217.148936 -403.785238 
L 228.868085 -408.847266 
L 240.587234 -401.066642 
L 252.306383 -389.565873 
L 264.025532 -397.949918 
L 275.744681 -398.569967 
L 287.46383 -397.764447 
L 299.182979 -410.220911 
L 310.902128 -418.213992 
L 322.621277 -434.08706 
L 334.340426 -434.541897 
L 346.059574 -456.936142 
L 357.778723 -452.791664 
L 369.497872 -457.211527 
L 381.217021 -456.037773 
L 392.93617 -485.314011 
L 404.655319 -514.708762 
L 416.374468 -523.886393 
L 428.093617 -513.378932 
L 439.812766 -495.73264 
L 451.531915 -474.24573 
L 463.251064 -426.022358 
L 474.970213 -398.190994 
L 486.689362 -390.302804 
L 498.408511 -378.069417 
L 510.12766 -369.337032 
L 521.846809 -372.004541 
L 533.565957 -366.152931 
L 545.285106 -368.188713 
L 557.004255 -372.348228 
L 568.723404 -366.464094 
L 580.442553 -369.11556 
L 592.161702 -366.160949 
L 603.880851 -367.761584 
L 615.6 -364.851472 
L 615.6 -364.851472 
L 615.6 -364.851472 
L 603.880851 -367.761584 
L 592.161702 -366.160949 
L 580.442553 -369.11556 
L 568.723404 -366.464094 
L 557.004255 -372.348228 
L 545.285106 -368.188713 
L 533.565957 -366.152931 
L 521.846809 -372.004541 
L 510.12766 -369.337032 
L 498.408511 -384.203023 
L 486.689362 -390.302804 
L 474.970213 -398.190994 
L 463.251064 -426.022358 
L 451.531915 -482.271087 
L 439.812766 -507.490317 
L 428.093617 -513.378932 
L 416.374468 -523.886393 
L 404.655319 -514.708762 
L 392.93617 -499.635443 
L 381.217021 -456.959896 
L 369.497872 -457.211527 
L 357.778723 -452.791664 
L 346.059574 -456.936142 
L 334.340426 -434.807867 
L 322.621277 -434.08706 
L 310.902128 -418.213992 
L 299.182979 -410.220911 
L 287.46383 -400.252858 
L 275.744681 -403.863566 
L 264.025532 -409.018137 
L 252.306383 -410.153666 
L 240.587234 -424.931943 
L 228.868085 -426.607215 
L 217.148936 -418.836016 
L 205.429787 -416.262876 
L 193.710638 -409.815419 
L 181.991489 -442.108043 
L 170.27234 -433.816331 
L 158.553191 -446.294979 
L 146.834043 -483.78535 
L 135.114894 -494.711833 
L 123.395745 -468.637309 
L 111.676596 -441.506378 
L 99.957447 -378.998776 
L 88.238298 -371.664193 
L 76.519149 -374.830619 
L 64.8 -380.21347 
z
" style="stroke: #ffffff; stroke-opacity: 0.85; stroke-width: 0.3"/>
    </defs>
    <g clip-path="url(#p62f29b5aac)">
     <use xlink:href="#m3ddc33635f" x="0" y="648" style="fill: #dadfce; fill-opacity: 0.85; stroke: #ffffff; stroke-opacity: 0.85; stroke-width: 0.3"/>
    </g>
   </g>
   <g id="PolyCollection_3">
    <defs>
     <path id="m2c3f44d8b7" d="M 64.8 -380.21347 
L 64.8 -380.21347 
L 76.519149 -374.830619 
L 88.238298 -371.664193 
L 99.957447 -378.998776 
L 111.676596 -441.506378 
L 123.395745 -468.637309 
L 135.114894 -494.711833 
L 146.834043 -483.78535 
L 158.553191 -446.294979 
L 170.27234 -433.816331 
L 181.991489 -442.108043 
L 193.710638 -409.815419 
L 205.429787 -416.262876 
L 217.148936 -418.836016 
L 228.868085 -426.607215 
L 240.587234 -424.931943 
L 252.306383 -410.153666 
L 264.025532 -409.018137 
L 275.744681 -403.863566 
L 287.46383 -400.252858 
L 299.182979 -410.220911 
L 310.902128 -418.213992 
L 322.621277 -434.08706 
L 334.340426 -434.807867 
L 346.059574 -456.936142 
L 357.778723 -452.791664 
L 369.497872 -457.211527 
L 381.217021 -456.959896 
L 392.93617 -499.635443 
L 404.655319 -514.708762 
L 416.374468 -523.886393 
L 428.093617 -513.378932 
L 439.812766 -507.490317 
L 451.531915 -482.271087 
L 463.251064 -426.022358 
L 474.970213 -398.190994 
L 486.689362 -390.302804 
L 498.408511 -384.203023 
L 510.12766 -369.337032 
L 521.846809 -372.004541 
L 533.565957 -366.152931 
L 545.285106 -368.188713 
L 557.004255 -372.348228 
L 568.723404 -366.464094 
L 580.442553 -369.11556 
L 592.161702 -366.160949 
L 603.880851 -367.761584 
L 615.6 -364.851472 
L 615.6 -364.851472 
L 615.6 -364.851472 
L 603.880851 -368.556967 
L 592.161702 -367.298291 
L 580.442553 -369.11556 
L 568.723404 -366.464094 
L 557.004255 -372.348228 
L 545.285106 -368.188713 
L 533.565957 -366.152931 
L 521.846809 -372.004541 
L 510.12766 -369.337032 
L 498.408511 -384.203023 
L 486.689362 -390.302804 
L 474.970213 -398.190994 
L 463.251064 -426.022358 
L 451.531915 -482.271087 
L 439.812766 -508.06132 
L 428.093617 -521.034393 
L 416.374468 -523.886393 
L 404.655319 -514.708762 
L 392.93617 -499.635443 
L 381.217021 -491.619719 
L 369.497872 -473.357933 
L 357.778723 -489.789027 
L 346.059574 -486.240197 
L 334.340426 -463.815161 
L 322.621277 -463.886636 
L 310.902128 -418.213992 
L 299.182979 -430.85762 
L 287.46383 -416.466527 
L 275.744681 -413.052288 
L 264.025532 -416.879115 
L 252.306383 -417.654719 
L 240.587234 -426.945365 
L 228.868085 -435.667857 
L 217.148936 -429.493222 
L 205.429787 -416.262876 
L 193.710638 -412.064008 
L 181.991489 -453.47493 
L 170.27234 -459.171754 
L 158.553191 -494.483311 
L 146.834043 -516.050214 
L 135.114894 -521.942484 
L 123.395745 -482.24815 
L 111.676596 -441.506378 
L 99.957447 -378.998776 
L 88.238298 -381.717734 
L 76.519149 -386.064609 
L 64.8 -380.21347 
z
" style="stroke: #ffffff; stroke-opacity: 0.85; stroke-width: 0.3"/>
    </defs>
    <g clip-path="url(#p62f29b5aac)">
     <use xlink:href="#m2c3f44d8b7" x="0" y="648" style="fill: #999999; fill-opacity: 0.85; stroke: #ffffff; stroke-opacity: 0.85; stroke-width: 0.3"/>
    </g>
   </g>
   <g id="PolyCollection_4">
    <defs>
     <path id="m73e8fe1ea8" d="M 64.8 -380.21347 
L 64.8 -380.21347 
L 76.519149 -386.064609 
L 88.238298 -381.717734 
L 99.957447 -378.998776 
L 111.676596 -441.506378 
L 123.395745 -482.24815 
L 135.114894 -521.942484 
L 146.834043 -516.050214 
L 158.553191 -494.483311 
L 170.27234 -459.171754 
L 181.991489 -453.47493 
L 193.710638 -412.064008 
L 205.429787 -416.262876 
L 217.148936 -429.493222 
L 228.868085 -435.667857 
L 240.587234 -426.945365 
L 252.306383 -417.654719 
L 264.025532 -416.879115 
L 275.744681 -413.052288 
L 287.46383 -416.466527 
L 299.182979 -430.85762 
L 310.902128 -418.213992 
L 322.621277 -463.886636 
L 334.340426 -463.815161 
L 346.059574 -486.240197 
L 357.778723 -489.789027 
L 369.497872 -473.357933 
L 381.217021 -491.619719 
L 392.93617 -499.635443 
L 404.655319 -514.708762 
L 416.374468 -523.886393 
L 428.093617 -521.034393 
L 439.812766 -508.06132 
L 451.531915 -482.271087 
L 463.251064 -426.022358 
L 474.970213 -398.190994 
L 486.689362 -390.302804 
L 498.408511 -384.203023 
L 510.12766 -369.337032 
L 521.846809 -372.004541 
L 533.565957 -366.152931 
L 545.285106 -368.188713 
L 557.004255 -372.348228 
L 568.723404 -366.464094 
L 580.442553 -369.11556 
L 592.161702 -367.298291 
L 603.880851 -368.556967 
L 615.6 -364.851472 
L 615.6 -364.851472 
L 615.6 -364.851472 
L 603.880851 -368.556967 
L 592.161702 -367.377755 
L 580.442553 -369.609375 
L 568.723404 -366.464094 
L 557.004255 -374.728025 
L 545.285106 -368.188713 
L 533.565957 -366.152931 
L 521.846809 -372.004541 
L 510.12766 -369.337032 
L 498.408511 -384.647494 
L 486.689362 -396.329439 
L 474.970213 -398.190994 
L 463.251064 -426.022358 
L 451.531915 -482.271087 
L 439.812766 -508.06132 
L 428.093617 -521.034393 
L 416.374468 -525.822625 
L 404.655319 -540.988555 
L 392.93617 -536.904028 
L 381.217021 -505.616496 
L 369.497872 -492.29915 
L 357.778723 -491.458219 
L 346.059574 -486.240197 
L 334.340426 -463.815161 
L 322.621277 -463.886636 
L 310.902128 -420.757517 
L 299.182979 -430.85762 
L 287.46383 -416.466527 
L 275.744681 -413.052288 
L 264.025532 -416.879115 
L 252.306383 -417.654719 
L 240.587234 -426.945365 
L 228.868085 -441.47033 
L 217.148936 -433.020016 
L 205.429787 -416.262876 
L 193.710638 -412.852695 
L 181.991489 -456.530668 
L 170.27234 -459.171754 
L 158.553191 -497.634347 
L 146.834043 -516.050214 
L 135.114894 -521.942484 
L 123.395745 -482.24815 
L 111.676596 -443.352396 
L 99.957447 -385.980603 
L 88.238298 -381.717734 
L 76.519149 -386.064609 
L 64.8 -380.21347 
z
" style="stroke: #ffffff; stroke-opacity: 0.85; stroke-width: 0.3"/>
    </defs>
    <g clip-path="url(#p62f29b5aac)">
     <use xlink:href="#m73e8fe1ea8" x="0" y="648" style="fill: #e8a87c; fill-opacity: 0.85; stroke: #ffffff; stroke-opacity: 0.85; stroke-width: 0.3"/>
    </g>
   </g>
   <g id="PolyCollection_5">
    <defs>
     <path id="me8429801f9" d="M 64.8 -380.21347 
L 64.8 -380.21347 
L 76.519149 -386.064609 
L 88.238298 -381.717734 
L 99.957447 -385.980603 
L 111.676596 -443.352396 
L 123.395745 -482.24815 
L 135.114894 -521.942484 
L 146.834043 -516.050214 
L 158.553191 -497.634347 
L 170.27234 -459.171754 
L 181.991489 -456.530668 
L 193.710638 -412.852695 
L 205.429787 -416.262876 
L 217.148936 -433.020016 
L 228.868085 -441.47033 
L 240.587234 -426.945365 
L 252.306383 -417.654719 
L 264.025532 -416.879115 
L 275.744681 -413.052288 
L 287.46383 -416.466527 
L 299.182979 -430.85762 
L 310.902128 -420.757517 
L 322.621277 -463.886636 
L 334.340426 -463.815161 
L 346.059574 -486.240197 
L 357.778723 -491.458219 
L 369.497872 -492.29915 
L 381.217021 -505.616496 
L 392.93617 -536.904028 
L 404.655319 -540.988555 
L 416.374468 -525.822625 
L 428.093617 -521.034393 
L 439.812766 -508.06132 
L 451.531915 -482.271087 
L 463.251064 -426.022358 
L 474.970213 -398.190994 
L 486.689362 -396.329439 
L 498.408511 -384.647494 
L 510.12766 -369.337032 
L 521.846809 -372.004541 
L 533.565957 -366.152931 
L 545.285106 -368.188713 
L 557.004255 -374.728025 
L 568.723404 -366.464094 
L 580.442553 -369.609375 
L 592.161702 -367.377755 
L 603.880851 -368.556967 
L 615.6 -364.851472 
L 615.6 -369.723259 
L 615.6 -369.723259 
L 603.880851 -373.730807 
L 592.161702 -378.815334 
L 580.442553 -382.868069 
L 568.723404 -395.21962 
L 557.004255 -396.637831 
L 545.285106 -401.953235 
L 533.565957 -403.139332 
L 521.846809 -418.309392 
L 510.12766 -415.541817 
L 498.408511 -410.113881 
L 486.689362 -431.259954 
L 474.970213 -434.536306 
L 463.251064 -443.79904 
L 451.531915 -494.535271 
L 439.812766 -508.06132 
L 428.093617 -521.034393 
L 416.374468 -525.822625 
L 404.655319 -540.988555 
L 392.93617 -536.904028 
L 381.217021 -505.616496 
L 369.497872 -492.29915 
L 357.778723 -491.458219 
L 346.059574 -486.240197 
L 334.340426 -463.815161 
L 322.621277 -463.886636 
L 310.902128 -420.757517 
L 299.182979 -430.85762 
L 287.46383 -416.466527 
L 275.744681 -413.052288 
L 264.025532 -416.879115 
L 252.306383 -417.654719 
L 240.587234 -426.945365 
L 228.868085 -441.47033 
L 217.148936 -433.020016 
L 205.429787 -416.262876 
L 193.710638 -412.852695 
L 181.991489 -456.530668 
L 170.27234 -459.171754 
L 158.553191 -497.634347 
L 146.834043 -516.050214 
L 135.114894 -521.942484 
L 123.395745 -482.24815 
L 111.676596 -443.352396 
L 99.957447 -385.980603 
L 88.238298 -381.717734 
L 76.519149 -386.064609 
L 64.8 -380.21347 
z
" style="stroke: #ffffff; stroke-opacity: 0.85; stroke-width: 0.3"/>
    </defs>
    <g clip-path="url(#p62f29b5aac)">
     <use xlink:href="#me8429801f9" x="0" y="648" style="fill: #d4d4d4; fill-opacity: 0.85; stroke: #ffffff; stroke-opacity: 0.85; stroke-width: 0.3"/>
    </g>
   </g>
   <g id="PolyCollection_6">
    <defs>
     <path id="mcb7437381c" d="M 64.8 -360.426036 
L 64.8 -359.210721 
L 76.519149 -359.101691 
L 88.238298 -358.08151 
L 99.957447 -353.839096 
L 111.676596 -353.946675 
L 123.395745 -349.227484 
L 135.114894 -348.928294 
L 146.834043 -345.628177 
L 158.553191 -343.924256 
L 170.27234 -351.191202 
L 181.991489 -355.626645 
L 193.710638 -360.426036 
L 205.429787 -358.127541 
L 217.148936 -350.913847 
L 228.868085 -347.782418 
L 240.587234 -352.621806 
L 252.306383 -347.254001 
L 264.025532 -356.708274 
L 275.744681 -359.167087 
L 287.46383 -354.610607 
L 299.182979 -344.047569 
L 310.902128 -346.693796 
L 322.621277 -338.941956 
L 334.340426 -333.813347 
L 346.059574 -326.704894 
L 357.778723 -313.109555 
L 369.497872 -300.153697 
L 381.217021 -285.978821 
L 392.93617 -276.247955 
L 404.655319 -263.07081 
L 416.374468 -260.977362 
L 428.093617 -247.024086 
L 439.812766 -257.0771 
L 451.531915 -254.988952 
L 463.251064 -295.701108 
L 474.970213 -291.523956 
L 486.689362 -320.725632 
L 498.408511 -328.244503 
L 510.12766 -325.628664 
L 521.846809 -324.463694 
L 533.565957 -332.868409 
L 545.285106 -334.51366 
L 557.004255 -338.824431 
L 568.723404 -340.332879 
L 580.442553 -346.651862 
L 592.161702 -347.668264 
L 603.880851 -354.324624 
L 615.6 -355.644312 
L 615.6 -360.426036 
L 615.6 -360.426036 
L 603.880851 -360.426036 
L 592.161702 -360.426036 
L 580.442553 -360.426036 
L 568.723404 -360.426036 
L 557.004255 -360.426036 
L 545.285106 -360.426036 
L 533.565957 -360.426036 
L 521.846809 -360.426036 
L 510.12766 -360.426036 
L 498.408511 -360.426036 
L 486.689362 -360.426036 
L 474.970213 -360.426036 
L 463.251064 -360.426036 
L 451.531915 -360.426036 
L 439.812766 -360.426036 
L 428.093617 -360.426036 
L 416.374468 -360.426036 
L 404.655319 -360.426036 
L 392.93617 -360.426036 
L 381.217021 -360.426036 
L 369.497872 -360.426036 
L 357.778723 -360.426036 
L 346.059574 -360.426036 
L 334.340426 -360.426036 
L 322.621277 -360.426036 
L 310.902128 -360.426036 
L 299.182979 -360.426036 
L 287.46383 -360.426036 
L 275.744681 -360.426036 
L 264.025532 -360.426036 
L 252.306383 -360.426036 
L 240.587234 -360.426036 
L 228.868085 -360.426036 
L 217.148936 -360.426036 
L 205.429787 -360.426036 
L 193.710638 -360.426036 
L 181.991489 -360.426036 
L 170.27234 -360.426036 
L 158.553191 -360.426036 
L 146.834043 -360.426036 
L 135.114894 -360.426036 
L 123.395745 -360.426036 
L 111.676596 -360.426036 
L 99.957447 -360.426036 
L 88.238298 -360.426036 
L 76.519149 -360.426036 
L 64.8 -360.426036 
z
" style="stroke: #ffffff; stroke-opacity: 0.85; stroke-width: 0.3"/>
    </defs>
    <g clip-path="url(#p62f29b5aac)">
     <use xlink:href="#mcb7437381c" x="0" y="648" style="fill: #fec439; fill-opacity: 0.85; stroke: #ffffff; stroke-opacity: 0.85; stroke-width: 0.3"/>
    </g>
   </g>
   <g id="PolyCollection_7">
    <defs>
     <path id="m91081c1d8d" d="M 64.8 -359.210721 
L 64.8 -359.210721 
L 76.519149 -359.101691 
L 88.238298 -358.08151 
L 99.957447 -353.839096 
L 111.676596 -344.253584 
L 123.395745 -331.376749 
L 135.114894 -319.221163 
L 146.834043 -294.835036 
L 158.553191 -287.059356 
L 170.27234 -304.981894 
L 181.991489 -303.19365 
L 193.710638 -327.28064 
L 205.429787 -310.571763 
L 217.148936 -303.698079 
L 228.868085 -284.82311 
L 240.587234 -320.962393 
L 252.306383 -311.118954 
L 264.025532 -316.361701 
L 275.744681 -346.303895 
L 287.46383 -325.873898 
L 299.182979 -288.872599 
L 310.902128 -293.304646 
L 322.621277 -271.755922 
L 334.340426 -264.756554 
L 346.059574 -264.325456 
L 357.778723 -255.279876 
L 369.497872 -257.379675 
L 381.217021 -246.400676 
L 392.93617 -253.801093 
L 404.655319 -243.689754 
L 416.374468 -255.432286 
L 428.093617 -236.057821 
L 439.812766 -250.260672 
L 451.531915 -254.988952 
L 463.251064 -295.701108 
L 474.970213 -291.523956 
L 486.689362 -320.725632 
L 498.408511 -325.628994 
L 510.12766 -323.873309 
L 521.846809 -322.492925 
L 533.565957 -328.9032 
L 545.285106 -330.017227 
L 557.004255 -333.300899 
L 568.723404 -335.581001 
L 580.442553 -343.008364 
L 592.161702 -344.471242 
L 603.880851 -353.627381 
L 615.6 -354.424032 
L 615.6 -355.644312 
L 615.6 -355.644312 
L 603.880851 -354.324624 
L 592.161702 -347.668264 
L 580.442553 -346.651862 
L 568.723404 -340.332879 
L 557.004255 -338.824431 
L 545.285106 -334.51366 
L 533.565957 -332.868409 
L 521.846809 -324.463694 
L 510.12766 -325.628664 
L 498.408511 -328.244503 
L 486.689362 -320.725632 
L 474.970213 -291.523956 
L 463.251064 -295.701108 
L 451.531915 -254.988952 
L 439.812766 -257.0771 
L 428.093617 -247.024086 
L 416.374468 -260.977362 
L 404.655319 -263.07081 
L 392.93617 -276.247955 
L 381.217021 -285.978821 
L 369.497872 -300.153697 
L 357.778723 -313.109555 
L 346.059574 -326.704894 
L 334.340426 -333.813347 
L 322.621277 -338.941956 
L 310.902128 -346.693796 
L 299.182979 -344.047569 
L 287.46383 -354.610607 
L 275.744681 -359.167087 
L 264.025532 -356.708274 
L 252.306383 -347.254001 
L 240.587234 -352.621806 
L 228.868085 -347.782418 
L 217.148936 -350.913847 
L 205.429787 -358.127541 
L 193.710638 -360.426036 
L 181.991489 -355.626645 
L 170.27234 -351.191202 
L 158.553191 -343.924256 
L 146.834043 -345.628177 
L 135.114894 -348.928294 
L 123.395745 -349.227484 
L 111.676596 -353.946675 
L 99.957447 -353.839096 
L 88.238298 -358.08151 
L 76.519149 -359.101691 
L 64.8 -359.210721 
z
" style="stroke: #ffffff; stroke-opacity: 0.85; stroke-width: 0.3"/>
    </defs>
    <g clip-path="url(#p62f29b5aac)">
     <use xlink:href="#m91081c1d8d" x="0" y="648" style="fill: #0bb4ff; fill-opacity: 0.85; stroke: #ffffff; stroke-opacity: 0.85; stroke-width: 0.3"/>
    </g>
   </g>
   <g id="PolyCollection_8">
    <defs>
     <path id="mcc4edbe1dd" d="M 64.8 -359.210721 
L 64.8 -358.829865 
L 76.519149 -359.101691 
L 88.238298 -358.08151 
L 99.957447 -344.419917 
L 111.676596 -322.300434 
L 123.395745 -331.376749 
L 135.114894 -319.221163 
L 146.834043 -294.835036 
L 158.553191 -287.059356 
L 170.27234 -304.981894 
L 181.991489 -303.19365 
L 193.710638 -327.28064 
L 205.429787 -309.912569 
L 217.148936 -303.698079 
L 228.868085 -284.82311 
L 240.587234 -320.962393 
L 252.306383 -311.118954 
L 264.025532 -316.361701 
L 275.744681 -346.303895 
L 287.46383 -325.873898 
L 299.182979 -288.872599 
L 310.902128 -292.068639 
L 322.621277 -271.755922 
L 334.340426 -264.756554 
L 346.059574 -264.325456 
L 357.778723 -255.279876 
L 369.497872 -257.379675 
L 381.217021 -246.400676 
L 392.93617 -238.100796 
L 404.655319 -237.365084 
L 416.374468 -249.33542 
L 428.093617 -236.057821 
L 439.812766 -250.260672 
L 451.531915 -240.541427 
L 463.251064 -288.428506 
L 474.970213 -282.407375 
L 486.689362 -310.626721 
L 498.408511 -317.968206 
L 510.12766 -319.608691 
L 521.846809 -315.1156 
L 533.565957 -324.13421 
L 545.285106 -328.718568 
L 557.004255 -330.730841 
L 568.723404 -333.482845 
L 580.442553 -342.437287 
L 592.161702 -344.471242 
L 603.880851 -353.627381 
L 615.6 -354.096789 
L 615.6 -354.424032 
L 615.6 -354.424032 
L 603.880851 -353.627381 
L 592.161702 -344.471242 
L 580.442553 -343.008364 
L 568.723404 -335.581001 
L 557.004255 -333.300899 
L 545.285106 -330.017227 
L 533.565957 -328.9032 
L 521.846809 -322.492925 
L 510.12766 -323.873309 
L 498.408511 -325.628994 
L 486.689362 -320.725632 
L 474.970213 -291.523956 
L 463.251064 -295.701108 
L 451.531915 -254.988952 
L 439.812766 -250.260672 
L 428.093617 -236.057821 
L 416.374468 -255.432286 
L 404.655319 -243.689754 
L 392.93617 -253.801093 
L 381.217021 -246.400676 
L 369.497872 -257.379675 
L 357.778723 -255.279876 
L 346.059574 -264.325456 
L 334.340426 -264.756554 
L 322.621277 -271.755922 
L 310.902128 -293.304646 
L 299.182979 -288.872599 
L 287.46383 -325.873898 
L 275.744681 -346.303895 
L 264.025532 -316.361701 
L 252.306383 -311.118954 
L 240.587234 -320.962393 
L 228.868085 -284.82311 
L 217.148936 -303.698079 
L 205.429787 -310.571763 
L 193.710638 -327.28064 
L 181.991489 -303.19365 
L 170.27234 -304.981894 
L 158.553191 -287.059356 
L 146.834043 -294.835036 
L 135.114894 -319.221163 
L 123.395745 -331.376749 
L 111.676596 -344.253584 
L 99.957447 -353.839096 
L 88.238298 -358.08151 
L 76.519149 -359.101691 
L 64.8 -359.210721 
z
" style="stroke: #ffffff; stroke-opacity: 0.85; stroke-width: 0.3"/>
    </defs>
    <g clip-path="url(#p62f29b5aac)">
     <use xlink:href="#mcc4edbe1dd" x="0" y="648" style="fill: #999999; fill-opacity: 0.85; stroke: #ffffff; stroke-opacity: 0.85; stroke-width: 0.3"/>
    </g>
   </g>
   <g id="PolyCollection_9">
    <defs>
     <path id="m084bd61457" d="M 64.8 -358.829865 
L 64.8 -355.530411 
L 76.519149 -358.044783 
L 88.238298 -357.321755 
L 99.957447 -344.419917 
L 111.676596 -322.300434 
L 123.395745 -325.245677 
L 135.114894 -316.917088 
L 146.834043 -292.075558 
L 158.553191 -287.059356 
L 170.27234 -303.921612 
L 181.991489 -303.19365 
L 193.710638 -327.28064 
L 205.429787 -307.017053 
L 217.148936 -303.698079 
L 228.868085 -284.82311 
L 240.587234 -315.070418 
L 252.306383 -309.132332 
L 264.025532 -302.855696 
L 275.744681 -318.924355 
L 287.46383 -312.578369 
L 299.182979 -286.038147 
L 310.902128 -292.068639 
L 322.621277 -266.506754 
L 334.340426 -261.322989 
L 346.059574 -254.668615 
L 357.778723 -255.279876 
L 369.497872 -257.379675 
L 381.217021 -246.400676 
L 392.93617 -238.100796 
L 404.655319 -237.365084 
L 416.374468 -249.33542 
L 428.093617 -224.327642 
L 439.812766 -243.147297 
L 451.531915 -233.350208 
L 463.251064 -282.725294 
L 474.970213 -278.45269 
L 486.689362 -310.626721 
L 498.408511 -317.968206 
L 510.12766 -317.510222 
L 521.846809 -312.536452 
L 533.565957 -323.672362 
L 545.285106 -327.074163 
L 557.004255 -330.730841 
L 568.723404 -330.823638 
L 580.442553 -342.437287 
L 592.161702 -344.471242 
L 603.880851 -351.894644 
L 615.6 -352.260269 
L 615.6 -354.096789 
L 615.6 -354.096789 
L 603.880851 -353.627381 
L 592.161702 -344.471242 
L 580.442553 -342.437287 
L 568.723404 -333.482845 
L 557.004255 -330.730841 
L 545.285106 -328.718568 
L 533.565957 -324.13421 
L 521.846809 -315.1156 
L 510.12766 -319.608691 
L 498.408511 -317.968206 
L 486.689362 -310.626721 
L 474.970213 -282.407375 
L 463.251064 -288.428506 
L 451.531915 -240.541427 
L 439.812766 -250.260672 
L 428.093617 -236.057821 
L 416.374468 -249.33542 
L 404.655319 -237.365084 
L 392.93617 -238.100796 
L 381.217021 -246.400676 
L 369.497872 -257.379675 
L 357.778723 -255.279876 
L 346.059574 -264.325456 
L 334.340426 -264.756554 
L 322.621277 -271.755922 
L 310.902128 -292.068639 
L 299.182979 -288.872599 
L 287.46383 -325.873898 
L 275.744681 -346.303895 
L 264.025532 -316.361701 
L 252.306383 -311.118954 
L 240.587234 -320.962393 
L 228.868085 -284.82311 
L 217.148936 -303.698079 
L 205.429787 -309.912569 
L 193.710638 -327.28064 
L 181.991489 -303.19365 
L 170.27234 -304.981894 
L 158.553191 -287.059356 
L 146.834043 -294.835036 
L 135.114894 -319.221163 
L 123.395745 -331.376749 
L 111.676596 -322.300434 
L 99.957447 -344.419917 
L 88.238298 -358.08151 
L 76.519149 -359.101691 
L 64.8 -358.829865 
z
" style="stroke: #ffffff; stroke-opacity: 0.85; stroke-width: 0.3"/>
    </defs>
    <g clip-path="url(#p62f29b5aac)">
     <use xlink:href="#m084bd61457" x="0" y="648" style="fill: #e8a87c; fill-opacity: 0.85; stroke: #ffffff; stroke-opacity: 0.85; stroke-width: 0.3"/>
    </g>
   </g>
   <g id="PolyCollection_10">
    <defs>
     <path id="m8fd0df36ff" d="M 64.8 -355.530411 
L 64.8 -341.121756 
L 76.519149 -335.84175 
L 88.238298 -329.663941 
L 99.957447 -325.277368 
L 111.676596 -268.211786 
L 123.395745 -224.592294 
L 135.114894 -201.484224 
L 146.834043 -197.14933 
L 158.553191 -214.246696 
L 170.27234 -242.305224 
L 181.991489 -268.159015 
L 193.710638 -308.698237 
L 205.429787 -297.08524 
L 217.148936 -283.087516 
L 228.868085 -274.533014 
L 240.587234 -300.129876 
L 252.306383 -299.440425 
L 264.025532 -300.378529 
L 275.744681 -311.561121 
L 287.46383 -308.318075 
L 299.182979 -277.94799 
L 310.902128 -289.684764 
L 322.621277 -264.681298 
L 334.340426 -256.711261 
L 346.059574 -242.462939 
L 357.778723 -239.164297 
L 369.497872 -252.843444 
L 381.217021 -227.03034 
L 392.93617 -215.140571 
L 404.655319 -226.983156 
L 416.374468 -225.71388 
L 428.093617 -215.211986 
L 439.812766 -239.298012 
L 451.531915 -233.350208 
L 463.251064 -282.725294 
L 474.970213 -278.45269 
L 486.689362 -310.626721 
L 498.408511 -317.968206 
L 510.12766 -317.510222 
L 521.846809 -312.536452 
L 533.565957 -323.672362 
L 545.285106 -327.074163 
L 557.004255 -330.730841 
L 568.723404 -330.823638 
L 580.442553 -342.437287 
L 592.161702 -344.471242 
L 603.880851 -351.894644 
L 615.6 -352.260269 
L 615.6 -352.260269 
L 615.6 -352.260269 
L 603.880851 -351.894644 
L 592.161702 -344.471242 
L 580.442553 -342.437287 
L 568.723404 -330.823638 
L 557.004255 -330.730841 
L 545.285106 -327.074163 
L 533.565957 -323.672362 
L 521.846809 -312.536452 
L 510.12766 -317.510222 
L 498.408511 -317.968206 
L 486.689362 -310.626721 
L 474.970213 -278.45269 
L 463.251064 -282.725294 
L 451.531915 -233.350208 
L 439.812766 -243.147297 
L 428.093617 -224.327642 
L 416.374468 -249.33542 
L 404.655319 -237.365084 
L 392.93617 -238.100796 
L 381.217021 -246.400676 
L 369.497872 -257.379675 
L 357.778723 -255.279876 
L 346.059574 -254.668615 
L 334.340426 -261.322989 
L 322.621277 -266.506754 
L 310.902128 -292.068639 
L 299.182979 -286.038147 
L 287.46383 -312.578369 
L 275.744681 -318.924355 
L 264.025532 -302.855696 
L 252.306383 -309.132332 
L 240.587234 -315.070418 
L 228.868085 -284.82311 
L 217.148936 -303.698079 
L 205.429787 -307.017053 
L 193.710638 -327.28064 
L 181.991489 -303.19365 
L 170.27234 -303.921612 
L 158.553191 -287.059356 
L 146.834043 -292.075558 
L 135.114894 -316.917088 
L 123.395745 -325.245677 
L 111.676596 -322.300434 
L 99.957447 -344.419917 
L 88.238298 -357.321755 
L 76.519149 -358.044783 
L 64.8 -355.530411 
z
" style="stroke: #ffffff; stroke-opacity: 0.85; stroke-width: 0.3"/>
    </defs>
    <g clip-path="url(#p62f29b5aac)">
     <use xlink:href="#m8fd0df36ff" x="0" y="648" style="fill: #d4d4d4; fill-opacity: 0.85; stroke: #ffffff; stroke-opacity: 0.85; stroke-width: 0.3"/>
    </g>
   </g>
   <g id="line2d_41">
    <path d="M 64.8 287.573964 
L 615.6 287.573964 
" clip-path="url(#p62f29b5aac)" style="fill: none; stroke: #3d3733; stroke-opacity: 0.5; stroke-width: 0.8; stroke-linecap: square"/>
   </g>
   <g id="text_15">
    <text style="fill: #888888; font: 10px 'ABC Oracle Edu'; text-anchor: start" x="64.8" y="56.525538" transform="rotate(-0 64.8 56.525538)">Difference in time use per hour: parents (child ≤5) minus non-parents, weekdays, employed</text>
   </g>
   <g id="patch_3">
    <path d="M 424.170763 121.886385 
Q 421.233829 122.7254 419.371921 123.257304 
" style="fill: none; stroke: #67a275; stroke-linecap: round"/>
    <path d="M 422.888329 123.916756 
L 419.371921 123.257304 
L 422.009328 120.839849 
" style="fill: none; stroke: #67a275; stroke-linecap: round"/>
   </g>
   <g id="text_16">
    <text style="fill: #67a275; font: 700 8px 'ABC Oracle Edu'" transform="translate(428.093617 110.529465)">Childcare peak</text>
    <text style="fill: #67a275; font: 700 8px 'ABC Oracle Edu'" transform="translate(428.093617 118.809465)">+15 min/hr</text>
   </g>
   <g id="patch_4">
    <path d="M 433.430222 400.613446 
Q 431.758624 400.726983 431.202491 400.764756 
" style="fill: none; stroke: #c5a200; stroke-linecap: round"/>
    <path d="M 434.503559 402.14423 
L 431.202491 400.764756 
L 434.286711 398.951586 
" style="fill: none; stroke: #c5a200; stroke-linecap: round"/>
   </g>
   <g id="text_17">
    <text style="fill: #c5a200; font: 700 8px 'ABC Oracle Edu'" transform="translate(416.374468 398.358037)">TV deficit</text>
    <text style="fill: #c5a200; font: 700 8px 'ABC Oracle Edu'" transform="translate(416.374468 406.638037)">-12 min/hr</text>
   </g>
   <g id="text_18">
    <text style="fill: #3d3733; font: 700 16px 'ABC Oracle Edu'; text-anchor: start" x="64.8" y="34.8" transform="rotate(-0 64.8 34.8)">The parent time swap (2023-2024)</text>
   </g>
   <g id="legend_1">
    <g id="patch_5">
     <path d="M 514.476563 80.955 
L 527.976563 80.955 
L 527.976563 72.9 
L 514.476563 72.9 
z
" style="fill: #67a275; fill-opacity: 0.85; stroke: #ffffff; stroke-opacity: 0.85; stroke-width: 0.3; stroke-linejoin: miter"/>
    </g>
    <g id="text_19">
     <text style="fill: #3d3733; font: 9px 'ABC Oracle Edu'; text-anchor: start" x="535.176563" y="80.01" transform="rotate(-0 535.176563 80.01)">Childcare</text>
    </g>
    <g id="patch_6">
     <path d="M 514.476563 94.32 
L 527.976563 94.32 
L 527.976563 86.265 
L 514.476563 86.265 
z
" style="fill: #dadfce; fill-opacity: 0.85; stroke: #ffffff; stroke-opacity: 0.85; stroke-width: 0.3; stroke-linejoin: miter"/>
    </g>
    <g id="text_20">
     <text style="fill: #3d3733; font: 9px 'ABC Oracle Edu'; text-anchor: start" x="535.176563" y="93.375" transform="rotate(-0 535.176563 93.375)">Housework</text>
    </g>
    <g id="patch_7">
     <path d="M 514.476563 107.685 
L 527.976563 107.685 
L 527.976563 99.63 
L 514.476563 99.63 
z
" style="fill: #999999; fill-opacity: 0.85; stroke: #ffffff; stroke-opacity: 0.85; stroke-width: 0.3; stroke-linejoin: miter"/>
    </g>
    <g id="text_21">
     <text style="fill: #3d3733; font: 9px 'ABC Oracle Edu'; text-anchor: start" x="535.176563" y="106.74" transform="rotate(-0 535.176563 106.74)">Travel</text>
    </g>
    <g id="patch_8">
     <path d="M 514.476563 121.05 
L 527.976563 121.05 
L 527.976563 112.995 
L 514.476563 112.995 
z
" style="fill: #e8a87c; fill-opacity: 0.85; stroke: #ffffff; stroke-opacity: 0.85; stroke-width: 0.3; stroke-linejoin: miter"/>
    </g>
    <g id="text_22">
     <text style="fill: #3d3733; font: 9px 'ABC Oracle Edu'; text-anchor: start" x="535.176563" y="120.105" transform="rotate(-0 535.176563 120.105)">Eating &amp; Drinking</text>
    </g>
    <g id="patch_9">
     <path d="M 514.476563 134.55 
L 527.976563 134.55 
L 527.976563 126.495 
L 514.476563 126.495 
z
" style="fill: #d4d4d4; fill-opacity: 0.85; stroke: #ffffff; stroke-opacity: 0.85; stroke-width: 0.3; stroke-linejoin: miter"/>
    </g>
    <g id="text_23">
     <text style="fill: #3d3733; font: 9px 'ABC Oracle Edu'; text-anchor: start" x="535.176563" y="133.605" transform="rotate(-0 535.176563 133.605)">Sleep</text>
    </g>
    <g id="patch_10">
     <path d="M 514.476563 147.915 
L 527.976563 147.915 
L 527.976563 139.86 
L 514.476563 139.86 
z
" style="fill: #fec439; fill-opacity: 0.85; stroke: #ffffff; stroke-opacity: 0.85; stroke-width: 0.3; stroke-linejoin: miter"/>
    </g>
    <g id="text_24">
     <text style="fill: #3d3733; font: 9px 'ABC Oracle Edu'; text-anchor: start" x="535.176563" y="146.97" transform="rotate(-0 535.176563 146.97)">TV &amp; Leisure</text>
    </g>
    <g id="patch_11">
     <path d="M 514.476563 161.28 
L 527.976563 161.28 
L 527.976563 153.225 
L 514.476563 153.225 
z
" style="fill: #0bb4ff; fill-opacity: 0.85; stroke: #ffffff; stroke-opacity: 0.85; stroke-width: 0.3; stroke-linejoin: miter"/>
    </g>
    <g id="text_25">
     <text style="fill: #3d3733; font: 9px 'ABC Oracle Edu'; text-anchor: start" x="535.176563" y="160.335" transform="rotate(-0 535.176563 160.335)">Work</text>
    </g>
   </g>
  </g>
  <g id="axes_2">
   <g id="patch_12">
    <path d="M 64.8 602.64 
L 615.6 602.64 
L 615.6 499.209231 
L 64.8 499.209231 
z
" style="fill: #f6f7f3"/>
   </g>
   <g id="matplotlib.axis_3">
    <g id="xtick_13">
     <g id="line2d_42">
      <defs>
       <path id="m3da4828cdd" d="M 0 0 
L 0 3 
" style="stroke: #999999; stroke-width: 0.8"/>
      </defs>
      <g>
       <use xlink:href="#m3da4828cdd" x="64.8" y="602.64" style="fill: #999999; stroke: #999999; stroke-width: 0.8"/>
      </g>
     </g>
     <g id="text_26">
      <text style="font: 9px 'ABC Oracle Edu'; text-anchor: middle" x="64.8" y="615.44" transform="rotate(-0 64.8 615.44)">4AM</text>
     </g>
    </g>
    <g id="xtick_14">
     <g id="line2d_43">
      <g>
       <use xlink:href="#m3da4828cdd" x="111.676596" y="602.64" style="fill: #999999; stroke: #999999; stroke-width: 0.8"/>
      </g>
     </g>
     <g id="text_27">
      <text style="font: 9px 'ABC Oracle Edu'; text-anchor: middle" x="111.676596" y="615.44" transform="rotate(-0 111.676596 615.44)">6AM</text>
     </g>
    </g>
    <g id="xtick_15">
     <g id="line2d_44">
      <g>
       <use xlink:href="#m3da4828cdd" x="158.553191" y="602.64" style="fill: #999999; stroke: #999999; stroke-width: 0.8"/>
      </g>
     </g>
     <g id="text_28">
      <text style="font: 9px 'ABC Oracle Edu'; text-anchor: middle" x="158.553191" y="615.44" transform="rotate(-0 158.553191 615.44)">8AM</text>
     </g>
    </g>
    <g id="xtick_16">
     <g id="line2d_45">
      <g>
       <use xlink:href="#m3da4828cdd" x="205.429787" y="602.64" style="fill: #999999; stroke: #999999; stroke-width: 0.8"/>
      </g>
     </g>
     <g id="text_29">
      <text style="font: 9px 'ABC Oracle Edu'; text-anchor: middle" x="205.429787" y="615.44" transform="rotate(-0 205.429787 615.44)">10AM</text>
     </g>
    </g>
    <g id="xtick_17">
     <g id="line2d_46">
      <g>
       <use xlink:href="#m3da4828cdd" x="252.306383" y="602.64" style="fill: #999999; stroke: #999999; stroke-width: 0.8"/>
      </g>
     </g>
     <g id="text_30">
      <text style="font: 9px 'ABC Oracle Edu'; text-anchor: middle" x="252.306383" y="615.44" transform="rotate(-0 252.306383 615.44)">12PM</text>
     </g>
    </g>
    <g id="xtick_18">
     <g id="line2d_47">
      <g>
       <use xlink:href="#m3da4828cdd" x="299.182979" y="602.64" style="fill: #999999; stroke: #999999; stroke-width: 0.8"/>
      </g>
     </g>
     <g id="text_31">
      <text style="font: 9px 'ABC Oracle Edu'; text-anchor: middle" x="299.182979" y="615.44" transform="rotate(-0 299.182979 615.44)">2PM</text>
     </g>
    </g>
    <g id="xtick_19">
     <g id="line2d_48">
      <g>
       <use xlink:href="#m3da4828cdd" x="346.059574" y="602.64" style="fill: #999999; stroke: #999999; stroke-width: 0.8"/>
      </g>
     </g>
     <g id="text_32">
      <text style="font: 9px 'ABC Oracle Edu'; text-anchor: middle" x="346.059574" y="615.44" transform="rotate(-0 346.059574 615.44)">4PM</text>
     </g>
    </g>
    <g id="xtick_20">
     <g id="line2d_49">
      <g>
       <use xlink:href="#m3da4828cdd" x="392.93617" y="602.64" style="fill: #999999; stroke: #999999; stroke-width: 0.8"/>
      </g>
     </g>
     <g id="text_33">
      <text style="font: 9px 'ABC Oracle Edu'; text-anchor: middle" x="392.93617" y="615.44" transform="rotate(-0 392.93617 615.44)">6PM</text>
     </g>
    </g>
    <g id="xtick_21">
     <g id="line2d_50">
      <g>
       <use xlink:href="#m3da4828cdd" x="439.812766" y="602.64" style="fill: #999999; stroke: #999999; stroke-width: 0.8"/>
      </g>
     </g>
     <g id="text_34">
      <text style="font: 9px 'ABC Oracle Edu'; text-anchor: middle" x="439.812766" y="615.44" transform="rotate(-0 439.812766 615.44)">8PM</text>
     </g>
    </g>
    <g id="xtick_22">
     <g id="line2d_51">
      <g>
       <use xlink:href="#m3da4828cdd" x="486.689362" y="602.64" style="fill: #999999; stroke: #999999; stroke-width: 0.8"/>
      </g>
     </g>
     <g id="text_35">
      <text style="font: 9px 'ABC Oracle Edu'; text-anchor: middle" x="486.689362" y="615.44" transform="rotate(-0 486.689362 615.44)">10PM</text>
     </g>
    </g>
    <g id="xtick_23">
     <g id="line2d_52">
      <g>
       <use xlink:href="#m3da4828cdd" x="533.565957" y="602.64" style="fill: #999999; stroke: #999999; stroke-width: 0.8"/>
      </g>
     </g>
     <g id="text_36">
      <text style="font: 9px 'ABC Oracle Edu'; text-anchor: middle" x="533.565957" y="615.44" transform="rotate(-0 533.565957 615.44)">12AM</text>
     </g>
    </g>
    <g id="xtick_24">
     <g id="line2d_53">
      <g>
       <use xlink:href="#m3da4828cdd" x="580.442553" y="602.64" style="fill: #999999; stroke: #999999; stroke-width: 0.8"/>
      </g>
     </g>
     <g id="text_37">
      <text style="font: 9px 'ABC Oracle Edu'; text-anchor: middle" x="580.442553" y="615.44" transform="rotate(-0 580.442553 615.44)">2AM</text>
     </g>
    </g>
   </g>
   <g id="matplotlib.axis_4">
    <g id="ytick_15">
     <g id="line2d_54">
      <path d="M 64.8 602.64 
L 615.6 602.64 
" clip-path="url(#p4d729ead30)" style="fill: none; stroke: #999999; stroke-opacity: 0.2; stroke-width: 0.5; stroke-linecap: square"/>
     </g>
     <g id="line2d_55"/>
     <g id="text_38">
      <text style="fill: #3d3733; font: 8px 'ABC Oracle Edu'; text-anchor: end" x="61.3" y="605.44" transform="rotate(-0 61.3 605.44)">-50 min</text>
     </g>
    </g>
    <g id="ytick_16">
     <g id="line2d_56">
      <path d="M 64.8 499.209231 
L 615.6 499.209231 
" clip-path="url(#p4d729ead30)" style="fill: none; stroke: #999999; stroke-opacity: 0.2; stroke-width: 0.5; stroke-linecap: square"/>
     </g>
     <g id="line2d_57"/>
     <g id="text_39">
      <text style="fill: #3d3733; font: 8px 'ABC Oracle Edu'; text-anchor: end" x="61.3" y="502.009231" transform="rotate(-0 61.3 502.009231)">0</text>
     </g>
    </g>
    <g id="ytick_17">
     <g id="line2d_58">
      <path d="M 64.8 499.209231 
L 615.6 499.209231 
" clip-path="url(#p4d729ead30)" style="fill: none; stroke: #999999; stroke-opacity: 0.2; stroke-width: 0.5; stroke-linecap: square"/>
     </g>
     <g id="line2d_59"/>
     <g id="text_40">
      <text style="fill: #3d3733; font: 8px 'ABC Oracle Edu'; text-anchor: end" x="61.3" y="502.009231" transform="rotate(-0 61.3 502.009231)">0</text>
     </g>
    </g>
    <g id="text_41">
     <text style="fill: #888888; font: 8px 'ABC Oracle Edu'" transform="translate(-37.864375 548.737115)">Cumulative</text>
     <text style="fill: #888888; font: 8px 'ABC Oracle Edu'" transform="translate(-39.944375 557.152115)">sleep deficit</text>
    </g>
   </g>
   <g id="patch_13">
    <path d="M 63.042128 499.209231 
L 66.557872 499.209231 
L 66.557872 500.614075 
L 63.042128 500.614075 
z
" clip-path="url(#p4d729ead30)" style="fill: #d4d4d4; opacity: 0.6"/>
   </g>
   <g id="patch_14">
    <path d="M 74.761277 499.209231 
L 78.277021 499.209231 
L 78.277021 502.77887 
L 74.761277 502.77887 
z
" clip-path="url(#p4d729ead30)" style="fill: #d4d4d4; opacity: 0.6"/>
   </g>
   <g id="patch_15">
    <path d="M 86.480426 499.209231 
L 89.99617 499.209231 
L 89.99617 505.475507 
L 86.480426 505.475507 
z
" clip-path="url(#p4d729ead30)" style="fill: #d4d4d4; opacity: 0.6"/>
   </g>
   <g id="patch_16">
    <path d="M 98.199574 499.209231 
L 101.715319 499.209231 
L 101.715319 507.341906 
L 98.199574 507.341906 
z
" clip-path="url(#p4d729ead30)" style="fill: #d4d4d4; opacity: 0.6"/>
   </g>
   <g id="patch_17">
    <path d="M 109.918723 499.209231 
L 113.434468 499.209231 
L 113.434468 512.615549 
L 109.918723 512.615549 
z
" clip-path="url(#p4d729ead30)" style="fill: #d4d4d4; opacity: 0.6"/>
   </g>
   <g id="patch_18">
    <path d="M 121.637872 499.209231 
L 125.153617 499.209231 
L 125.153617 522.429254 
L 121.637872 522.429254 
z
" clip-path="url(#p4d729ead30)" style="fill: #d4d4d4; opacity: 0.6"/>
   </g>
   <g id="patch_19">
    <path d="M 133.357021 499.209231 
L 136.872766 499.209231 
L 136.872766 533.683958 
L 133.357021 533.683958 
z
" clip-path="url(#p4d729ead30)" style="fill: #d4d4d4; opacity: 0.6"/>
   </g>
   <g id="patch_20">
    <path d="M 145.07617 499.209231 
L 148.591915 499.209231 
L 148.591915 542.939265 
L 145.07617 542.939265 
z
" clip-path="url(#p4d729ead30)" style="fill: #d4d4d4; opacity: 0.6"/>
   </g>
   <g id="patch_21">
    <path d="M 156.795319 499.209231 
L 160.311064 499.209231 
L 160.311064 550.038499 
L 156.795319 550.038499 
z
" clip-path="url(#p4d729ead30)" style="fill: #d4d4d4; opacity: 0.6"/>
   </g>
   <g id="patch_22">
    <path d="M 168.514468 499.209231 
L 172.030213 499.209231 
L 172.030213 556.046097 
L 168.514468 556.046097 
z
" clip-path="url(#p4d729ead30)" style="fill: #d4d4d4; opacity: 0.6"/>
   </g>
   <g id="patch_23">
    <path d="M 180.233617 499.209231 
L 183.749362 499.209231 
L 183.749362 559.461974 
L 180.233617 559.461974 
z
" clip-path="url(#p4d729ead30)" style="fill: #d4d4d4; opacity: 0.6"/>
   </g>
   <g id="patch_24">
    <path d="M 191.952766 499.209231 
L 195.468511 499.209231 
L 195.468511 561.273759 
L 191.952766 561.273759 
z
" clip-path="url(#p4d729ead30)" style="fill: #d4d4d4; opacity: 0.6"/>
   </g>
   <g id="patch_25">
    <path d="M 203.671915 499.209231 
L 207.18766 499.209231 
L 207.18766 562.24211 
L 203.671915 562.24211 
z
" clip-path="url(#p4d729ead30)" style="fill: #d4d4d4; opacity: 0.6"/>
   </g>
   <g id="patch_26">
    <path d="M 215.391064 499.209231 
L 218.906809 499.209231 
L 218.906809 564.25164 
L 215.391064 564.25164 
z
" clip-path="url(#p4d729ead30)" style="fill: #d4d4d4; opacity: 0.6"/>
   </g>
   <g id="patch_27">
    <path d="M 227.110213 499.209231 
L 230.625957 499.209231 
L 230.625957 565.254925 
L 227.110213 565.254925 
z
" clip-path="url(#p4d729ead30)" style="fill: #d4d4d4; opacity: 0.6"/>
   </g>
   <g id="patch_28">
    <path d="M 238.829362 499.209231 
L 242.345106 499.209231 
L 242.345106 566.711627 
L 238.829362 566.711627 
z
" clip-path="url(#p4d729ead30)" style="fill: #d4d4d4; opacity: 0.6"/>
   </g>
   <g id="patch_29">
    <path d="M 250.548511 499.209231 
L 254.064255 499.209231 
L 254.064255 567.656588 
L 250.548511 567.656588 
z
" clip-path="url(#p4d729ead30)" style="fill: #d4d4d4; opacity: 0.6"/>
   </g>
   <g id="patch_30">
    <path d="M 262.26766 499.209231 
L 265.783404 499.209231 
L 265.783404 567.898112 
L 262.26766 567.898112 
z
" clip-path="url(#p4d729ead30)" style="fill: #d4d4d4; opacity: 0.6"/>
   </g>
   <g id="patch_31">
    <path d="M 273.986809 499.209231 
L 277.502553 499.209231 
L 277.502553 568.616027 
L 273.986809 568.616027 
z
" clip-path="url(#p4d729ead30)" style="fill: #d4d4d4; opacity: 0.6"/>
   </g>
   <g id="patch_32">
    <path d="M 285.705957 499.209231 
L 289.221702 499.209231 
L 289.221702 569.031406 
L 285.705957 569.031406 
z
" clip-path="url(#p4d729ead30)" style="fill: #d4d4d4; opacity: 0.6"/>
   </g>
   <g id="patch_33">
    <path d="M 297.425106 499.209231 
L 300.940851 499.209231 
L 300.940851 569.820196 
L 297.425106 569.820196 
z
" clip-path="url(#p4d729ead30)" style="fill: #d4d4d4; opacity: 0.6"/>
   </g>
   <g id="patch_34">
    <path d="M 309.144255 499.209231 
L 312.66 499.209231 
L 312.66 570.052624 
L 309.144255 570.052624 
z
" clip-path="url(#p4d729ead30)" style="fill: #d4d4d4; opacity: 0.6"/>
   </g>
   <g id="patch_35">
    <path d="M 320.863404 499.209231 
L 324.379149 499.209231 
L 324.379149 570.230606 
L 320.863404 570.230606 
z
" clip-path="url(#p4d729ead30)" style="fill: #d4d4d4; opacity: 0.6"/>
   </g>
   <g id="patch_36">
    <path d="M 332.582553 499.209231 
L 336.098298 499.209231 
L 336.098298 570.680249 
L 332.582553 570.680249 
z
" clip-path="url(#p4d729ead30)" style="fill: #d4d4d4; opacity: 0.6"/>
   </g>
   <g id="patch_37">
    <path d="M 344.301702 499.209231 
L 347.817447 499.209231 
L 347.817447 571.870303 
L 344.301702 571.870303 
z
" clip-path="url(#p4d729ead30)" style="fill: #d4d4d4; opacity: 0.6"/>
   </g>
   <g id="patch_38">
    <path d="M 356.020851 499.209231 
L 359.536596 499.209231 
L 359.536596 573.441572 
L 356.020851 573.441572 
z
" clip-path="url(#p4d729ead30)" style="fill: #d4d4d4; opacity: 0.6"/>
   </g>
   <g id="patch_39">
    <path d="M 367.74 499.209231 
L 371.255745 499.209231 
L 371.255745 573.883854 
L 367.74 573.883854 
z
" clip-path="url(#p4d729ead30)" style="fill: #d4d4d4; opacity: 0.6"/>
   </g>
   <g id="patch_40">
    <path d="M 379.459149 499.209231 
L 382.974894 499.209231 
L 382.974894 575.772462 
L 379.459149 575.772462 
z
" clip-path="url(#p4d729ead30)" style="fill: #d4d4d4; opacity: 0.6"/>
   </g>
   <g id="patch_41">
    <path d="M 391.178298 499.209231 
L 394.694043 499.209231 
L 394.694043 578.011084 
L 391.178298 578.011084 
z
" clip-path="url(#p4d729ead30)" style="fill: #d4d4d4; opacity: 0.6"/>
   </g>
   <g id="patch_42">
    <path d="M 402.897447 499.209231 
L 406.413191 499.209231 
L 406.413191 579.023322 
L 402.897447 579.023322 
z
" clip-path="url(#p4d729ead30)" style="fill: #d4d4d4; opacity: 0.6"/>
   </g>
   <g id="patch_43">
    <path d="M 414.616596 499.209231 
L 418.13234 499.209231 
L 418.13234 581.326422 
L 414.616596 581.326422 
z
" clip-path="url(#p4d729ead30)" style="fill: #d4d4d4; opacity: 0.6"/>
   </g>
   <g id="patch_44">
    <path d="M 426.335745 499.209231 
L 429.851489 499.209231 
L 429.851489 582.215199 
L 426.335745 582.215199 
z
" clip-path="url(#p4d729ead30)" style="fill: #d4d4d4; opacity: 0.6"/>
   </g>
   <g id="patch_45">
    <path d="M 438.054894 499.209231 
L 441.570638 499.209231 
L 441.570638 582.590504 
L 438.054894 582.590504 
z
" clip-path="url(#p4d729ead30)" style="fill: #d4d4d4; opacity: 0.6"/>
   </g>
   <g id="patch_46">
    <path d="M 449.774043 499.209231 
L 453.289787 499.209231 
L 453.289787 581.394746 
L 449.774043 581.394746 
z
" clip-path="url(#p4d729ead30)" style="fill: #d4d4d4; opacity: 0.6"/>
   </g>
   <g id="patch_47">
    <path d="M 461.493191 499.209231 
L 465.008936 499.209231 
L 465.008936 579.661519 
L 461.493191 579.661519 
z
" clip-path="url(#p4d729ead30)" style="fill: #d4d4d4; opacity: 0.6"/>
   </g>
   <g id="patch_48">
    <path d="M 473.21234 499.209231 
L 476.728085 499.209231 
L 476.728085 576.117851 
L 473.21234 576.117851 
z
" clip-path="url(#p4d729ead30)" style="fill: #d4d4d4; opacity: 0.6"/>
   </g>
   <g id="patch_49">
    <path d="M 484.931489 499.209231 
L 488.447234 499.209231 
L 488.447234 572.712126 
L 484.931489 572.712126 
z
" clip-path="url(#p4d729ead30)" style="fill: #d4d4d4; opacity: 0.6"/>
   </g>
   <g id="patch_50">
    <path d="M 496.650638 499.209231 
L 500.166383 499.209231 
L 500.166383 570.229154 
L 496.650638 570.229154 
z
" clip-path="url(#p4d729ead30)" style="fill: #d4d4d4; opacity: 0.6"/>
   </g>
   <g id="patch_51">
    <path d="M 508.369787 499.209231 
L 511.885532 499.209231 
L 511.885532 565.724187 
L 508.369787 565.724187 
z
" clip-path="url(#p4d729ead30)" style="fill: #d4d4d4; opacity: 0.6"/>
   </g>
   <g id="patch_52">
    <path d="M 520.088936 499.209231 
L 523.604681 499.209231 
L 523.604681 561.209464 
L 520.088936 561.209464 
z
" clip-path="url(#p4d729ead30)" style="fill: #d4d4d4; opacity: 0.6"/>
   </g>
   <g id="patch_53">
    <path d="M 531.808085 499.209231 
L 535.32383 499.209231 
L 535.32383 557.60329 
L 531.808085 557.60329 
z
" clip-path="url(#p4d729ead30)" style="fill: #d4d4d4; opacity: 0.6"/>
   </g>
   <g id="patch_54">
    <path d="M 543.527234 499.209231 
L 547.042979 499.209231 
L 547.042979 554.311249 
L 543.527234 554.311249 
z
" clip-path="url(#p4d729ead30)" style="fill: #d4d4d4; opacity: 0.6"/>
   </g>
   <g id="patch_55">
    <path d="M 555.246383 499.209231 
L 558.762128 499.209231 
L 558.762128 552.175043 
L 555.246383 552.175043 
z
" clip-path="url(#p4d729ead30)" style="fill: #d4d4d4; opacity: 0.6"/>
   </g>
   <g id="patch_56">
    <path d="M 566.965532 499.209231 
L 570.481277 499.209231 
L 570.481277 549.371379 
L 566.965532 549.371379 
z
" clip-path="url(#p4d729ead30)" style="fill: #d4d4d4; opacity: 0.6"/>
   </g>
   <g id="patch_57">
    <path d="M 578.684681 499.209231 
L 582.200426 499.209231 
L 582.200426 548.078657 
L 578.684681 548.078657 
z
" clip-path="url(#p4d729ead30)" style="fill: #d4d4d4; opacity: 0.6"/>
   </g>
   <g id="patch_58">
    <path d="M 590.40383 499.209231 
L 593.919574 499.209231 
L 593.919574 546.963493 
L 590.40383 546.963493 
z
" clip-path="url(#p4d729ead30)" style="fill: #d4d4d4; opacity: 0.6"/>
   </g>
   <g id="patch_59">
    <path d="M 602.122979 499.209231 
L 605.638723 499.209231 
L 605.638723 546.459043 
L 602.122979 546.459043 
z
" clip-path="url(#p4d729ead30)" style="fill: #d4d4d4; opacity: 0.6"/>
   </g>
   <g id="patch_60">
    <path d="M 613.842128 499.209231 
L 617.357872 499.209231 
L 617.357872 545.984044 
L 613.842128 545.984044 
z
" clip-path="url(#p4d729ead30)" style="fill: #d4d4d4; opacity: 0.6"/>
   </g>
   <g id="line2d_60">
    <path d="M 64.8 499.209231 
L 615.6 499.209231 
" clip-path="url(#p4d729ead30)" style="fill: none; stroke: #3d3733; stroke-opacity: 0.3; stroke-width: 0.5; stroke-linecap: square"/>
   </g>
   <g id="patch_61">
    <path d="M 606.020089 553.046273 
Q 610.004312 550.109138 613.088606 547.835423 
" style="fill: none; stroke: #3d3733; stroke-linecap: round"/>
    <path d="M 609.122802 548.522737 
L 613.088606 547.835423 
L 611.258975 551.420454 
" style="fill: none; stroke: #3d3733; stroke-linecap: round"/>
   </g>
   <g id="text_42">
    <text style="fill: #3d3733; font: 700 9px 'ABC Oracle Edu'; text-anchor: start" x="580.442553" y="562.532967" transform="rotate(-0 580.442553 562.532967)">-23 min</text>
   </g>
  </g>
  <g id="text_43">
   <text style="fill: #999999; font: italic 7px 'ABC Oracle Edu'; text-anchor: start" x="32.4" y="635.04" transform="rotate(-0 32.4 635.04)">Source: ATUS 2023-2024, ages 25-54, weekdays, employed (n=659 parents, 1,427 non-parents)</text>
  </g>
 </g>
 <defs>
  <clipPath id="p62f29b5aac">
   <rect x="64.8" y="64.8" width="550.8" height="413.723077"/>
  </clipPath>
  <clipPath id="p4d729ead30">
   <rect x="64.8" y="499.209231" width="550.8" height="103.430769"/>
  </clipPath>
 </defs>
</svg>
