<?xml version="1.0" encoding="utf-8" standalone="no"?>
<!DOCTYPE svg PUBLIC "-//W3C//DTD SVG 1.1//EN"
  "http://www.w3.org/Graphics/SVG/1.1/DTD/svg11.dtd">
<svg xmlns:xlink="http://www.w3.org/1999/xlink" width="609.769014pt" height="516.324pt" viewBox="0 0 609.769014 516.324" xmlns="http://www.w3.org/2000/svg" version="1.1">
 <metadata>
  <rdf:RDF xmlns:dc="http://purl.org/dc/elements/1.1/" xmlns:cc="http://creativecommons.org/ns#" xmlns:rdf="http://www.w3.org/1999/02/22-rdf-syntax-ns#">
   <cc:Work>
    <dc:type rdf:resource="http://purl.org/dc/dcmitype/StillImage"/>
    <dc:date>2026-02-09T16:56:34.588462</dc:date>
    <dc:format>image/svg+xml</dc:format>
    <dc:creator>
     <cc:Agent>
      <dc:title>Matplotlib v3.9.4, https://matplotlib.org/</dc:title>
     </cc:Agent>
    </dc:creator>
   </cc:Work>
  </rdf:RDF>
 </metadata>
 <defs>
  <style type="text/css">*{stroke-linejoin: round; stroke-linecap: butt}</style>
 </defs>
 <g id="figure_1">
  <g id="patch_1">
   <path d="M 0 516.324 
L 609.769014 516.324 
L 609.769014 0 
L 0 0 
z
" style="fill: #f6f7f3"/>
  </g>
  <g id="axes_1">
   <g id="patch_2">
    <path d="M 29.16507 430.98393 
L 300.275099 430.98393 
L 300.275099 237.696005 
L 29.16507 237.696005 
z
" clip-path="url(#pd03d0992b4)" style="fill: #fec43a; stroke: #f6f7f3; stroke-width: 1.5; stroke-linejoin: miter"/>
   </g>
   <g id="patch_3">
    <path d="M 306.05538 430.98393 
L 310.937115 430.98393 
L 310.937115 237.696005 
L 306.05538 237.696005 
z
" clip-path="url(#pd03d0992b4)" style="fill: #b3d0ba; stroke: #f6f7f3; stroke-width: 1.5; stroke-linejoin: miter"/>
   </g>
   <g id="patch_4">
    <path d="M 29.16507 211.106709 
L 298.960977 211.106709 
L 298.960977 64.51407 
L 29.16507 64.51407 
z
" clip-path="url(#pd03d0992b4)" style="fill: #fac2aa; stroke: #f6f7f3; stroke-width: 1.5; stroke-linejoin: miter"/>
   </g>
   <g id="patch_5">
    <path d="M 304.741259 211.106709 
L 310.937115 211.106709 
L 310.937115 66.122142 
L 304.741259 66.122142 
z
" clip-path="url(#pd03d0992b4)" style="fill: #bad5c1; stroke: #f6f7f3; stroke-width: 1.5; stroke-linejoin: miter"/>
   </g>
   <g id="patch_6">
    <path d="M 304.741259 60.34186 
L 310.937115 60.34186 
L 310.937115 58.733789 
L 304.741259 58.733789 
z
" clip-path="url(#pd03d0992b4)" style="fill: #8cb997; stroke: #f6f7f3; stroke-width: 1.5; stroke-linejoin: miter"/>
   </g>
   <g id="patch_7">
    <path d="M 331.746129 430.98393 
L 396.67095 430.98393 
L 396.67095 333.593311 
L 331.746129 333.593311 
z
" clip-path="url(#pd03d0992b4)" style="fill: #fcc882; stroke: #f6f7f3; stroke-width: 1.5; stroke-linejoin: miter"/>
   </g>
   <g id="patch_8">
    <path d="M 408.231513 430.98393 
L 470.390872 430.98393 
L 470.390872 333.593311 
L 408.231513 333.593311 
z
" clip-path="url(#pd03d0992b4)" style="fill: #dfd18a; stroke: #f6f7f3; stroke-width: 1.5; stroke-linejoin: miter"/>
   </g>
   <g id="patch_9">
    <path d="M 331.746129 322.032747 
L 359.110584 322.032747 
L 359.110584 283.070775 
L 331.746129 283.070775 
z
" clip-path="url(#pd03d0992b4)" style="fill: #e1d083; stroke: #f6f7f3; stroke-width: 1.5; stroke-linejoin: miter"/>
   </g>
   <g id="patch_10">
    <path d="M 370.671147 322.032747 
L 396.816463 322.032747 
L 396.816463 283.070775 
L 370.671147 283.070775 
z
" clip-path="url(#pd03d0992b4)" style="fill: #fcc99d; stroke: #f6f7f3; stroke-width: 1.5; stroke-linejoin: miter"/>
   </g>
   <g id="patch_11">
    <path d="M 408.377026 322.032747 
L 427.257411 322.032747 
L 427.257411 283.070775 
L 408.377026 283.070775 
z
" clip-path="url(#pd03d0992b4)" style="fill: #fdc65f; stroke: #f6f7f3; stroke-width: 1.5; stroke-linejoin: miter"/>
   </g>
   <g id="patch_12">
    <path d="M 438.817975 322.032747 
L 470.390872 322.032747 
L 470.390872 303.942608 
L 438.817975 303.942608 
z
" clip-path="url(#pd03d0992b4)" style="fill: #c0d9c6; stroke: #f6f7f3; stroke-width: 1.5; stroke-linejoin: miter"/>
   </g>
   <g id="patch_13">
    <path d="M 438.817975 292.382044 
L 470.390872 292.382044 
L 470.390872 283.070775 
L 438.817975 283.070775 
z
" clip-path="url(#pd03d0992b4)" style="fill: #dfd18a; stroke: #f6f7f3; stroke-width: 1.5; stroke-linejoin: miter"/>
   </g>
   <g id="patch_14">
    <path d="M 496.980167 430.98393 
L 538.909934 430.98393 
L 538.909934 361.255941 
L 496.980167 361.255941 
z
" clip-path="url(#pd03d0992b4)" style="fill: #fac2aa; stroke: #f6f7f3; stroke-width: 1.5; stroke-linejoin: miter"/>
   </g>
   <g id="patch_15">
    <path d="M 550.470497 430.98393 
L 580.603944 430.98393 
L 580.603944 361.255941 
L 550.470497 361.255941 
z
" clip-path="url(#pd03d0992b4)" style="fill: #fdc774; stroke: #f6f7f3; stroke-width: 1.5; stroke-linejoin: miter"/>
   </g>
   <g id="patch_16">
    <path d="M 496.980167 349.695378 
L 545.835878 349.695378 
L 545.835878 312.693015 
L 496.980167 312.693015 
z
" clip-path="url(#pd03d0992b4)" style="fill: #fbcab5; stroke: #f6f7f3; stroke-width: 1.5; stroke-linejoin: miter"/>
   </g>
   <g id="patch_17">
    <path d="M 496.980167 301.132452 
L 545.835878 301.132452 
L 545.835878 283.070775 
L 496.980167 283.070775 
z
" clip-path="url(#pd03d0992b4)" style="fill: #fdc555; stroke: #f6f7f3; stroke-width: 1.5; stroke-linejoin: miter"/>
   </g>
   <g id="patch_18">
    <path d="M 557.396441 349.695378 
L 580.603944 349.695378 
L 580.603944 318.773765 
L 557.396441 318.773765 
z
" clip-path="url(#pd03d0992b4)" style="fill: #dad498; stroke: #f6f7f3; stroke-width: 1.5; stroke-linejoin: miter"/>
   </g>
   <g id="patch_19">
    <path d="M 557.396441 307.213202 
L 580.603944 307.213202 
L 580.603944 283.070775 
L 557.396441 283.070775 
z
" clip-path="url(#pd03d0992b4)" style="fill: #fcc77a; stroke: #f6f7f3; stroke-width: 1.5; stroke-linejoin: miter"/>
   </g>
   <g id="patch_20">
    <path d="M 331.746129 256.481479 
L 445.770788 256.481479 
L 445.770788 158.209343 
L 331.746129 158.209343 
z
" clip-path="url(#pd03d0992b4)" style="fill: #c5dbca; stroke: #f6f7f3; stroke-width: 1.5; stroke-linejoin: miter"/>
   </g>
   <g id="patch_21">
    <path d="M 451.551069 256.481479 
L 451.927089 256.481479 
L 451.927089 158.209343 
L 451.551069 158.209343 
z
" clip-path="url(#pd03d0992b4)" style="fill: #fdc663; stroke: #f6f7f3; stroke-width: 1.5; stroke-linejoin: miter"/>
   </g>
   <g id="patch_22">
    <path d="M 331.746129 131.620047 
L 414.824112 131.620047 
L 414.824112 64.51407 
L 331.746129 64.51407 
z
" clip-path="url(#pd03d0992b4)" style="fill: #95be9f; stroke: #f6f7f3; stroke-width: 1.5; stroke-linejoin: miter"/>
   </g>
   <g id="patch_23">
    <path d="M 426.384675 131.620047 
L 446.146807 131.620047 
L 446.146807 87.562605 
L 426.384675 87.562605 
z
" clip-path="url(#pd03d0992b4)" style="fill: #a3c6ab; stroke: #f6f7f3; stroke-width: 1.5; stroke-linejoin: miter"/>
   </g>
   <g id="patch_24">
    <path d="M 426.384675 76.002042 
L 446.146807 76.002042 
L 446.146807 64.51407 
L 426.384675 64.51407 
z
" clip-path="url(#pd03d0992b4)" style="fill: #8cb997; stroke: #f6f7f3; stroke-width: 1.5; stroke-linejoin: miter"/>
   </g>
   <g id="patch_25">
    <path d="M 472.736103 256.481479 
L 564.940452 256.481479 
L 564.940452 204.888168 
L 472.736103 204.888168 
z
" clip-path="url(#pd03d0992b4)" style="fill: #a0c5a8; stroke: #f6f7f3; stroke-width: 1.5; stroke-linejoin: miter"/>
   </g>
   <g id="patch_26">
    <path d="M 576.501016 256.481479 
L 580.603944 256.481479 
L 580.603944 204.888168 
L 576.501016 204.888168 
z
" clip-path="url(#pd03d0992b4)" style="fill: #98c0a2; stroke: #f6f7f3; stroke-width: 1.5; stroke-linejoin: miter"/>
   </g>
   <g id="patch_27">
    <path d="M 472.736103 178.298872 
L 521.240692 178.298872 
L 521.240692 126.603151 
L 472.736103 126.603151 
z
" clip-path="url(#pd03d0992b4)" style="fill: #fdc66d; stroke: #f6f7f3; stroke-width: 1.5; stroke-linejoin: miter"/>
   </g>
   <g id="patch_28">
    <path d="M 472.736103 120.822869 
L 521.240692 120.822869 
L 521.240692 120.691998 
L 472.736103 120.691998 
z
" clip-path="url(#pd03d0992b4)" style="fill: #f4743b; stroke: #f6f7f3; stroke-width: 1.5; stroke-linejoin: miter"/>
   </g>
   <g id="patch_29">
    <path d="M 547.829987 178.298872 
L 580.603944 178.298872 
L 580.603944 130.874399 
L 547.829987 130.874399 
z
" clip-path="url(#pd03d0992b4)" style="fill: #a6c8ae; stroke: #f6f7f3; stroke-width: 1.5; stroke-linejoin: miter"/>
   </g>
   <g id="patch_30">
    <path d="M 547.829987 125.094117 
L 580.603944 125.094117 
L 580.603944 120.691998 
L 547.829987 120.691998 
z
" clip-path="url(#pd03d0992b4)" style="fill: #adcdb4; stroke: #f6f7f3; stroke-width: 1.5; stroke-linejoin: miter"/>
   </g>
   <g id="patch_31">
    <path d="M 472.736103 99.882984 
L 480.907768 99.882984 
L 480.907768 64.645438 
L 472.736103 64.645438 
z
" clip-path="url(#pd03d0992b4)" style="fill: #86b591; stroke: #f6f7f3; stroke-width: 1.5; stroke-linejoin: miter"/>
   </g>
   <g id="patch_32">
    <path d="M 472.736103 58.865157 
L 480.907768 58.865157 
L 480.907768 58.733789 
L 472.736103 58.733789 
z
" clip-path="url(#pd03d0992b4)" style="fill: #67a275; stroke: #f6f7f3; stroke-width: 1.5; stroke-linejoin: miter"/>
   </g>
   <g id="patch_33">
    <path d="M 507.497063 99.882984 
L 514.501419 99.882984 
L 514.501419 84.107913 
L 507.497063 84.107913 
z
" clip-path="url(#pd03d0992b4)" style="fill: #b6d2bc; stroke: #f6f7f3; stroke-width: 1.5; stroke-linejoin: miter"/>
   </g>
   <g id="patch_34">
    <path d="M 507.497063 72.54735 
L 514.501419 72.54735 
L 514.501419 64.51407 
L 507.497063 64.51407 
z
" clip-path="url(#pd03d0992b4)" style="fill: #a9cab0; stroke: #f6f7f3; stroke-width: 1.5; stroke-linejoin: miter"/>
   </g>
   <g id="patch_35">
    <path d="M 535.310433 105.663266 
L 568.437324 105.663266 
L 568.437324 86.377847 
L 535.310433 86.377847 
z
" clip-path="url(#pd03d0992b4)" style="fill: #9dc3a6; stroke: #f6f7f3; stroke-width: 1.5; stroke-linejoin: miter"/>
   </g>
   <g id="patch_36">
    <path d="M 541.090714 65.568833 
L 562.572914 65.568833 
L 562.572914 64.51407 
L 541.090714 64.51407 
z
" clip-path="url(#pd03d0992b4)" style="fill: #afceb6; stroke: #f6f7f3; stroke-width: 1.5; stroke-linejoin: miter"/>
   </g>
   <g id="patch_37">
    <path d="M 568.353195 65.568833 
L 568.437324 65.568833 
L 568.437324 64.51407 
L 568.353195 64.51407 
z
" clip-path="url(#pd03d0992b4)" style="fill: #67a275; stroke: #f6f7f3; stroke-width: 1.5; stroke-linejoin: miter"/>
   </g>
   <g id="patch_38">
    <path d="M 583.466056 105.663266 
L 586.384225 105.663266 
L 586.384225 58.733789 
L 583.466056 58.733789 
z
" clip-path="url(#pd03d0992b4)" style="fill: #e1d083; stroke: #f6f7f3; stroke-width: 1.5; stroke-linejoin: miter"/>
   </g>
   <g id="text_1">
    <text style="fill: #3d3733; font: 700 15px 'ABC Oracle Edu'; text-anchor: start" x="7.2" y="17.925" transform="rotate(-0 7.2 17.925)">How we spend our waking hours — and how meaningful it feels</text>
   </g>
   <g id="text_2">
    <text style="fill: #888888; font: italic 10px 'ABC Oracle Edu'; text-anchor: start" x="7.2" y="38.445" transform="rotate(-0 7.2 38.445)">Size = share of time, color = meaningfulness score. Adults 25-54.</text>
   </g>
   <g id="text_3">
    <text style="fill: #999999; font: italic 7.5px 'ABC Oracle Edu'" transform="translate(7.2 499.3515)">Source: American Time Use Survey</text>
    <text style="fill: #999999; font: italic 7.5px 'ABC Oracle Edu'" transform="translate(7.2 507.549)">Well-Being Module (2010-2021)</text>
   </g>
   <g id="text_4">
    <text style="fill: #3d3733; font: 700 7.5px 'ABC Oracle Edu'" transform="translate(523.809639 499.239)">@AZIZ SUNDERJI FOR</text>
    <text style="fill: #3d3733; font: 700 7.5px 'ABC Oracle Edu'" transform="translate(493.87292 507.0015)">WWW.HOME-ECONOMICS.US</text>
   </g>
   <g id="patch_39">
    <path d="M 21.650704 438.498296 
L 312.6712 438.498296 
L 312.6712 230.181639 
L 21.650704 230.181639 
L 21.650704 438.498296 
z
" clip-path="url(#pd03d0992b4)" style="fill: none; stroke: #3d3733; stroke-width: 1.8; stroke-linejoin: miter"/>
   </g>
   <g id="patch_40">
    <path d="M 21.650704 218.621075 
L 312.6712 218.621075 
L 312.6712 56.999704 
L 21.650704 56.999704 
L 21.650704 218.621075 
z
" clip-path="url(#pd03d0992b4)" style="fill: none; stroke: #3d3733; stroke-width: 1.8; stroke-linejoin: miter"/>
   </g>
   <g id="patch_41">
    <path d="M 324.231763 438.498296 
L 477.905238 438.498296 
L 477.905238 275.556408 
L 324.231763 275.556408 
L 324.231763 438.498296 
z
" clip-path="url(#pd03d0992b4)" style="fill: none; stroke: #3d3733; stroke-width: 1.8; stroke-linejoin: miter"/>
   </g>
   <g id="patch_42">
    <path d="M 489.465801 438.498296 
L 588.11831 438.498296 
L 588.11831 275.556408 
L 489.465801 275.556408 
L 489.465801 438.498296 
z
" clip-path="url(#pd03d0992b4)" style="fill: none; stroke: #3d3733; stroke-width: 1.8; stroke-linejoin: miter"/>
   </g>
   <g id="patch_43">
    <path d="M 324.231763 263.995845 
L 453.661173 263.995845 
L 453.661173 150.694976 
L 324.231763 150.694976 
L 324.231763 263.995845 
z
" clip-path="url(#pd03d0992b4)" style="fill: none; stroke: #3d3733; stroke-width: 1.8; stroke-linejoin: miter"/>
   </g>
   <g id="patch_44">
    <path d="M 324.231763 139.134413 
L 453.661173 139.134413 
L 453.661173 56.999704 
L 324.231763 56.999704 
L 324.231763 139.134413 
z
" clip-path="url(#pd03d0992b4)" style="fill: none; stroke: #3d3733; stroke-width: 1.8; stroke-linejoin: miter"/>
   </g>
   <g id="patch_45">
    <path d="M 465.221737 263.995845 
L 588.11831 263.995845 
L 588.11831 197.373801 
L 465.221737 197.373801 
L 465.221737 263.995845 
z
" clip-path="url(#pd03d0992b4)" style="fill: none; stroke: #3d3733; stroke-width: 1.8; stroke-linejoin: miter"/>
   </g>
   <g id="patch_46">
    <path d="M 465.221737 185.813238 
L 528.755058 185.813238 
L 528.755058 118.957913 
L 465.221737 118.957913 
L 465.221737 185.813238 
z
" clip-path="url(#pd03d0992b4)" style="fill: none; stroke: #3d3733; stroke-width: 1.8; stroke-linejoin: miter"/>
   </g>
   <g id="patch_47">
    <path d="M 540.315621 185.813238 
L 588.11831 185.813238 
L 588.11831 118.957913 
L 540.315621 118.957913 
L 540.315621 185.813238 
z
" clip-path="url(#pd03d0992b4)" style="fill: none; stroke: #3d3733; stroke-width: 1.8; stroke-linejoin: miter"/>
   </g>
   <g id="patch_48">
    <path d="M 465.221737 107.39735 
L 488.422134 107.39735 
L 488.422134 56.999704 
L 465.221737 56.999704 
L 465.221737 107.39735 
z
" clip-path="url(#pd03d0992b4)" style="fill: none; stroke: #3d3733; stroke-width: 1.8; stroke-linejoin: miter"/>
   </g>
   <g id="patch_49">
    <path d="M 499.982697 107.39735 
L 522.015785 107.39735 
L 522.015785 56.999704 
L 499.982697 56.999704 
L 499.982697 107.39735 
z
" clip-path="url(#pd03d0992b4)" style="fill: none; stroke: #3d3733; stroke-width: 1.8; stroke-linejoin: miter"/>
   </g>
   <g id="patch_50">
    <path d="M 533.576348 107.39735 
L 570.171409 107.39735 
L 570.171409 84.643763 
L 533.576348 84.643763 
L 533.576348 107.39735 
z
" clip-path="url(#pd03d0992b4)" style="fill: none; stroke: #3d3733; stroke-width: 1.8; stroke-linejoin: miter"/>
   </g>
   <g id="patch_51">
    <path d="M 533.576348 73.0832 
L 570.171409 73.0832 
L 570.171409 56.999704 
L 533.576348 56.999704 
L 533.576348 73.0832 
z
" clip-path="url(#pd03d0992b4)" style="fill: none; stroke: #3d3733; stroke-width: 1.8; stroke-linejoin: miter"/>
   </g>
   <g id="patch_52">
    <path d="M 581.731972 107.39735 
L 588.11831 107.39735 
L 588.11831 56.999704 
L 581.731972 56.999704 
L 581.731972 107.39735 
z
" clip-path="url(#pd03d0992b4)" style="fill: none; stroke: #3d3733; stroke-width: 1.8; stroke-linejoin: miter"/>
   </g>
   <g id="text_5">
    <text style="fill: #3d3733; font: 700 13px 'ABC Oracle Edu'; text-anchor: start" x="33.789296" y="251.42023" transform="rotate(-0 33.789296 251.42023)">29%</text>
   </g>
   <g id="text_6">
    <text style="fill: #3d3733; font: 9px 'ABC Oracle Edu'; text-anchor: start" x="33.789296" y="268.851216" transform="rotate(-0 33.789296 268.851216)">Working</text>
   </g>
   <g id="text_7">
    <text style="fill: #ffffff; font: 700 13px 'ABC Oracle Edu'; text-anchor: start" x="33.789296" y="78.238296" transform="rotate(-0 33.789296 78.238296)">23%</text>
   </g>
   <g id="text_8">
    <text style="fill: #ffffff; font: 9px 'ABC Oracle Edu'; text-anchor: start" x="33.789296" y="95.804282" transform="rotate(-0 33.789296 95.804282)">TV &amp; relaxing</text>
   </g>
   <g id="text_9">
    <text style="fill: #3d3733; font: 700 13px 'ABC Oracle Edu'; text-anchor: start" x="336.370355" y="347.317536" transform="rotate(-0 336.370355 347.317536)">4%</text>
   </g>
   <g id="text_10">
    <text style="fill: #3d3733; font: 9px 'ABC Oracle Edu'; text-anchor: start" x="336.370355" y="364.883522" transform="rotate(-0 336.370355 364.883522)">Cleaning</text>
   </g>
   <g id="text_11">
    <text style="fill: #3d3733; font: 700 13px 'ABC Oracle Edu'; text-anchor: start" x="412.855739" y="347.317536" transform="rotate(-0 412.855739 347.317536)">4%</text>
   </g>
   <g id="text_12">
    <text style="fill: #3d3733; font: 9px 'ABC Oracle Edu'; text-anchor: start" x="412.855739" y="364.883522" transform="rotate(-0 412.855739 364.883522)">Cooking</text>
   </g>
   <g id="text_13">
    <text style="fill: #3d3733; font: 500 5.5px 'ABC Oracle Edu'" transform="translate(341.803942 301.253675)">1%</text>
    <text style="fill: #3d3733; font: 500 5.5px 'ABC Oracle Edu'" transform="translate(335.090935 306.561175)">Laundry</text>
   </g>
   <g id="text_14">
    <text style="fill: #ffffff; font: 500 5.5px 'ABC Oracle Edu'" transform="translate(380.119391 301.286761)">1%</text>
    <text style="fill: #ffffff; font: 500 5.5px 'ABC Oracle Edu'" transform="translate(366.349625 306.594261)">Home repairs</text>
   </g>
   <g id="text_15">
    <text style="fill: #ffffff; font: 700 13px 'ABC Oracle Edu'; text-anchor: start" x="501.604393" y="374.980167" transform="rotate(-0 501.604393 374.980167)">2%</text>
   </g>
   <g id="text_16">
    <text style="fill: #3d3733; font: 500 5.5px 'ABC Oracle Edu'" transform="translate(561.343471 394.854936)">2%</text>
    <text style="fill: #3d3733; font: 500 5.5px 'ABC Oracle Edu'" transform="translate(558.059799 400.162436)">Other</text>
   </g>
   <g id="text_17">
    <text style="fill: #ffffff; font: 500 5.5px 'ABC Oracle Edu'" transform="translate(517.214273 329.929197)">2%</text>
    <text style="fill: #ffffff; font: 500 5.5px 'ABC Oracle Edu'" transform="translate(507.556187 335.236697)">Travel (sh..</text>
   </g>
   <g id="text_18">
    <text style="fill: #3d3733; font: 500 5.5px 'ABC Oracle Edu'" transform="translate(565.375778 332.969572)">1%</text>
    <text style="fill: #3d3733; font: 500 5.5px 'ABC Oracle Edu'" transform="translate(555.068864 338.277072)">Travel (ch..</text>
   </g>
   <g id="text_19">
    <text style="fill: #3d3733; font: 500 5.5px 'ABC Oracle Edu'" transform="translate(565.375778 293.876988)">1%</text>
    <text style="fill: #3d3733; font: 500 5.5px 'ABC Oracle Edu'" transform="translate(555.8582 299.184488)">Travel (le..</text>
   </g>
   <g id="text_20">
    <text style="fill: #3d3733; font: 700 13px 'ABC Oracle Edu'; text-anchor: start" x="336.370355" y="171.933568" transform="rotate(-0 336.370355 171.933568)">8%</text>
   </g>
   <g id="text_21">
    <text style="fill: #3d3733; font: 9px 'ABC Oracle Edu'; text-anchor: start" x="336.370355" y="189.499554" transform="rotate(-0 336.370355 189.499554)">Eating &amp; drinking</text>
   </g>
   <g id="text_22">
    <text style="fill: #3d3733; font: 700 13px 'ABC Oracle Edu'; text-anchor: start" x="336.370355" y="78.238296" transform="rotate(-0 336.370355 78.238296)">4%</text>
   </g>
   <g id="text_23">
    <text style="fill: #3d3733; font: 9px 'ABC Oracle Edu'; text-anchor: start" x="336.370355" y="95.804282" transform="rotate(-0 336.370355 95.804282)">Caring for kids</text>
   </g>
   <g id="text_24">
    <text style="fill: #3d3733; font: 700 13px 'ABC Oracle Edu'; text-anchor: start" x="477.360328" y="218.612393" transform="rotate(-0 477.360328 218.612393)">4%</text>
   </g>
   <g id="text_25">
    <text style="fill: #3d3733; font: 9px 'ABC Oracle Edu'; text-anchor: start" x="477.360328" y="236.178379" transform="rotate(-0 477.360328 236.178379)">Talking &amp; visiting</text>
   </g>
   <g id="text_26">
    <text style="fill: #3d3733; font: 700 13px 'ABC Oracle Edu'; text-anchor: start" x="477.360328" y="140.327376" transform="rotate(-0 477.360328 140.327376)">3%</text>
   </g>
   <g id="text_27">
    <text style="fill: #3d3733; font: 9px 'ABC Oracle Edu'; text-anchor: start" x="477.360328" y="157.893362" transform="rotate(-0 477.360328 157.893362)">Shopping</text>
   </g>
   <g id="text_28">
    <text style="fill: #3d3733; font: 500 5.5px 'ABC Oracle Edu'" transform="translate(560.023216 153.321635)">2%</text>
    <text style="fill: #3d3733; font: 500 5.5px 'ABC Oracle Edu'" transform="translate(549.108294 158.629135)">Exercise &amp;..</text>
   </g>
   <g id="legend_1">
    <g id="patch_53">
     <path d="M 15.3 469.158 
L 26.1 469.158 
L 26.1 459.933 
L 15.3 459.933 
z
" style="fill: #f4743b"/>
    </g>
    <g id="text_29">
     <text style="fill: #3d3733; font: 9px 'ABC Oracle Edu'; text-anchor: start" x="29.7" y="467.583" transform="rotate(-0 29.7 467.583)">Low meaning</text>
    </g>
    <g id="patch_54">
     <path d="M 102.805312 469.158 
L 113.605312 469.158 
L 113.605312 459.933 
L 102.805312 459.933 
z
" style="fill: #fec439"/>
    </g>
    <g id="text_30">
     <text style="fill: #3d3733; font: 9px 'ABC Oracle Edu'; text-anchor: start" x="117.205312" y="467.583" transform="rotate(-0 117.205312 467.583)">Medium</text>
    </g>
    <g id="patch_55">
     <path d="M 169.090313 469.158 
L 179.890313 469.158 
L 179.890313 459.933 
L 169.090313 459.933 
z
" style="fill: #67a275"/>
    </g>
    <g id="text_31">
     <text style="fill: #3d3733; font: 9px 'ABC Oracle Edu'; text-anchor: start" x="183.490313" y="467.583" transform="rotate(-0 183.490313 467.583)">High meaning</text>
    </g>
   </g>
   <g id="text_32">
    <text style="fill: #3d3733; opacity: 0.7; font: 700 7px 'ABC Oracle Edu'; text-anchor: start" x="24.540845" y="236.815723" transform="rotate(-0 24.540845 236.815723)">Work</text>
   </g>
   <g id="text_33">
    <text style="fill: #3d3733; opacity: 0.7; font: 700 7px 'ABC Oracle Edu'; text-anchor: start" x="24.540845" y="63.633789" transform="rotate(-0 24.540845 63.633789)">TV &amp; Leisure</text>
   </g>
   <g id="text_34">
    <text style="fill: #3d3733; opacity: 0.7; font: 700 7px 'ABC Oracle Edu'; text-anchor: start" x="327.121904" y="282.190493" transform="rotate(-0 327.121904 282.190493)">Housework</text>
   </g>
   <g id="text_35">
    <text style="fill: #3d3733; opacity: 0.7; font: 700 7px 'ABC Oracle Edu'; text-anchor: start" x="492.355942" y="282.190493" transform="rotate(-0 492.355942 282.190493)">Travel</text>
   </g>
   <g id="text_36">
    <text style="fill: #3d3733; opacity: 0.7; font: 700 7px 'ABC Oracle Edu'; text-anchor: start" x="327.121904" y="157.434061" transform="rotate(-0 327.121904 157.434061)">Eating &amp; Drinking</text>
   </g>
   <g id="text_37">
    <text style="fill: #3d3733; opacity: 0.7; font: 700 7px 'ABC Oracle Edu'; text-anchor: start" x="327.121904" y="63.633789" transform="rotate(-0 327.121904 63.633789)">Childcare</text>
   </g>
   <g id="text_38">
    <text style="fill: #3d3733; opacity: 0.7; font: 700 7px 'ABC Oracle Edu'; text-anchor: start" x="468.111878" y="204.112886" transform="rotate(-0 468.111878 204.112886)">Socializing</text>
   </g>
   <g id="text_39">
    <text style="fill: #3d3733; opacity: 0.7; font: 700 7px 'ABC Oracle Edu'; text-anchor: start" x="468.111878" y="125.696998" transform="rotate(-0 468.111878 125.696998)">Shopping</text>
   </g>
   <g id="text_40">
    <text style="fill: #3d3733; opacity: 0.7; font: 700 7px 'ABC Oracle Edu'; text-anchor: start" x="543.205762" y="125.696998" transform="rotate(-0 543.205762 125.696998)">Sports &amp; Exercise</text>
   </g>
  </g>
 </g>
 <defs>
  <clipPath id="pd03d0992b4">
   <rect x="7.2" y="42.549" width="595.369014" height="410.4"/>
  </clipPath>
 </defs>
</svg>
