<?xml version="1.0" encoding="utf-8" standalone="no"?>
<!DOCTYPE svg PUBLIC "-//W3C//DTD SVG 1.1//EN"
  "http://www.w3.org/Graphics/SVG/1.1/DTD/svg11.dtd">
<svg xmlns:xlink="http://www.w3.org/1999/xlink" width="640.51pt" height="512.625pt" viewBox="0 0 640.51 512.625" xmlns="http://www.w3.org/2000/svg" version="1.1">
 <metadata>
  <rdf:RDF xmlns:dc="http://purl.org/dc/elements/1.1/" xmlns:cc="http://creativecommons.org/ns#" xmlns:rdf="http://www.w3.org/1999/02/22-rdf-syntax-ns#">
   <cc:Work>
    <dc:type rdf:resource="http://purl.org/dc/dcmitype/StillImage"/>
    <dc:date>2026-02-08T18:39:02.588873</dc:date>
    <dc:format>image/svg+xml</dc:format>
    <dc:creator>
     <cc:Agent>
      <dc:title>Matplotlib v3.9.4, https://matplotlib.org/</dc:title>
     </cc:Agent>
    </dc:creator>
   </cc:Work>
  </rdf:RDF>
 </metadata>
 <defs>
  <style type="text/css">*{stroke-linejoin: round; stroke-linecap: butt}</style>
 </defs>
 <g id="figure_1">
  <g id="patch_1">
   <path d="M 0 512.625 
L 640.51 512.625 
L 640.51 0 
L 0 0 
z
" style="fill: #f6f7f3"/>
  </g>
  <g id="axes_1">
   <g id="patch_2">
    <path d="M 92.4 461.605 
L 633.31 461.605 
L 633.31 48.465 
L 92.4 48.465 
z
" style="fill: #f6f7f3"/>
   </g>
   <g id="matplotlib.axis_1">
    <g id="xtick_1">
     <g id="line2d_1">
      <path d="M 160.339902 461.605 
L 160.339902 48.465 
" clip-path="url(#pdca9dae455)" style="fill: none; stroke: #ffffff; stroke-width: 0.8; stroke-linecap: square"/>
     </g>
     <g id="line2d_2">
      <defs>
       <path id="mc7816b788c" d="M 0 0 
L 0 3 
" style="stroke: #999999; stroke-width: 0.8"/>
      </defs>
      <g>
       <use xlink:href="#mc7816b788c" x="160.339902" y="461.605" style="fill: #999999; stroke: #999999; stroke-width: 0.8"/>
      </g>
     </g>
     <g id="text_1">
      <!-- −0.4 -->
      <g transform="translate(149.98912 475.105) scale(0.1 -0.1)">
       <defs>
        <path id="ABCOracleEdu-Regular-2212" d="M 326 1389 
L 3270 1389 
L 3270 1965 
L 326 1965 
L 326 1389 
z
" transform="scale(0.015625)"/>
        <path id="ABCOracleEdu-Regular-30" d="M 2042 -96 
C 3021 -96 3738 678 3738 2240 
C 3738 3802 3021 4576 2042 4576 
C 1069 4576 352 3802 352 2240 
C 352 678 1069 -96 2042 -96 
z
M 2042 461 
C 1408 461 1030 998 1030 2240 
C 1030 3475 1408 4019 2042 4019 
C 2682 4019 3059 3475 3059 2240 
C 3059 998 2682 461 2042 461 
z
" transform="scale(0.015625)"/>
        <path id="ABCOracleEdu-Regular-2e" d="M 422 0 
L 1171 0 
L 1171 774 
L 422 774 
L 422 0 
z
" transform="scale(0.015625)"/>
        <path id="ABCOracleEdu-Regular-34" d="M 243 1018 
L 2464 1018 
L 2464 0 
L 3123 0 
L 3123 1018 
L 3699 1018 
L 3699 1594 
L 3123 1594 
L 3123 4480 
L 2413 4480 
L 243 1664 
L 243 1018 
z
M 870 1594 
L 2464 3654 
L 2464 1594 
L 870 1594 
z
" transform="scale(0.015625)"/>
       </defs>
       <use xlink:href="#ABCOracleEdu-Regular-2212"/>
       <use xlink:href="#ABCOracleEdu-Regular-30" x="56.199997"/>
       <use xlink:href="#ABCOracleEdu-Regular-2e" x="120.199982"/>
       <use xlink:href="#ABCOracleEdu-Regular-34" x="145.099976"/>
      </g>
     </g>
    </g>
    <g id="xtick_2">
     <g id="line2d_3">
      <path d="M 240.62339 461.605 
L 240.62339 48.465 
" clip-path="url(#pdca9dae455)" style="fill: none; stroke: #ffffff; stroke-width: 0.8; stroke-linecap: square"/>
     </g>
     <g id="line2d_4">
      <g>
       <use xlink:href="#mc7816b788c" x="240.62339" y="461.605" style="fill: #999999; stroke: #999999; stroke-width: 0.8"/>
      </g>
     </g>
     <g id="text_2">
      <!-- −0.2 -->
      <g transform="translate(230.382765 475.105) scale(0.1 -0.1)">
       <defs>
        <path id="ABCOracleEdu-Regular-32" d="M 250 0 
L 3488 0 
L 3488 608 
L 992 608 
C 1094 998 1414 1274 2016 1626 
L 2438 1875 
C 3053 2234 3456 2637 3456 3283 
C 3456 4000 2854 4576 1965 4576 
C 1050 4576 384 4038 378 3130 
L 1062 3130 
C 1069 3674 1414 4026 1965 4026 
C 2419 4026 2771 3744 2771 3290 
C 2771 2842 2502 2605 1907 2253 
L 1600 2074 
C 678 1536 282 960 250 0 
z
" transform="scale(0.015625)"/>
       </defs>
       <use xlink:href="#ABCOracleEdu-Regular-2212"/>
       <use xlink:href="#ABCOracleEdu-Regular-30" x="56.199997"/>
       <use xlink:href="#ABCOracleEdu-Regular-2e" x="120.199982"/>
       <use xlink:href="#ABCOracleEdu-Regular-32" x="145.099976"/>
      </g>
     </g>
    </g>
    <g id="xtick_3">
     <g id="line2d_5">
      <path d="M 320.906878 461.605 
L 320.906878 48.465 
" clip-path="url(#pdca9dae455)" style="fill: none; stroke: #ffffff; stroke-width: 0.8; stroke-linecap: square"/>
     </g>
     <g id="line2d_6">
      <g>
       <use xlink:href="#mc7816b788c" x="320.906878" y="461.605" style="fill: #999999; stroke: #999999; stroke-width: 0.8"/>
      </g>
     </g>
     <g id="text_3">
      <!-- 0.0 -->
      <g transform="translate(313.261565 475.105) scale(0.1 -0.1)">
       <use xlink:href="#ABCOracleEdu-Regular-30"/>
       <use xlink:href="#ABCOracleEdu-Regular-2e" x="63.999985"/>
       <use xlink:href="#ABCOracleEdu-Regular-30" x="88.899979"/>
      </g>
     </g>
    </g>
    <g id="xtick_4">
     <g id="line2d_7">
      <path d="M 401.190365 461.605 
L 401.190365 48.465 
" clip-path="url(#pdca9dae455)" style="fill: none; stroke: #ffffff; stroke-width: 0.8; stroke-linecap: square"/>
     </g>
     <g id="line2d_8">
      <g>
       <use xlink:href="#mc7816b788c" x="401.190365" y="461.605" style="fill: #999999; stroke: #999999; stroke-width: 0.8"/>
      </g>
     </g>
     <g id="text_4">
      <!-- 0.2 -->
      <g transform="translate(393.759897 475.105) scale(0.1 -0.1)">
       <use xlink:href="#ABCOracleEdu-Regular-30"/>
       <use xlink:href="#ABCOracleEdu-Regular-2e" x="63.999985"/>
       <use xlink:href="#ABCOracleEdu-Regular-32" x="88.899979"/>
      </g>
     </g>
    </g>
    <g id="xtick_5">
     <g id="line2d_9">
      <path d="M 481.473853 461.605 
L 481.473853 48.465 
" clip-path="url(#pdca9dae455)" style="fill: none; stroke: #ffffff; stroke-width: 0.8; stroke-linecap: square"/>
     </g>
     <g id="line2d_10">
      <g>
       <use xlink:href="#mc7816b788c" x="481.473853" y="461.605" style="fill: #999999; stroke: #999999; stroke-width: 0.8"/>
      </g>
     </g>
     <g id="text_5">
      <!-- 0.4 -->
      <g transform="translate(473.933228 475.105) scale(0.1 -0.1)">
       <use xlink:href="#ABCOracleEdu-Regular-30"/>
       <use xlink:href="#ABCOracleEdu-Regular-2e" x="63.999985"/>
       <use xlink:href="#ABCOracleEdu-Regular-34" x="88.899979"/>
      </g>
     </g>
    </g>
    <g id="xtick_6">
     <g id="line2d_11">
      <path d="M 561.757341 461.605 
L 561.757341 48.465 
" clip-path="url(#pdca9dae455)" style="fill: none; stroke: #ffffff; stroke-width: 0.8; stroke-linecap: square"/>
     </g>
     <g id="line2d_12">
      <g>
       <use xlink:href="#mc7816b788c" x="561.757341" y="461.605" style="fill: #999999; stroke: #999999; stroke-width: 0.8"/>
      </g>
     </g>
     <g id="text_6">
      <!-- 0.6 -->
      <g transform="translate(554.237029 475.105) scale(0.1 -0.1)">
       <defs>
        <path id="ABCOracleEdu-Regular-36" d="M 2106 -96 
C 3008 -96 3616 563 3616 1395 
C 3616 2234 3046 2893 2202 2893 
C 1645 2893 1222 2611 1024 2240 
C 1024 3226 1338 4026 2131 4026 
C 2560 4026 2765 3802 2861 3565 
L 3533 3565 
C 3437 4090 3014 4576 2138 4576 
C 979 4576 352 3629 352 2125 
C 352 704 1050 -96 2106 -96 
z
M 2054 461 
C 1542 461 1158 845 1158 1402 
C 1158 1958 1542 2349 2054 2349 
C 2592 2349 2950 1965 2950 1402 
C 2950 858 2592 461 2054 461 
z
" transform="scale(0.015625)"/>
       </defs>
       <use xlink:href="#ABCOracleEdu-Regular-30"/>
       <use xlink:href="#ABCOracleEdu-Regular-2e" x="63.999985"/>
       <use xlink:href="#ABCOracleEdu-Regular-36" x="88.899979"/>
      </g>
     </g>
    </g>
   </g>
   <g id="matplotlib.axis_2">
    <g id="ytick_1">
     <g id="line2d_13"/>
     <g id="text_7">
      <!-- Denver -->
      <g style="fill: #3d3733" transform="translate(55.501563 440.856271) scale(0.1 -0.1)">
       <defs>
        <path id="ABCOracleEdu-Regular-44" d="M 576 0 
L 1984 0 
C 3302 0 4307 896 4307 2240 
C 4307 3584 3302 4480 1984 4480 
L 576 4480 
L 576 0 
z
M 1248 589 
L 1248 3891 
L 1920 3891 
C 2989 3891 3622 3277 3622 2240 
C 3622 1203 2989 589 1920 589 
L 1248 589 
z
" transform="scale(0.015625)"/>
        <path id="ABCOracleEdu-Regular-65" d="M 1914 -96 
C 2701 -96 3213 307 3366 838 
L 2675 838 
C 2566 614 2330 429 1926 429 
C 1363 429 966 832 928 1446 
L 3443 1446 
C 3430 2643 2822 3341 1856 3341 
C 998 3341 269 2643 269 1619 
C 269 576 915 -96 1914 -96 
z
M 941 1958 
C 1018 2470 1395 2810 1869 2810 
C 2381 2810 2714 2483 2797 1958 
L 941 1958 
z
" transform="scale(0.015625)"/>
        <path id="ABCOracleEdu-Regular-6e" d="M 506 0 
L 1152 0 
L 1152 1811 
C 1152 2509 1536 2803 1965 2803 
C 2381 2803 2573 2522 2573 2106 
L 2573 0 
L 3219 0 
L 3219 2170 
C 3219 2938 2765 3341 2118 3341 
C 1702 3341 1350 3149 1139 2810 
L 1139 3245 
L 506 3245 
L 506 0 
z
" transform="scale(0.015625)"/>
        <path id="ABCOracleEdu-Regular-76" d="M 1229 0 
L 2029 0 
L 3130 3245 
L 2458 3245 
L 1850 1286 
L 1651 621 
L 1645 621 
L 1440 1286 
L 806 3245 
L 109 3245 
L 1229 0 
z
" transform="scale(0.015625)"/>
        <path id="ABCOracleEdu-Regular-72" d="M 506 0 
L 1152 0 
L 1152 1619 
C 1152 2163 1325 2509 1690 2650 
C 1856 2714 2048 2726 2291 2707 
L 2291 3334 
C 1779 3366 1331 3174 1139 2611 
L 1139 3245 
L 506 3245 
L 506 0 
z
" transform="scale(0.015625)"/>
       </defs>
       <use xlink:href="#ABCOracleEdu-Regular-44"/>
       <use xlink:href="#ABCOracleEdu-Regular-65" x="72.099991"/>
       <use xlink:href="#ABCOracleEdu-Regular-6e" x="129.899979"/>
       <use xlink:href="#ABCOracleEdu-Regular-76" x="187.499969"/>
       <use xlink:href="#ABCOracleEdu-Regular-65" x="238.199966"/>
       <use xlink:href="#ABCOracleEdu-Regular-72" x="295.999954"/>
      </g>
     </g>
    </g>
    <g id="ytick_2">
     <g id="line2d_14"/>
     <g id="text_8">
      <!-- New Orleans -->
      <g style="fill: #3d3733" transform="translate(28.7625 422.624144) scale(0.1 -0.1)">
       <defs>
        <path id="ABCOracleEdu-Regular-4e" d="M 576 0 
L 1242 0 
L 1242 2291 
C 1242 2784 1229 3219 1210 3648 
L 3392 0 
L 4256 0 
L 4256 4480 
L 3590 4480 
L 3590 2221 
C 3590 1734 3597 1286 3610 851 
L 1440 4480 
L 576 4480 
L 576 0 
z
" transform="scale(0.015625)"/>
        <path id="ABCOracleEdu-Regular-77" d="M 1062 0 
L 1798 0 
L 2477 2490 
L 3168 0 
L 3910 0 
L 4826 3245 
L 4166 3245 
L 3533 736 
L 2874 3245 
L 2125 3245 
L 1466 723 
L 832 3245 
L 134 3245 
L 1062 0 
z
" transform="scale(0.015625)"/>
        <path id="ABCOracleEdu-Regular-20" transform="scale(0.015625)"/>
        <path id="ABCOracleEdu-Regular-4f" d="M 2560 -96 
C 3782 -96 4819 858 4819 2240 
C 4819 3622 3782 4576 2560 4576 
C 1344 4576 307 3622 307 2240 
C 307 858 1344 -96 2560 -96 
z
M 2560 493 
C 1645 493 1011 1178 1011 2240 
C 1011 3302 1645 3987 2560 3987 
C 3482 3987 4115 3302 4115 2240 
C 4115 1178 3482 493 2560 493 
z
" transform="scale(0.015625)"/>
        <path id="ABCOracleEdu-Regular-6c" d="M 506 0 
L 1152 0 
L 1152 4480 
L 506 4480 
L 506 0 
z
" transform="scale(0.015625)"/>
        <path id="ABCOracleEdu-Regular-61" d="M 1402 -90 
C 1990 -90 2330 218 2470 435 
C 2483 294 2515 102 2541 0 
L 3181 0 
C 3123 218 3078 512 3078 781 
L 3078 2330 
C 3078 2950 2688 3341 1798 3341 
C 934 3341 480 2886 384 2458 
L 1101 2458 
C 1158 2662 1395 2848 1798 2848 
C 2202 2848 2445 2656 2445 2362 
C 2445 2067 2285 1971 1766 1907 
L 1555 1882 
C 973 1805 250 1651 250 877 
C 250 198 832 -90 1402 -90 
z
M 1549 429 
C 1203 429 934 589 934 909 
C 934 1280 1235 1363 1715 1440 
C 2163 1510 2336 1581 2445 1728 
L 2445 1357 
C 2445 826 2086 429 1549 429 
z
" transform="scale(0.015625)"/>
        <path id="ABCOracleEdu-Regular-73" d="M 1734 -96 
C 2509 -96 3104 320 3104 934 
C 3104 1472 2707 1728 1926 1907 
L 1504 2010 
C 1152 2093 992 2189 992 2413 
C 992 2669 1248 2829 1613 2829 
C 2035 2829 2272 2656 2362 2374 
L 2989 2374 
C 2906 2893 2438 3334 1619 3334 
C 845 3334 333 2906 333 2374 
C 333 1843 717 1587 1389 1434 
L 1773 1350 
C 2253 1248 2445 1126 2445 877 
C 2445 595 2157 416 1754 416 
C 1267 416 979 646 909 973 
L 211 973 
C 288 352 838 -96 1734 -96 
z
" transform="scale(0.015625)"/>
       </defs>
       <use xlink:href="#ABCOracleEdu-Regular-4e"/>
       <use xlink:href="#ABCOracleEdu-Regular-65" x="75.499985"/>
       <use xlink:href="#ABCOracleEdu-Regular-77" x="133.299973"/>
       <use xlink:href="#ABCOracleEdu-Regular-20" x="210.899963"/>
       <use xlink:href="#ABCOracleEdu-Regular-4f" x="234.499954"/>
       <use xlink:href="#ABCOracleEdu-Regular-72" x="314.599945"/>
       <use xlink:href="#ABCOracleEdu-Regular-6c" x="352.59993"/>
       <use xlink:href="#ABCOracleEdu-Regular-65" x="378.499924"/>
       <use xlink:href="#ABCOracleEdu-Regular-61" x="436.299911"/>
       <use xlink:href="#ABCOracleEdu-Regular-6e" x="491.699905"/>
       <use xlink:href="#ABCOracleEdu-Regular-73" x="549.299896"/>
      </g>
     </g>
    </g>
    <g id="ytick_3">
     <g id="line2d_15"/>
     <g id="text_9">
      <!-- Detroit -->
      <g style="fill: #3d3733" transform="translate(56.660938 404.392017) scale(0.1 -0.1)">
       <defs>
        <path id="ABCOracleEdu-Regular-74" d="M 672 4205 
L 672 3245 
L 128 3245 
L 128 2739 
L 672 2739 
L 672 883 
C 672 224 1069 -32 1574 -32 
C 1722 -32 1907 -13 2016 19 
L 2016 506 
C 1914 486 1824 480 1741 480 
C 1421 480 1312 653 1312 1011 
L 1312 2739 
L 1952 2739 
L 1952 3245 
L 1312 3245 
L 1312 4205 
L 672 4205 
z
" transform="scale(0.015625)"/>
        <path id="ABCOracleEdu-Regular-6f" d="M 1888 -96 
C 2822 -96 3507 627 3507 1626 
C 3507 2618 2822 3341 1888 3341 
C 954 3341 269 2618 269 1626 
C 269 627 954 -96 1888 -96 
z
M 1888 435 
C 1325 435 928 870 928 1626 
C 928 2374 1325 2810 1888 2810 
C 2458 2810 2848 2374 2848 1626 
C 2848 870 2458 435 1888 435 
z
" transform="scale(0.015625)"/>
        <path id="ABCOracleEdu-Regular-69" d="M 506 0 
L 1152 0 
L 1152 3245 
L 506 3245 
L 506 0 
z
M 448 3693 
L 1197 3693 
L 1197 4416 
L 448 4416 
L 448 3693 
z
" transform="scale(0.015625)"/>
       </defs>
       <use xlink:href="#ABCOracleEdu-Regular-44"/>
       <use xlink:href="#ABCOracleEdu-Regular-65" x="72.099991"/>
       <use xlink:href="#ABCOracleEdu-Regular-74" x="129.899979"/>
       <use xlink:href="#ABCOracleEdu-Regular-72" x="164.699966"/>
       <use xlink:href="#ABCOracleEdu-Regular-6f" x="202.699951"/>
       <use xlink:href="#ABCOracleEdu-Regular-69" x="261.699936"/>
       <use xlink:href="#ABCOracleEdu-Regular-74" x="287.59993"/>
      </g>
     </g>
    </g>
    <g id="ytick_4">
     <g id="line2d_16"/>
     <g id="text_10">
      <!-- Washington DC -->
      <g style="fill: #3d3733" transform="translate(16.7125 386.23489) scale(0.1 -0.1)">
       <defs>
        <path id="ABCOracleEdu-Regular-57" d="M 1318 0 
L 2106 0 
L 2957 3667 
L 3814 0 
L 4602 0 
L 5728 4480 
L 5043 4480 
L 4198 883 
L 3398 4480 
L 2554 4480 
L 1747 883 
L 883 4480 
L 192 4480 
L 1318 0 
z
" transform="scale(0.015625)"/>
        <path id="ABCOracleEdu-Regular-68" d="M 506 0 
L 1152 0 
L 1152 1811 
C 1152 2509 1536 2803 1965 2803 
C 2381 2803 2573 2522 2573 2106 
L 2573 0 
L 3219 0 
L 3219 2170 
C 3219 2938 2765 3341 2118 3341 
C 1709 3341 1363 3162 1152 2829 
L 1152 4480 
L 506 4480 
L 506 0 
z
" transform="scale(0.015625)"/>
        <path id="ABCOracleEdu-Regular-67" d="M 1811 -1344 
C 2893 -1344 3360 -685 3360 45 
L 3360 3245 
L 2726 3245 
L 2726 2816 
C 2579 3085 2221 3334 1722 3334 
C 941 3334 282 2746 282 1702 
C 282 646 941 70 1722 70 
C 2227 70 2579 320 2726 589 
L 2726 13 
C 2726 -525 2394 -832 1850 -832 
C 1408 -832 1184 -678 1101 -397 
L 422 -397 
C 525 -1018 1011 -1344 1811 -1344 
z
M 1830 576 
C 1267 576 941 992 941 1702 
C 941 2381 1293 2829 1830 2829 
C 2381 2829 2739 2368 2739 1702 
C 2739 1043 2381 576 1830 576 
z
" transform="scale(0.015625)"/>
        <path id="ABCOracleEdu-Regular-43" d="M 2483 -96 
C 3693 -96 4294 717 4416 1350 
L 3731 1350 
C 3610 979 3277 506 2502 506 
C 1670 506 1018 1146 1018 2240 
C 1018 3334 1664 3974 2502 3974 
C 3277 3974 3610 3501 3731 3130 
L 4416 3130 
C 4294 3763 3693 4576 2483 4576 
C 1299 4576 314 3654 314 2240 
C 314 813 1229 -96 2483 -96 
z
" transform="scale(0.015625)"/>
       </defs>
       <use xlink:href="#ABCOracleEdu-Regular-57"/>
       <use xlink:href="#ABCOracleEdu-Regular-61" x="92.499985"/>
       <use xlink:href="#ABCOracleEdu-Regular-73" x="147.899979"/>
       <use xlink:href="#ABCOracleEdu-Regular-68" x="199.999969"/>
       <use xlink:href="#ABCOracleEdu-Regular-69" x="257.59996"/>
       <use xlink:href="#ABCOracleEdu-Regular-6e" x="283.499954"/>
       <use xlink:href="#ABCOracleEdu-Regular-67" x="341.099945"/>
       <use xlink:href="#ABCOracleEdu-Regular-74" x="401.399933"/>
       <use xlink:href="#ABCOracleEdu-Regular-6f" x="436.199921"/>
       <use xlink:href="#ABCOracleEdu-Regular-6e" x="495.199905"/>
       <use xlink:href="#ABCOracleEdu-Regular-20" x="552.799896"/>
       <use xlink:href="#ABCOracleEdu-Regular-44" x="576.399887"/>
       <use xlink:href="#ABCOracleEdu-Regular-43" x="648.499878"/>
      </g>
     </g>
    </g>
    <g id="ytick_5">
     <g id="line2d_17"/>
     <g id="text_11">
      <!-- Minneapolis -->
      <g style="fill: #3d3733" transform="translate(32.159375 367.927763) scale(0.1 -0.1)">
       <defs>
        <path id="ABCOracleEdu-Regular-4d" d="M 576 0 
L 1235 0 
L 1235 2221 
C 1235 2739 1235 3174 1216 3610 
L 2522 0 
L 3200 0 
L 4493 3603 
L 4480 2221 
L 4480 0 
L 5139 0 
L 5139 4480 
L 4173 4480 
L 3277 1926 
C 3091 1414 2976 1056 2886 762 
L 2874 762 
C 2816 986 2637 1504 2458 2003 
L 1574 4480 
L 576 4480 
L 576 0 
z
" transform="scale(0.015625)"/>
        <path id="ABCOracleEdu-Regular-70" d="M 506 -1248 
L 1152 -1248 
L 1152 442 
C 1331 141 1677 -96 2176 -96 
C 3008 -96 3622 557 3622 1619 
C 3622 2675 3008 3341 2176 3341 
C 1677 3341 1331 3104 1152 2810 
L 1152 3245 
L 506 3245 
L 506 -1248 
z
M 2067 429 
C 1530 429 1146 928 1146 1619 
C 1146 2310 1530 2816 2067 2816 
C 2637 2816 2963 2342 2963 1619 
C 2963 896 2637 429 2067 429 
z
" transform="scale(0.015625)"/>
       </defs>
       <use xlink:href="#ABCOracleEdu-Regular-4d"/>
       <use xlink:href="#ABCOracleEdu-Regular-69" x="89.299988"/>
       <use xlink:href="#ABCOracleEdu-Regular-6e" x="115.199982"/>
       <use xlink:href="#ABCOracleEdu-Regular-6e" x="172.799973"/>
       <use xlink:href="#ABCOracleEdu-Regular-65" x="230.399963"/>
       <use xlink:href="#ABCOracleEdu-Regular-61" x="288.199951"/>
       <use xlink:href="#ABCOracleEdu-Regular-70" x="343.599945"/>
       <use xlink:href="#ABCOracleEdu-Regular-6f" x="404.499939"/>
       <use xlink:href="#ABCOracleEdu-Regular-6c" x="463.499924"/>
       <use xlink:href="#ABCOracleEdu-Regular-69" x="489.399918"/>
       <use xlink:href="#ABCOracleEdu-Regular-73" x="515.299911"/>
      </g>
     </g>
    </g>
    <g id="ytick_6">
     <g id="line2d_18"/>
     <g id="text_12">
      <!-- Virginia Beach -->
      <g style="fill: #3d3733" transform="translate(22.290625 349.695635) scale(0.1 -0.1)">
       <defs>
        <path id="ABCOracleEdu-Regular-56" d="M 1670 0 
L 2483 0 
L 4122 4480 
L 3430 4480 
L 2541 1997 
L 2099 749 
L 2093 749 
L 1664 1971 
L 781 4480 
L 77 4480 
L 1670 0 
z
" transform="scale(0.015625)"/>
        <path id="ABCOracleEdu-Regular-42" d="M 576 0 
L 2067 0 
C 2963 0 3654 461 3654 1261 
C 3654 1850 3258 2227 2784 2330 
C 3206 2445 3526 2816 3526 3309 
C 3526 4051 2918 4480 2035 4480 
L 576 4480 
L 576 0 
z
M 2010 2554 
L 1248 2554 
L 1248 3917 
L 1971 3917 
C 2502 3917 2848 3731 2848 3245 
C 2848 2816 2541 2554 2010 2554 
z
M 1248 563 
L 1248 2022 
L 2010 2022 
C 2637 2022 2970 1741 2970 1293 
C 2970 826 2624 563 2003 563 
L 1248 563 
z
" transform="scale(0.015625)"/>
        <path id="ABCOracleEdu-Regular-63" d="M 1850 -96 
C 2694 -96 3194 403 3296 979 
L 2643 979 
C 2528 659 2291 448 1869 448 
C 1382 448 954 832 954 1619 
C 954 2400 1376 2797 1894 2797 
C 2272 2797 2522 2605 2637 2266 
L 3290 2266 
C 3187 2848 2694 3334 1862 3334 
C 992 3334 275 2694 275 1619 
C 275 512 979 -96 1850 -96 
z
" transform="scale(0.015625)"/>
       </defs>
       <use xlink:href="#ABCOracleEdu-Regular-56"/>
       <use xlink:href="#ABCOracleEdu-Regular-69" x="65.299988"/>
       <use xlink:href="#ABCOracleEdu-Regular-72" x="91.199982"/>
       <use xlink:href="#ABCOracleEdu-Regular-67" x="129.199966"/>
       <use xlink:href="#ABCOracleEdu-Regular-69" x="189.499954"/>
       <use xlink:href="#ABCOracleEdu-Regular-6e" x="215.399948"/>
       <use xlink:href="#ABCOracleEdu-Regular-69" x="272.999939"/>
       <use xlink:href="#ABCOracleEdu-Regular-61" x="298.899933"/>
       <use xlink:href="#ABCOracleEdu-Regular-20" x="354.299927"/>
       <use xlink:href="#ABCOracleEdu-Regular-42" x="377.899918"/>
       <use xlink:href="#ABCOracleEdu-Regular-65" x="439.999908"/>
       <use xlink:href="#ABCOracleEdu-Regular-61" x="497.799896"/>
       <use xlink:href="#ABCOracleEdu-Regular-63" x="553.19989"/>
       <use xlink:href="#ABCOracleEdu-Regular-68" x="608.499878"/>
      </g>
     </g>
    </g>
    <g id="ytick_7">
     <g id="line2d_19"/>
     <g id="text_13">
      <!-- Columbus OH -->
      <g style="fill: #3d3733" transform="translate(24.260937 331.463508) scale(0.1 -0.1)">
       <defs>
        <path id="ABCOracleEdu-Regular-75" d="M 1555 -96 
C 1946 -96 2298 77 2483 429 
L 2483 0 
L 3117 0 
L 3117 3245 
L 2470 3245 
L 2470 1421 
C 2470 730 2061 448 1690 448 
C 1306 448 1107 685 1107 1171 
L 1107 3245 
L 467 3245 
L 467 1094 
C 467 346 864 -96 1555 -96 
z
" transform="scale(0.015625)"/>
        <path id="ABCOracleEdu-Regular-6d" d="M 506 0 
L 1152 0 
L 1152 1850 
C 1152 2483 1453 2797 1875 2797 
C 2253 2797 2451 2528 2451 2048 
L 2451 0 
L 3098 0 
L 3098 1850 
C 3098 2490 3398 2797 3834 2797 
C 4211 2797 4397 2547 4397 2080 
L 4397 0 
L 5037 0 
L 5037 2189 
C 5037 2976 4550 3341 3923 3341 
C 3482 3341 3104 3110 2925 2784 
C 2752 3162 2438 3341 2035 3341 
C 1651 3341 1299 3155 1133 2842 
L 1133 3245 
L 506 3245 
L 506 0 
z
" transform="scale(0.015625)"/>
        <path id="ABCOracleEdu-Regular-62" d="M 2176 -96 
C 3008 -96 3622 557 3622 1619 
C 3622 2675 3008 3341 2176 3341 
C 1677 3341 1331 3104 1152 2810 
L 1152 4480 
L 506 4480 
L 506 0 
L 1152 0 
L 1152 442 
C 1331 141 1677 -96 2176 -96 
z
M 2067 429 
C 1530 429 1146 928 1146 1619 
C 1146 2310 1530 2816 2067 2816 
C 2637 2816 2963 2342 2963 1619 
C 2963 896 2637 429 2067 429 
z
" transform="scale(0.015625)"/>
        <path id="ABCOracleEdu-Regular-48" d="M 3373 4480 
L 3373 2560 
L 1248 2560 
L 1248 4480 
L 576 4480 
L 576 0 
L 1248 0 
L 1248 1965 
L 3373 1965 
L 3373 0 
L 4045 0 
L 4045 4480 
L 3373 4480 
z
" transform="scale(0.015625)"/>
       </defs>
       <use xlink:href="#ABCOracleEdu-Regular-43"/>
       <use xlink:href="#ABCOracleEdu-Regular-6f" x="73.399994"/>
       <use xlink:href="#ABCOracleEdu-Regular-6c" x="132.399979"/>
       <use xlink:href="#ABCOracleEdu-Regular-75" x="158.299973"/>
       <use xlink:href="#ABCOracleEdu-Regular-6d" x="214.899963"/>
       <use xlink:href="#ABCOracleEdu-Regular-62" x="300.899948"/>
       <use xlink:href="#ABCOracleEdu-Regular-75" x="361.799942"/>
       <use xlink:href="#ABCOracleEdu-Regular-73" x="418.399933"/>
       <use xlink:href="#ABCOracleEdu-Regular-20" x="470.499924"/>
       <use xlink:href="#ABCOracleEdu-Regular-4f" x="494.099915"/>
       <use xlink:href="#ABCOracleEdu-Regular-48" x="574.199905"/>
      </g>
     </g>
    </g>
    <g id="ytick_8">
     <g id="line2d_20"/>
     <g id="text_14">
      <!-- Los Angeles -->
      <g style="fill: #3d3733" transform="translate(32.482813 313.231381) scale(0.1 -0.1)">
       <defs>
        <path id="ABCOracleEdu-Regular-4c" d="M 576 0 
L 3155 0 
L 3155 627 
L 1248 627 
L 1248 4480 
L 576 4480 
L 576 0 
z
" transform="scale(0.015625)"/>
        <path id="ABCOracleEdu-Regular-41" d="M 45 0 
L 755 0 
L 1120 998 
L 3110 998 
L 3469 0 
L 4192 0 
L 2509 4480 
L 1760 4480 
L 45 0 
z
M 1331 1574 
L 1664 2490 
L 2118 3744 
L 2125 3744 
L 2566 2515 
L 2906 1574 
L 1331 1574 
z
" transform="scale(0.015625)"/>
       </defs>
       <use xlink:href="#ABCOracleEdu-Regular-4c"/>
       <use xlink:href="#ABCOracleEdu-Regular-6f" x="51.499985"/>
       <use xlink:href="#ABCOracleEdu-Regular-73" x="110.499969"/>
       <use xlink:href="#ABCOracleEdu-Regular-20" x="162.59996"/>
       <use xlink:href="#ABCOracleEdu-Regular-41" x="186.199951"/>
       <use xlink:href="#ABCOracleEdu-Regular-6e" x="252.699936"/>
       <use xlink:href="#ABCOracleEdu-Regular-67" x="310.299927"/>
       <use xlink:href="#ABCOracleEdu-Regular-65" x="370.599915"/>
       <use xlink:href="#ABCOracleEdu-Regular-6c" x="428.399902"/>
       <use xlink:href="#ABCOracleEdu-Regular-65" x="454.299896"/>
       <use xlink:href="#ABCOracleEdu-Regular-73" x="512.099884"/>
      </g>
     </g>
    </g>
    <g id="ytick_9">
     <g id="line2d_21"/>
     <g id="text_15">
      <!-- Baltimore -->
      <g style="fill: #3d3733" transform="translate(44.409375 294.999254) scale(0.1 -0.1)">
       <use xlink:href="#ABCOracleEdu-Regular-42"/>
       <use xlink:href="#ABCOracleEdu-Regular-61" x="62.099991"/>
       <use xlink:href="#ABCOracleEdu-Regular-6c" x="117.499985"/>
       <use xlink:href="#ABCOracleEdu-Regular-74" x="143.399979"/>
       <use xlink:href="#ABCOracleEdu-Regular-69" x="178.199966"/>
       <use xlink:href="#ABCOracleEdu-Regular-6d" x="204.09996"/>
       <use xlink:href="#ABCOracleEdu-Regular-6f" x="290.099945"/>
       <use xlink:href="#ABCOracleEdu-Regular-72" x="349.09993"/>
       <use xlink:href="#ABCOracleEdu-Regular-65" x="387.099915"/>
      </g>
     </g>
    </g>
    <g id="ytick_10">
     <g id="line2d_22"/>
     <g id="text_16">
      <!-- Sacramento -->
      <g style="fill: #3d3733" transform="translate(32.35 276.767127) scale(0.1 -0.1)">
       <defs>
        <path id="ABCOracleEdu-Regular-53" d="M 2170 -96 
C 3232 -96 3974 499 3974 1312 
C 3974 1946 3526 2291 2490 2554 
L 1946 2694 
C 1312 2854 1075 2976 1075 3322 
C 1075 3744 1491 4019 2067 4019 
C 2669 4019 3040 3763 3155 3386 
L 3846 3386 
C 3718 4045 3117 4576 2074 4576 
C 1126 4576 390 4032 390 3290 
C 390 2618 838 2278 1773 2054 
L 2342 1920 
C 3021 1754 3270 1581 3270 1222 
C 3270 800 2848 480 2189 480 
C 1491 480 1069 819 960 1382 
L 250 1382 
C 346 518 1050 -96 2170 -96 
z
" transform="scale(0.015625)"/>
       </defs>
       <use xlink:href="#ABCOracleEdu-Regular-53"/>
       <use xlink:href="#ABCOracleEdu-Regular-61" x="66.199997"/>
       <use xlink:href="#ABCOracleEdu-Regular-63" x="121.599991"/>
       <use xlink:href="#ABCOracleEdu-Regular-72" x="176.899979"/>
       <use xlink:href="#ABCOracleEdu-Regular-61" x="214.899963"/>
       <use xlink:href="#ABCOracleEdu-Regular-6d" x="270.299957"/>
       <use xlink:href="#ABCOracleEdu-Regular-65" x="356.299942"/>
       <use xlink:href="#ABCOracleEdu-Regular-6e" x="414.09993"/>
       <use xlink:href="#ABCOracleEdu-Regular-74" x="471.699921"/>
       <use xlink:href="#ABCOracleEdu-Regular-6f" x="506.499908"/>
      </g>
     </g>
    </g>
    <g id="ytick_11">
     <g id="line2d_23"/>
     <g id="text_17">
      <!-- Boston -->
      <g style="fill: #3d3733" transform="translate(56.442188 258.535) scale(0.1 -0.1)">
       <use xlink:href="#ABCOracleEdu-Regular-42"/>
       <use xlink:href="#ABCOracleEdu-Regular-6f" x="62.099991"/>
       <use xlink:href="#ABCOracleEdu-Regular-73" x="121.099976"/>
       <use xlink:href="#ABCOracleEdu-Regular-74" x="173.199966"/>
       <use xlink:href="#ABCOracleEdu-Regular-6f" x="207.999954"/>
       <use xlink:href="#ABCOracleEdu-Regular-6e" x="266.999939"/>
      </g>
     </g>
    </g>
    <g id="ytick_12">
     <g id="line2d_24"/>
     <g id="text_18">
      <!-- New York -->
      <g style="fill: #3d3733" transform="translate(44.260938 240.302873) scale(0.1 -0.1)">
       <defs>
        <path id="ABCOracleEdu-Regular-59" d="M 1600 0 
L 2272 0 
L 2272 1894 
L 3834 4480 
L 3078 4480 
L 2394 3270 
C 2176 2874 2086 2701 1978 2477 
L 1965 2477 
C 1862 2682 1766 2848 1536 3251 
L 832 4480 
L 38 4480 
L 1600 1901 
L 1600 0 
z
" transform="scale(0.015625)"/>
        <path id="ABCOracleEdu-Regular-6b" d="M 506 0 
L 1158 0 
L 1158 1075 
L 1619 1517 
L 2694 0 
L 3462 0 
L 2061 1939 
L 3418 3245 
L 2618 3245 
L 1158 1824 
L 1158 4480 
L 506 4480 
L 506 0 
z
" transform="scale(0.015625)"/>
       </defs>
       <use xlink:href="#ABCOracleEdu-Regular-4e"/>
       <use xlink:href="#ABCOracleEdu-Regular-65" x="75.499985"/>
       <use xlink:href="#ABCOracleEdu-Regular-77" x="133.299973"/>
       <use xlink:href="#ABCOracleEdu-Regular-20" x="210.899963"/>
       <use xlink:href="#ABCOracleEdu-Regular-59" x="234.499954"/>
       <use xlink:href="#ABCOracleEdu-Regular-6f" x="294.999939"/>
       <use xlink:href="#ABCOracleEdu-Regular-72" x="353.999924"/>
       <use xlink:href="#ABCOracleEdu-Regular-6b" x="391.999908"/>
      </g>
     </g>
    </g>
    <g id="ytick_13">
     <g id="line2d_25"/>
     <g id="text_19">
      <!-- St. Louis -->
      <g style="fill: #3d3733" transform="translate(49.440625 222.070746) scale(0.1 -0.1)">
       <use xlink:href="#ABCOracleEdu-Regular-53"/>
       <use xlink:href="#ABCOracleEdu-Regular-74" x="66.199997"/>
       <use xlink:href="#ABCOracleEdu-Regular-2e" x="100.999985"/>
       <use xlink:href="#ABCOracleEdu-Regular-20" x="125.899979"/>
       <use xlink:href="#ABCOracleEdu-Regular-4c" x="149.499969"/>
       <use xlink:href="#ABCOracleEdu-Regular-6f" x="200.999954"/>
       <use xlink:href="#ABCOracleEdu-Regular-75" x="259.999939"/>
       <use xlink:href="#ABCOracleEdu-Regular-69" x="316.59993"/>
       <use xlink:href="#ABCOracleEdu-Regular-73" x="342.499924"/>
      </g>
     </g>
    </g>
    <g id="ytick_14">
     <g id="line2d_26"/>
     <g id="text_20">
      <!-- Philadelphia -->
      <g style="fill: #3d3733" transform="translate(31.917188 203.838619) scale(0.1 -0.1)">
       <defs>
        <path id="ABCOracleEdu-Regular-50" d="M 2003 2368 
L 1248 2368 
L 1248 3917 
L 2003 3917 
C 2579 3917 3014 3667 3014 3142 
C 3014 2618 2579 2368 2003 2368 
z
M 576 0 
L 1248 0 
L 1248 1779 
L 2035 1779 
C 3034 1779 3699 2355 3699 3142 
C 3699 3936 3027 4480 2035 4480 
L 576 4480 
L 576 0 
z
" transform="scale(0.015625)"/>
        <path id="ABCOracleEdu-Regular-64" d="M 1722 -96 
C 2227 -96 2560 134 2746 442 
L 2746 0 
L 3392 0 
L 3392 4480 
L 2746 4480 
L 2746 2803 
C 2560 3110 2227 3341 1722 3341 
C 890 3341 275 2688 275 1626 
C 275 570 890 -96 1722 -96 
z
M 1830 429 
C 1267 429 934 909 934 1626 
C 934 2349 1267 2816 1830 2816 
C 2368 2816 2758 2317 2758 1626 
C 2758 941 2368 429 1830 429 
z
" transform="scale(0.015625)"/>
       </defs>
       <use xlink:href="#ABCOracleEdu-Regular-50"/>
       <use xlink:href="#ABCOracleEdu-Regular-68" x="60.599991"/>
       <use xlink:href="#ABCOracleEdu-Regular-69" x="118.199982"/>
       <use xlink:href="#ABCOracleEdu-Regular-6c" x="144.099976"/>
       <use xlink:href="#ABCOracleEdu-Regular-61" x="169.999969"/>
       <use xlink:href="#ABCOracleEdu-Regular-64" x="225.399963"/>
       <use xlink:href="#ABCOracleEdu-Regular-65" x="286.299957"/>
       <use xlink:href="#ABCOracleEdu-Regular-6c" x="344.099945"/>
       <use xlink:href="#ABCOracleEdu-Regular-70" x="369.999939"/>
       <use xlink:href="#ABCOracleEdu-Regular-68" x="430.899933"/>
       <use xlink:href="#ABCOracleEdu-Regular-69" x="488.499924"/>
       <use xlink:href="#ABCOracleEdu-Regular-61" x="514.399918"/>
      </g>
     </g>
    </g>
    <g id="ytick_15">
     <g id="line2d_27"/>
     <g id="text_21">
      <!-- Charlotte -->
      <g style="fill: #3d3733" transform="translate(45.229688 185.606492) scale(0.1 -0.1)">
       <use xlink:href="#ABCOracleEdu-Regular-43"/>
       <use xlink:href="#ABCOracleEdu-Regular-68" x="73.399994"/>
       <use xlink:href="#ABCOracleEdu-Regular-61" x="130.999985"/>
       <use xlink:href="#ABCOracleEdu-Regular-72" x="186.399979"/>
       <use xlink:href="#ABCOracleEdu-Regular-6c" x="224.399963"/>
       <use xlink:href="#ABCOracleEdu-Regular-6f" x="250.299957"/>
       <use xlink:href="#ABCOracleEdu-Regular-74" x="309.299942"/>
       <use xlink:href="#ABCOracleEdu-Regular-74" x="344.09993"/>
       <use xlink:href="#ABCOracleEdu-Regular-65" x="378.899918"/>
      </g>
     </g>
    </g>
    <g id="ytick_16">
     <g id="line2d_28"/>
     <g id="text_22">
      <!-- Dallas-Fort Worth -->
      <g style="fill: #3d3733" transform="translate(7.2 167.374365) scale(0.1 -0.1)">
       <defs>
        <path id="ABCOracleEdu-Regular-2d" d="M 352 1581 
L 2042 1581 
L 2042 2163 
L 352 2163 
L 352 1581 
z
" transform="scale(0.015625)"/>
        <path id="ABCOracleEdu-Regular-46" d="M 576 0 
L 1248 0 
L 1248 1946 
L 3027 1946 
L 3027 2534 
L 1248 2534 
L 1248 3872 
L 3347 3872 
L 3347 4480 
L 576 4480 
L 576 0 
z
" transform="scale(0.015625)"/>
       </defs>
       <use xlink:href="#ABCOracleEdu-Regular-44"/>
       <use xlink:href="#ABCOracleEdu-Regular-61" x="72.099991"/>
       <use xlink:href="#ABCOracleEdu-Regular-6c" x="127.499985"/>
       <use xlink:href="#ABCOracleEdu-Regular-6c" x="153.399979"/>
       <use xlink:href="#ABCOracleEdu-Regular-61" x="179.299973"/>
       <use xlink:href="#ABCOracleEdu-Regular-73" x="234.699966"/>
       <use xlink:href="#ABCOracleEdu-Regular-2d" x="286.799957"/>
       <use xlink:href="#ABCOracleEdu-Regular-46" x="324.199951"/>
       <use xlink:href="#ABCOracleEdu-Regular-6f" x="379.699936"/>
       <use xlink:href="#ABCOracleEdu-Regular-72" x="438.699921"/>
       <use xlink:href="#ABCOracleEdu-Regular-74" x="476.699905"/>
       <use xlink:href="#ABCOracleEdu-Regular-20" x="511.499893"/>
       <use xlink:href="#ABCOracleEdu-Regular-57" x="535.099884"/>
       <use xlink:href="#ABCOracleEdu-Regular-6f" x="627.599869"/>
       <use xlink:href="#ABCOracleEdu-Regular-72" x="686.599854"/>
       <use xlink:href="#ABCOracleEdu-Regular-74" x="724.599838"/>
       <use xlink:href="#ABCOracleEdu-Regular-68" x="759.399826"/>
      </g>
     </g>
    </g>
    <g id="ytick_17">
     <g id="line2d_29"/>
     <g id="text_23">
      <!-- Pittsburgh -->
      <g style="fill: #3d3733" transform="translate(40.742188 149.142237) scale(0.1 -0.1)">
       <use xlink:href="#ABCOracleEdu-Regular-50"/>
       <use xlink:href="#ABCOracleEdu-Regular-69" x="60.599991"/>
       <use xlink:href="#ABCOracleEdu-Regular-74" x="86.499985"/>
       <use xlink:href="#ABCOracleEdu-Regular-74" x="121.299973"/>
       <use xlink:href="#ABCOracleEdu-Regular-73" x="156.09996"/>
       <use xlink:href="#ABCOracleEdu-Regular-62" x="208.199951"/>
       <use xlink:href="#ABCOracleEdu-Regular-75" x="269.099945"/>
       <use xlink:href="#ABCOracleEdu-Regular-72" x="325.699936"/>
       <use xlink:href="#ABCOracleEdu-Regular-67" x="363.699921"/>
       <use xlink:href="#ABCOracleEdu-Regular-68" x="423.999908"/>
      </g>
     </g>
    </g>
    <g id="ytick_18">
     <g id="line2d_30"/>
     <g id="text_24">
      <!-- Orlando -->
      <g style="fill: #3d3733" transform="translate(51.209375 130.91011) scale(0.1 -0.1)">
       <use xlink:href="#ABCOracleEdu-Regular-4f"/>
       <use xlink:href="#ABCOracleEdu-Regular-72" x="80.099991"/>
       <use xlink:href="#ABCOracleEdu-Regular-6c" x="118.099976"/>
       <use xlink:href="#ABCOracleEdu-Regular-61" x="143.999969"/>
       <use xlink:href="#ABCOracleEdu-Regular-6e" x="199.399963"/>
       <use xlink:href="#ABCOracleEdu-Regular-64" x="256.999954"/>
       <use xlink:href="#ABCOracleEdu-Regular-6f" x="317.899948"/>
      </g>
     </g>
    </g>
    <g id="ytick_19">
     <g id="line2d_31"/>
     <g id="text_25">
      <!-- Atlanta -->
      <g style="fill: #3d3733" transform="translate(55.859375 112.677983) scale(0.1 -0.1)">
       <use xlink:href="#ABCOracleEdu-Regular-41"/>
       <use xlink:href="#ABCOracleEdu-Regular-74" x="66.499985"/>
       <use xlink:href="#ABCOracleEdu-Regular-6c" x="101.299973"/>
       <use xlink:href="#ABCOracleEdu-Regular-61" x="127.199966"/>
       <use xlink:href="#ABCOracleEdu-Regular-6e" x="182.59996"/>
       <use xlink:href="#ABCOracleEdu-Regular-74" x="240.199951"/>
       <use xlink:href="#ABCOracleEdu-Regular-61" x="274.999939"/>
      </g>
     </g>
    </g>
    <g id="ytick_20">
     <g id="line2d_32"/>
     <g id="text_26">
      <!-- Cleveland -->
      <g style="fill: #3d3733" transform="translate(42.357813 94.445856) scale(0.1 -0.1)">
       <use xlink:href="#ABCOracleEdu-Regular-43"/>
       <use xlink:href="#ABCOracleEdu-Regular-6c" x="73.399994"/>
       <use xlink:href="#ABCOracleEdu-Regular-65" x="99.299988"/>
       <use xlink:href="#ABCOracleEdu-Regular-76" x="157.099976"/>
       <use xlink:href="#ABCOracleEdu-Regular-65" x="207.799973"/>
       <use xlink:href="#ABCOracleEdu-Regular-6c" x="265.59996"/>
       <use xlink:href="#ABCOracleEdu-Regular-61" x="291.499954"/>
       <use xlink:href="#ABCOracleEdu-Regular-6e" x="346.899948"/>
       <use xlink:href="#ABCOracleEdu-Regular-64" x="404.499939"/>
      </g>
     </g>
    </g>
    <g id="ytick_21">
     <g id="line2d_33"/>
     <g id="text_27">
      <!-- Richmond -->
      <g style="fill: #3d3733" transform="translate(42.110938 76.213729) scale(0.1 -0.1)">
       <defs>
        <path id="ABCOracleEdu-Regular-52" d="M 576 0 
L 1248 0 
L 1248 1888 
L 1882 1888 
L 3174 0 
L 3968 0 
L 2611 1920 
C 3354 2042 3834 2515 3834 3181 
C 3834 3955 3232 4480 2221 4480 
L 576 4480 
L 576 0 
z
M 1248 2432 
L 1248 3917 
L 2182 3917 
C 2752 3917 3149 3693 3149 3181 
C 3149 2675 2733 2432 2163 2432 
L 1248 2432 
z
" transform="scale(0.015625)"/>
       </defs>
       <use xlink:href="#ABCOracleEdu-Regular-52"/>
       <use xlink:href="#ABCOracleEdu-Regular-69" x="65.599991"/>
       <use xlink:href="#ABCOracleEdu-Regular-63" x="91.499985"/>
       <use xlink:href="#ABCOracleEdu-Regular-68" x="146.799973"/>
       <use xlink:href="#ABCOracleEdu-Regular-6d" x="204.399963"/>
       <use xlink:href="#ABCOracleEdu-Regular-6f" x="290.399948"/>
       <use xlink:href="#ABCOracleEdu-Regular-6e" x="349.399933"/>
       <use xlink:href="#ABCOracleEdu-Regular-64" x="406.999924"/>
      </g>
     </g>
    </g>
   </g>
   <g id="line2d_34">
    <path d="M 320.906878 461.605 
L 320.906878 48.465 
" clip-path="url(#pdca9dae455)" style="fill: none; stroke: #3d3733; stroke-width: 0.8; stroke-linecap: square"/>
   </g>
   <g id="patch_3">
    <path d="M 320.906878 442.825909 
L 116.986818 442.825909 
L 116.986818 431.886633 
L 320.906878 431.886633 
z
" clip-path="url(#pdca9dae455)" style="fill: #0bb4ff; opacity: 0.8"/>
   </g>
   <g id="patch_4">
    <path d="M 320.906878 424.593782 
L 122.606662 424.593782 
L 122.606662 413.654506 
L 320.906878 413.654506 
z
" clip-path="url(#pdca9dae455)" style="fill: #0bb4ff; opacity: 0.8"/>
   </g>
   <g id="patch_5">
    <path d="M 320.906878 406.361655 
L 184.424948 406.361655 
L 184.424948 395.422379 
L 320.906878 395.422379 
z
" clip-path="url(#pdca9dae455)" style="fill: #0bb4ff; opacity: 0.8"/>
   </g>
   <g id="patch_6">
    <path d="M 320.906878 388.129528 
L 211.319917 388.129528 
L 211.319917 377.190252 
L 320.906878 377.190252 
z
" clip-path="url(#pdca9dae455)" style="fill: #0bb4ff; opacity: 0.8"/>
   </g>
   <g id="patch_7">
    <path d="M 320.906878 369.897401 
L 224.165275 369.897401 
L 224.165275 358.958124 
L 320.906878 358.958124 
z
" clip-path="url(#pdca9dae455)" style="fill: #0bb4ff; opacity: 0.8"/>
   </g>
   <g id="patch_8">
    <path d="M 320.906878 351.665274 
L 248.651738 351.665274 
L 248.651738 340.725997 
L 320.906878 340.725997 
z
" clip-path="url(#pdca9dae455)" style="fill: #0bb4ff; opacity: 0.8"/>
   </g>
   <g id="patch_9">
    <path d="M 320.906878 333.433147 
L 264.708436 333.433147 
L 264.708436 322.49387 
L 320.906878 322.49387 
z
" clip-path="url(#pdca9dae455)" style="fill: #0bb4ff; opacity: 0.8"/>
   </g>
   <g id="patch_10">
    <path d="M 320.906878 315.201019 
L 277.152377 315.201019 
L 277.152377 304.261743 
L 320.906878 304.261743 
z
" clip-path="url(#pdca9dae455)" style="fill: #0bb4ff; opacity: 0.8"/>
   </g>
   <g id="patch_11">
    <path d="M 320.906878 296.968892 
L 280.765134 296.968892 
L 280.765134 286.029616 
L 320.906878 286.029616 
z
" clip-path="url(#pdca9dae455)" style="fill: #0bb4ff; opacity: 0.8"/>
   </g>
   <g id="patch_12">
    <path d="M 320.906878 278.736765 
L 286.384978 278.736765 
L 286.384978 267.797489 
L 320.906878 267.797489 
z
" clip-path="url(#pdca9dae455)" style="fill: #0bb4ff; opacity: 0.8"/>
   </g>
   <g id="patch_13">
    <path d="M 320.906878 260.504638 
L 291.201987 260.504638 
L 291.201987 249.565362 
L 320.906878 249.565362 
z
" clip-path="url(#pdca9dae455)" style="fill: #0bb4ff; opacity: 0.8"/>
   </g>
   <g id="patch_14">
    <path d="M 320.906878 242.272511 
L 297.624666 242.272511 
L 297.624666 231.333235 
L 320.906878 231.333235 
z
" clip-path="url(#pdca9dae455)" style="fill: #0bb4ff; opacity: 0.8"/>
   </g>
   <g id="patch_15">
    <path d="M 320.906878 224.040384 
L 327.730974 224.040384 
L 327.730974 213.101108 
L 320.906878 213.101108 
z
" clip-path="url(#pdca9dae455)" style="fill: #f4743b; opacity: 0.8"/>
   </g>
   <g id="patch_16">
    <path d="M 320.906878 205.808257 
L 352.618855 205.808257 
L 352.618855 194.868981 
L 320.906878 194.868981 
z
" clip-path="url(#pdca9dae455)" style="fill: #f4743b; opacity: 0.8"/>
   </g>
   <g id="patch_17">
    <path d="M 320.906878 187.57613 
L 389.54926 187.57613 
L 389.54926 176.636853 
L 320.906878 176.636853 
z
" clip-path="url(#pdca9dae455)" style="fill: #f4743b; opacity: 0.8"/>
   </g>
   <g id="patch_18">
    <path d="M 320.906878 169.344003 
L 422.866907 169.344003 
L 422.866907 158.404726 
L 320.906878 158.404726 
z
" clip-path="url(#pdca9dae455)" style="fill: #f4743b; opacity: 0.8"/>
   </g>
   <g id="patch_19">
    <path d="M 320.906878 151.111876 
L 466.621408 151.111876 
L 466.621408 140.172599 
L 320.906878 140.172599 
z
" clip-path="url(#pdca9dae455)" style="fill: #f4743b; opacity: 0.8"/>
   </g>
   <g id="patch_20">
    <path d="M 320.906878 132.879748 
L 494.720629 132.879748 
L 494.720629 121.940472 
L 320.906878 121.940472 
z
" clip-path="url(#pdca9dae455)" style="fill: #f4743b; opacity: 0.8"/>
   </g>
   <g id="patch_21">
    <path d="M 320.906878 114.647621 
L 562.560176 114.647621 
L 562.560176 103.708345 
L 320.906878 103.708345 
z
" clip-path="url(#pdca9dae455)" style="fill: #f4743b; opacity: 0.8"/>
   </g>
   <g id="patch_22">
    <path d="M 320.906878 96.415494 
L 607.117512 96.415494 
L 607.117512 85.476218 
L 320.906878 85.476218 
z
" clip-path="url(#pdca9dae455)" style="fill: #f4743b; opacity: 0.8"/>
   </g>
   <g id="patch_23">
    <path d="M 320.906878 78.183367 
L 608.723182 78.183367 
L 608.723182 67.244091 
L 320.906878 67.244091 
z
" clip-path="url(#pdca9dae455)" style="fill: #f4743b; opacity: 0.8"/>
   </g>
   <g id="text_28">
    <!-- ← Blue counties happier -->
    <g style="fill: #0bb4ff" transform="translate(103.2182 457.4736) scale(0.09 -0.09)">
     <defs>
      <path id="ABCOracleEdu-Regular-2190" d="M 1971 602 
L 2842 602 
L 1523 1920 
L 5197 1920 
L 5197 2560 
L 1523 2560 
L 2842 3878 
L 1971 3878 
L 333 2240 
L 1971 602 
z
" transform="scale(0.015625)"/>
     </defs>
     <use xlink:href="#ABCOracleEdu-Regular-2190"/>
     <use xlink:href="#ABCOracleEdu-Regular-20" x="86.499985"/>
     <use xlink:href="#ABCOracleEdu-Regular-42" x="110.099976"/>
     <use xlink:href="#ABCOracleEdu-Regular-6c" x="172.199966"/>
     <use xlink:href="#ABCOracleEdu-Regular-75" x="198.09996"/>
     <use xlink:href="#ABCOracleEdu-Regular-65" x="254.699951"/>
     <use xlink:href="#ABCOracleEdu-Regular-20" x="312.499939"/>
     <use xlink:href="#ABCOracleEdu-Regular-63" x="336.09993"/>
     <use xlink:href="#ABCOracleEdu-Regular-6f" x="391.399918"/>
     <use xlink:href="#ABCOracleEdu-Regular-75" x="450.399902"/>
     <use xlink:href="#ABCOracleEdu-Regular-6e" x="506.999893"/>
     <use xlink:href="#ABCOracleEdu-Regular-74" x="564.599884"/>
     <use xlink:href="#ABCOracleEdu-Regular-69" x="599.399872"/>
     <use xlink:href="#ABCOracleEdu-Regular-65" x="625.299866"/>
     <use xlink:href="#ABCOracleEdu-Regular-73" x="683.099854"/>
     <use xlink:href="#ABCOracleEdu-Regular-20" x="735.199844"/>
     <use xlink:href="#ABCOracleEdu-Regular-68" x="758.799835"/>
     <use xlink:href="#ABCOracleEdu-Regular-61" x="816.399826"/>
     <use xlink:href="#ABCOracleEdu-Regular-70" x="871.79982"/>
     <use xlink:href="#ABCOracleEdu-Regular-70" x="932.699814"/>
     <use xlink:href="#ABCOracleEdu-Regular-69" x="993.599808"/>
     <use xlink:href="#ABCOracleEdu-Regular-65" x="1019.499802"/>
     <use xlink:href="#ABCOracleEdu-Regular-72" x="1077.299789"/>
    </g>
   </g>
   <g id="text_29">
    <!-- Red counties happier → -->
    <g style="fill: #f4743b" transform="translate(523.746331 457.4736) scale(0.09 -0.09)">
     <defs>
      <path id="ABCOracleEdu-Regular-2192" d="M 2694 602 
L 3565 602 
L 5203 2240 
L 3565 3878 
L 2694 3878 
L 4013 2560 
L 339 2560 
L 339 1920 
L 4013 1920 
L 2694 602 
z
" transform="scale(0.015625)"/>
     </defs>
     <use xlink:href="#ABCOracleEdu-Regular-52"/>
     <use xlink:href="#ABCOracleEdu-Regular-65" x="65.599991"/>
     <use xlink:href="#ABCOracleEdu-Regular-64" x="123.399979"/>
     <use xlink:href="#ABCOracleEdu-Regular-20" x="184.299973"/>
     <use xlink:href="#ABCOracleEdu-Regular-63" x="207.899963"/>
     <use xlink:href="#ABCOracleEdu-Regular-6f" x="263.199951"/>
     <use xlink:href="#ABCOracleEdu-Regular-75" x="322.199936"/>
     <use xlink:href="#ABCOracleEdu-Regular-6e" x="378.799927"/>
     <use xlink:href="#ABCOracleEdu-Regular-74" x="436.399918"/>
     <use xlink:href="#ABCOracleEdu-Regular-69" x="471.199905"/>
     <use xlink:href="#ABCOracleEdu-Regular-65" x="497.099899"/>
     <use xlink:href="#ABCOracleEdu-Regular-73" x="554.899887"/>
     <use xlink:href="#ABCOracleEdu-Regular-20" x="606.999878"/>
     <use xlink:href="#ABCOracleEdu-Regular-68" x="630.599869"/>
     <use xlink:href="#ABCOracleEdu-Regular-61" x="688.19986"/>
     <use xlink:href="#ABCOracleEdu-Regular-70" x="743.599854"/>
     <use xlink:href="#ABCOracleEdu-Regular-70" x="804.499847"/>
     <use xlink:href="#ABCOracleEdu-Regular-69" x="865.399841"/>
     <use xlink:href="#ABCOracleEdu-Regular-65" x="891.299835"/>
     <use xlink:href="#ABCOracleEdu-Regular-72" x="949.099823"/>
     <use xlink:href="#ABCOracleEdu-Regular-20" x="987.099808"/>
     <use xlink:href="#ABCOracleEdu-Regular-2192" x="1010.699799"/>
    </g>
   </g>
   <g id="text_30">
    <!-- Difference in average happiness (red county minus blue county within same metro) -->
    <g style="fill: #666666" transform="translate(92.4 40.2022) scale(0.11 -0.11)">
     <defs>
      <path id="ABCOracleEdu-Regular-66" d="M 717 3552 
L 717 3245 
L 122 3245 
L 122 2758 
L 717 2758 
L 717 0 
L 1370 0 
L 1370 2758 
L 2221 2758 
L 2221 3245 
L 1370 3245 
L 1370 3488 
C 1370 3885 1555 4038 1882 4038 
C 1971 4038 2074 4026 2182 4006 
L 2182 4538 
C 2074 4557 1946 4570 1792 4570 
C 1133 4570 717 4237 717 3552 
z
" transform="scale(0.015625)"/>
      <path id="ABCOracleEdu-Regular-28" d="M 1318 -576 
L 1901 -576 
C 1312 205 960 1056 960 2080 
C 960 3104 1312 3949 1901 4736 
L 1318 4736 
C 749 4051 314 3072 314 2080 
C 314 1088 749 102 1318 -576 
z
" transform="scale(0.015625)"/>
      <path id="ABCOracleEdu-Regular-79" d="M 749 -1312 
C 1178 -1312 1446 -1184 1638 -966 
C 1805 -774 1894 -518 2003 -186 
L 3168 3245 
L 2502 3245 
L 1894 1280 
C 1824 1056 1766 883 1683 538 
L 1670 538 
C 1581 870 1523 1056 1446 1274 
L 794 3245 
L 83 3245 
L 1178 237 
C 1254 32 1286 -83 1286 -237 
C 1286 -589 1056 -774 698 -774 
C 614 -774 525 -768 435 -742 
L 435 -1286 
C 550 -1306 653 -1312 749 -1312 
z
" transform="scale(0.015625)"/>
      <path id="ABCOracleEdu-Regular-29" d="M 762 4736 
L 179 4736 
C 768 3955 1120 3104 1120 2080 
C 1120 1056 768 211 179 -576 
L 762 -576 
C 1331 109 1766 1088 1766 2080 
C 1766 3072 1331 4058 762 4736 
z
" transform="scale(0.015625)"/>
     </defs>
     <use xlink:href="#ABCOracleEdu-Regular-44"/>
     <use xlink:href="#ABCOracleEdu-Regular-69" x="72.099991"/>
     <use xlink:href="#ABCOracleEdu-Regular-66" x="97.999985"/>
     <use xlink:href="#ABCOracleEdu-Regular-66" x="134.399979"/>
     <use xlink:href="#ABCOracleEdu-Regular-65" x="170.799973"/>
     <use xlink:href="#ABCOracleEdu-Regular-72" x="228.59996"/>
     <use xlink:href="#ABCOracleEdu-Regular-65" x="266.599945"/>
     <use xlink:href="#ABCOracleEdu-Regular-6e" x="324.399933"/>
     <use xlink:href="#ABCOracleEdu-Regular-63" x="381.999924"/>
     <use xlink:href="#ABCOracleEdu-Regular-65" x="437.299911"/>
     <use xlink:href="#ABCOracleEdu-Regular-20" x="495.099899"/>
     <use xlink:href="#ABCOracleEdu-Regular-69" x="518.69989"/>
     <use xlink:href="#ABCOracleEdu-Regular-6e" x="544.599884"/>
     <use xlink:href="#ABCOracleEdu-Regular-20" x="602.199875"/>
     <use xlink:href="#ABCOracleEdu-Regular-61" x="625.799866"/>
     <use xlink:href="#ABCOracleEdu-Regular-76" x="681.19986"/>
     <use xlink:href="#ABCOracleEdu-Regular-65" x="731.899857"/>
     <use xlink:href="#ABCOracleEdu-Regular-72" x="789.699844"/>
     <use xlink:href="#ABCOracleEdu-Regular-61" x="827.699829"/>
     <use xlink:href="#ABCOracleEdu-Regular-67" x="883.099823"/>
     <use xlink:href="#ABCOracleEdu-Regular-65" x="943.399811"/>
     <use xlink:href="#ABCOracleEdu-Regular-20" x="1001.199799"/>
     <use xlink:href="#ABCOracleEdu-Regular-68" x="1024.799789"/>
     <use xlink:href="#ABCOracleEdu-Regular-61" x="1082.39978"/>
     <use xlink:href="#ABCOracleEdu-Regular-70" x="1137.799774"/>
     <use xlink:href="#ABCOracleEdu-Regular-70" x="1198.699768"/>
     <use xlink:href="#ABCOracleEdu-Regular-69" x="1259.599762"/>
     <use xlink:href="#ABCOracleEdu-Regular-6e" x="1285.499756"/>
     <use xlink:href="#ABCOracleEdu-Regular-65" x="1343.099747"/>
     <use xlink:href="#ABCOracleEdu-Regular-73" x="1400.899734"/>
     <use xlink:href="#ABCOracleEdu-Regular-73" x="1452.999725"/>
     <use xlink:href="#ABCOracleEdu-Regular-20" x="1505.099716"/>
     <use xlink:href="#ABCOracleEdu-Regular-28" x="1528.699707"/>
     <use xlink:href="#ABCOracleEdu-Regular-72" x="1561.199692"/>
     <use xlink:href="#ABCOracleEdu-Regular-65" x="1599.199677"/>
     <use xlink:href="#ABCOracleEdu-Regular-64" x="1656.999664"/>
     <use xlink:href="#ABCOracleEdu-Regular-20" x="1717.899658"/>
     <use xlink:href="#ABCOracleEdu-Regular-63" x="1741.499649"/>
     <use xlink:href="#ABCOracleEdu-Regular-6f" x="1796.799637"/>
     <use xlink:href="#ABCOracleEdu-Regular-75" x="1855.799622"/>
     <use xlink:href="#ABCOracleEdu-Regular-6e" x="1912.399612"/>
     <use xlink:href="#ABCOracleEdu-Regular-74" x="1969.999603"/>
     <use xlink:href="#ABCOracleEdu-Regular-79" x="2004.799591"/>
     <use xlink:href="#ABCOracleEdu-Regular-20" x="2056.199585"/>
     <use xlink:href="#ABCOracleEdu-Regular-6d" x="2079.799576"/>
     <use xlink:href="#ABCOracleEdu-Regular-69" x="2165.799561"/>
     <use xlink:href="#ABCOracleEdu-Regular-6e" x="2191.699554"/>
     <use xlink:href="#ABCOracleEdu-Regular-75" x="2249.299545"/>
     <use xlink:href="#ABCOracleEdu-Regular-73" x="2305.899536"/>
     <use xlink:href="#ABCOracleEdu-Regular-20" x="2357.999527"/>
     <use xlink:href="#ABCOracleEdu-Regular-62" x="2381.599518"/>
     <use xlink:href="#ABCOracleEdu-Regular-6c" x="2442.499512"/>
     <use xlink:href="#ABCOracleEdu-Regular-75" x="2468.399506"/>
     <use xlink:href="#ABCOracleEdu-Regular-65" x="2524.999496"/>
     <use xlink:href="#ABCOracleEdu-Regular-20" x="2582.799484"/>
     <use xlink:href="#ABCOracleEdu-Regular-63" x="2606.399475"/>
     <use xlink:href="#ABCOracleEdu-Regular-6f" x="2661.699463"/>
     <use xlink:href="#ABCOracleEdu-Regular-75" x="2720.699448"/>
     <use xlink:href="#ABCOracleEdu-Regular-6e" x="2777.299438"/>
     <use xlink:href="#ABCOracleEdu-Regular-74" x="2834.899429"/>
     <use xlink:href="#ABCOracleEdu-Regular-79" x="2869.699417"/>
     <use xlink:href="#ABCOracleEdu-Regular-20" x="2921.099411"/>
     <use xlink:href="#ABCOracleEdu-Regular-77" x="2944.699402"/>
     <use xlink:href="#ABCOracleEdu-Regular-69" x="3022.299393"/>
     <use xlink:href="#ABCOracleEdu-Regular-74" x="3048.199387"/>
     <use xlink:href="#ABCOracleEdu-Regular-68" x="3082.999374"/>
     <use xlink:href="#ABCOracleEdu-Regular-69" x="3140.599365"/>
     <use xlink:href="#ABCOracleEdu-Regular-6e" x="3166.499359"/>
     <use xlink:href="#ABCOracleEdu-Regular-20" x="3224.09935"/>
     <use xlink:href="#ABCOracleEdu-Regular-73" x="3247.699341"/>
     <use xlink:href="#ABCOracleEdu-Regular-61" x="3299.799332"/>
     <use xlink:href="#ABCOracleEdu-Regular-6d" x="3355.199326"/>
     <use xlink:href="#ABCOracleEdu-Regular-65" x="3441.19931"/>
     <use xlink:href="#ABCOracleEdu-Regular-20" x="3498.999298"/>
     <use xlink:href="#ABCOracleEdu-Regular-6d" x="3522.599289"/>
     <use xlink:href="#ABCOracleEdu-Regular-65" x="3608.599274"/>
     <use xlink:href="#ABCOracleEdu-Regular-74" x="3666.399261"/>
     <use xlink:href="#ABCOracleEdu-Regular-72" x="3701.199249"/>
     <use xlink:href="#ABCOracleEdu-Regular-6f" x="3739.199234"/>
     <use xlink:href="#ABCOracleEdu-Regular-29" x="3798.199219"/>
    </g>
   </g>
   <g id="text_31">
    <!-- Within-metro happiness gap: red vs. blue counties -->
    <g style="fill: #3d3733" transform="translate(92.4 18.465) scale(0.16 -0.16)">
     <defs>
      <path id="ABCOracleEdu-Bold-57" d="M 1120 0 
L 2368 0 
L 3034 3200 
L 3693 0 
L 4928 0 
L 5888 4480 
L 4934 4480 
L 4282 1037 
L 3642 4480 
L 2502 4480 
L 1824 934 
L 1146 4480 
L 160 4480 
L 1120 0 
z
" transform="scale(0.015625)"/>
      <path id="ABCOracleEdu-Bold-69" d="M 410 0 
L 1280 0 
L 1280 3290 
L 410 3290 
L 410 0 
z
M 346 3642 
L 1338 3642 
L 1338 4506 
L 346 4506 
L 346 3642 
z
" transform="scale(0.015625)"/>
      <path id="ABCOracleEdu-Bold-74" d="M 653 4262 
L 653 3290 
L 90 3290 
L 90 2618 
L 653 2618 
L 653 992 
C 653 205 1146 -32 1702 -32 
C 1920 -32 2125 0 2234 38 
L 2234 672 
C 2118 646 2022 634 1939 634 
C 1626 634 1510 813 1510 1139 
L 1510 2618 
L 2170 2618 
L 2170 3290 
L 1510 3290 
L 1510 4262 
L 653 4262 
z
" transform="scale(0.015625)"/>
      <path id="ABCOracleEdu-Bold-68" d="M 410 0 
L 1293 0 
L 1293 1830 
C 1293 2432 1626 2682 1946 2682 
C 2330 2682 2426 2413 2426 2125 
L 2426 0 
L 3309 0 
L 3309 2189 
C 3309 2957 2906 3386 2234 3386 
C 1715 3386 1427 3110 1293 2912 
L 1293 4480 
L 410 4480 
L 410 0 
z
" transform="scale(0.015625)"/>
      <path id="ABCOracleEdu-Bold-6e" d="M 410 0 
L 1293 0 
L 1293 1830 
C 1293 2432 1626 2682 1946 2682 
C 2330 2682 2426 2413 2426 2125 
L 2426 0 
L 3309 0 
L 3309 2189 
C 3309 2957 2906 3386 2234 3386 
C 1696 3386 1402 3091 1267 2874 
L 1267 3290 
L 410 3290 
L 410 0 
z
" transform="scale(0.015625)"/>
      <path id="ABCOracleEdu-Bold-2d" d="M 314 1485 
L 2106 1485 
L 2106 2253 
L 314 2253 
L 314 1485 
z
" transform="scale(0.015625)"/>
      <path id="ABCOracleEdu-Bold-6d" d="M 410 0 
L 1293 0 
L 1293 1907 
C 1293 2381 1498 2662 1882 2662 
C 2195 2662 2342 2451 2342 2099 
L 2342 0 
L 3226 0 
L 3226 1907 
C 3226 2394 3430 2662 3814 2662 
C 4128 2662 4275 2451 4275 2099 
L 4275 0 
L 5165 0 
L 5165 2208 
C 5165 2931 4723 3386 4026 3386 
C 3552 3386 3219 3194 3014 2874 
C 2854 3187 2547 3386 2163 3386 
C 1779 3386 1453 3226 1261 2906 
L 1261 3290 
L 410 3290 
L 410 0 
z
" transform="scale(0.015625)"/>
      <path id="ABCOracleEdu-Bold-65" d="M 1952 -96 
C 2765 -96 3315 288 3501 870 
L 2579 870 
C 2490 704 2298 582 1965 582 
C 1498 582 1146 902 1107 1382 
L 3603 1382 
C 3590 2675 2886 3386 1901 3386 
C 979 3386 205 2662 205 1638 
C 205 614 864 -96 1952 -96 
z
M 1114 1990 
C 1184 2400 1510 2707 1933 2707 
C 2387 2707 2656 2400 2726 1990 
L 1114 1990 
z
" transform="scale(0.015625)"/>
      <path id="ABCOracleEdu-Bold-72" d="M 410 0 
L 1293 0 
L 1293 1338 
C 1293 1958 1459 2381 1882 2522 
C 2035 2573 2227 2573 2445 2554 
L 2445 3379 
C 1798 3411 1498 3187 1274 2579 
L 1274 3290 
L 410 3290 
L 410 0 
z
" transform="scale(0.015625)"/>
      <path id="ABCOracleEdu-Bold-6f" d="M 1933 -96 
C 2906 -96 3661 621 3661 1645 
C 3661 2669 2906 3386 1933 3386 
C 960 3386 205 2669 205 1645 
C 205 621 960 -96 1933 -96 
z
M 1933 608 
C 1427 608 1107 973 1107 1645 
C 1107 2317 1427 2682 1933 2682 
C 2438 2682 2758 2317 2758 1645 
C 2758 973 2438 608 1933 608 
z
" transform="scale(0.015625)"/>
      <path id="ABCOracleEdu-Bold-20" transform="scale(0.015625)"/>
      <path id="ABCOracleEdu-Bold-61" d="M 1350 -90 
C 1850 -90 2221 115 2413 422 
C 2432 243 2464 90 2483 0 
L 3354 0 
C 3296 218 3245 525 3245 794 
L 3245 2349 
C 3245 3034 2790 3386 1875 3386 
C 986 3386 454 3008 326 2400 
L 1274 2400 
C 1325 2624 1530 2771 1856 2771 
C 2189 2771 2374 2630 2374 2374 
C 2374 2042 2112 1990 1734 1946 
L 1466 1914 
C 1005 1856 179 1741 179 922 
C 179 269 691 -90 1350 -90 
z
M 1626 563 
C 1325 563 1101 698 1101 947 
C 1101 1267 1376 1331 1779 1402 
C 2086 1453 2240 1504 2374 1664 
L 2374 1338 
C 2374 890 2067 563 1626 563 
z
" transform="scale(0.015625)"/>
      <path id="ABCOracleEdu-Bold-70" d="M 410 -1248 
L 1293 -1248 
L 1293 397 
C 1453 122 1811 -96 2259 -96 
C 3091 -96 3738 557 3738 1645 
C 3738 2733 3091 3386 2259 3386 
C 1811 3386 1453 3194 1293 2912 
L 1293 3290 
L 410 3290 
L 410 -1248 
z
M 2067 595 
C 1587 595 1280 1037 1280 1645 
C 1280 2253 1587 2694 2067 2694 
C 2579 2694 2835 2285 2835 1645 
C 2835 1005 2579 595 2067 595 
z
" transform="scale(0.015625)"/>
      <path id="ABCOracleEdu-Bold-73" d="M 1747 -96 
C 2624 -96 3270 314 3270 992 
C 3270 1594 2714 1856 2048 1997 
L 1683 2074 
C 1306 2150 1158 2227 1158 2432 
C 1158 2650 1370 2771 1658 2771 
C 1978 2771 2195 2643 2253 2400 
L 3149 2400 
C 3085 2944 2592 3386 1677 3386 
C 864 3386 275 3002 275 2374 
C 275 1811 666 1530 1408 1370 
L 1798 1286 
C 2234 1197 2387 1101 2387 896 
C 2387 653 2150 518 1798 518 
C 1357 518 1139 742 1101 1056 
L 154 1056 
C 186 371 749 -96 1747 -96 
z
" transform="scale(0.015625)"/>
      <path id="ABCOracleEdu-Bold-67" d="M 1869 -1344 
C 3034 -1344 3514 -742 3514 109 
L 3514 3290 
L 2630 3290 
L 2630 2886 
C 2464 3174 2118 3386 1683 3386 
C 864 3386 218 2822 218 1734 
C 218 646 864 90 1683 90 
C 2150 90 2470 307 2630 589 
L 2630 77 
C 2630 -429 2406 -685 1882 -685 
C 1536 -685 1318 -550 1254 -288 
L 352 -288 
C 442 -960 928 -1344 1869 -1344 
z
M 1875 762 
C 1376 762 1120 1133 1120 1741 
C 1120 2349 1376 2714 1875 2714 
C 2342 2714 2643 2304 2643 1741 
C 2643 1171 2342 762 1875 762 
z
" transform="scale(0.015625)"/>
      <path id="ABCOracleEdu-Bold-3a" d="M 352 2298 
L 1344 2298 
L 1344 3290 
L 352 3290 
L 352 2298 
z
M 352 0 
L 1344 0 
L 1344 992 
L 352 992 
L 352 0 
z
" transform="scale(0.015625)"/>
      <path id="ABCOracleEdu-Bold-64" d="M 1696 -96 
C 2144 -96 2502 96 2662 378 
L 2662 0 
L 3546 0 
L 3546 4480 
L 2662 4480 
L 2662 2893 
C 2502 3168 2144 3386 1696 3386 
C 864 3386 218 2733 218 1645 
C 218 557 864 -96 1696 -96 
z
M 1888 595 
C 1376 595 1120 1005 1120 1645 
C 1120 2285 1376 2694 1888 2694 
C 2368 2694 2675 2253 2675 1645 
C 2675 1037 2368 595 1888 595 
z
" transform="scale(0.015625)"/>
      <path id="ABCOracleEdu-Bold-76" d="M 1165 0 
L 2278 0 
L 3392 3290 
L 2451 3290 
L 1958 1574 
L 1741 794 
L 1728 794 
L 1517 1574 
L 1024 3290 
L 38 3290 
L 1165 0 
z
" transform="scale(0.015625)"/>
      <path id="ABCOracleEdu-Bold-2e" d="M 339 0 
L 1331 0 
L 1331 992 
L 339 992 
L 339 0 
z
" transform="scale(0.015625)"/>
      <path id="ABCOracleEdu-Bold-62" d="M 2259 -96 
C 3091 -96 3738 557 3738 1645 
C 3738 2733 3091 3386 2259 3386 
C 1811 3386 1453 3194 1293 2912 
L 1293 4480 
L 410 4480 
L 410 0 
L 1293 0 
L 1293 397 
C 1453 122 1811 -96 2259 -96 
z
M 2067 595 
C 1587 595 1280 1037 1280 1645 
C 1280 2253 1587 2694 2067 2694 
C 2579 2694 2835 2285 2835 1645 
C 2835 1005 2579 595 2067 595 
z
" transform="scale(0.015625)"/>
      <path id="ABCOracleEdu-Bold-6c" d="M 410 0 
L 1293 0 
L 1293 4480 
L 410 4480 
L 410 0 
z
" transform="scale(0.015625)"/>
      <path id="ABCOracleEdu-Bold-75" d="M 1466 -96 
C 1926 -96 2202 83 2381 371 
L 2381 0 
L 3245 0 
L 3245 3290 
L 2362 3290 
L 2362 1498 
C 2362 870 2080 621 1773 621 
C 1389 621 1261 896 1261 1280 
L 1261 3290 
L 378 3290 
L 378 1120 
C 378 288 870 -96 1466 -96 
z
" transform="scale(0.015625)"/>
      <path id="ABCOracleEdu-Bold-63" d="M 1888 -96 
C 2765 -96 3341 442 3424 1082 
L 2566 1082 
C 2483 832 2272 621 1901 621 
C 1446 621 1133 986 1133 1638 
C 1133 2291 1446 2669 1901 2669 
C 2272 2669 2483 2458 2566 2208 
L 3424 2208 
C 3334 2848 2778 3386 1914 3386 
C 902 3386 211 2662 211 1638 
C 211 595 890 -96 1888 -96 
z
" transform="scale(0.015625)"/>
     </defs>
     <use xlink:href="#ABCOracleEdu-Bold-57"/>
     <use xlink:href="#ABCOracleEdu-Bold-69" x="94.499985"/>
     <use xlink:href="#ABCOracleEdu-Bold-74" x="120.899979"/>
     <use xlink:href="#ABCOracleEdu-Bold-68" x="158.599976"/>
     <use xlink:href="#ABCOracleEdu-Bold-69" x="216.299973"/>
     <use xlink:href="#ABCOracleEdu-Bold-6e" x="242.699966"/>
     <use xlink:href="#ABCOracleEdu-Bold-2d" x="300.399963"/>
     <use xlink:href="#ABCOracleEdu-Bold-6d" x="338.199951"/>
     <use xlink:href="#ABCOracleEdu-Bold-65" x="424.899933"/>
     <use xlink:href="#ABCOracleEdu-Bold-74" x="484.09993"/>
     <use xlink:href="#ABCOracleEdu-Bold-72" x="521.799927"/>
     <use xlink:href="#ABCOracleEdu-Bold-6f" x="561.699921"/>
     <use xlink:href="#ABCOracleEdu-Bold-20" x="622.099915"/>
     <use xlink:href="#ABCOracleEdu-Bold-68" x="643.499908"/>
     <use xlink:href="#ABCOracleEdu-Bold-61" x="701.199905"/>
     <use xlink:href="#ABCOracleEdu-Bold-70" x="757.999893"/>
     <use xlink:href="#ABCOracleEdu-Bold-70" x="819.799881"/>
     <use xlink:href="#ABCOracleEdu-Bold-69" x="881.599869"/>
     <use xlink:href="#ABCOracleEdu-Bold-6e" x="907.999863"/>
     <use xlink:href="#ABCOracleEdu-Bold-65" x="965.69986"/>
     <use xlink:href="#ABCOracleEdu-Bold-73" x="1024.899857"/>
     <use xlink:href="#ABCOracleEdu-Bold-73" x="1078.599854"/>
     <use xlink:href="#ABCOracleEdu-Bold-20" x="1132.29985"/>
     <use xlink:href="#ABCOracleEdu-Bold-67" x="1153.699844"/>
     <use xlink:href="#ABCOracleEdu-Bold-61" x="1214.899841"/>
     <use xlink:href="#ABCOracleEdu-Bold-70" x="1271.699829"/>
     <use xlink:href="#ABCOracleEdu-Bold-3a" x="1333.499817"/>
     <use xlink:href="#ABCOracleEdu-Bold-20" x="1359.999802"/>
     <use xlink:href="#ABCOracleEdu-Bold-72" x="1381.399796"/>
     <use xlink:href="#ABCOracleEdu-Bold-65" x="1421.299789"/>
     <use xlink:href="#ABCOracleEdu-Bold-64" x="1480.499786"/>
     <use xlink:href="#ABCOracleEdu-Bold-20" x="1542.299774"/>
     <use xlink:href="#ABCOracleEdu-Bold-76" x="1563.699768"/>
     <use xlink:href="#ABCOracleEdu-Bold-73" x="1617.399765"/>
     <use xlink:href="#ABCOracleEdu-Bold-2e" x="1671.099762"/>
     <use xlink:href="#ABCOracleEdu-Bold-20" x="1697.199753"/>
     <use xlink:href="#ABCOracleEdu-Bold-62" x="1718.599747"/>
     <use xlink:href="#ABCOracleEdu-Bold-6c" x="1780.399734"/>
     <use xlink:href="#ABCOracleEdu-Bold-75" x="1806.999725"/>
     <use xlink:href="#ABCOracleEdu-Bold-65" x="1864.099716"/>
     <use xlink:href="#ABCOracleEdu-Bold-20" x="1923.299713"/>
     <use xlink:href="#ABCOracleEdu-Bold-63" x="1944.699707"/>
     <use xlink:href="#ABCOracleEdu-Bold-6f" x="2000.999695"/>
     <use xlink:href="#ABCOracleEdu-Bold-75" x="2061.399689"/>
     <use xlink:href="#ABCOracleEdu-Bold-6e" x="2118.49968"/>
     <use xlink:href="#ABCOracleEdu-Bold-74" x="2176.199677"/>
     <use xlink:href="#ABCOracleEdu-Bold-69" x="2213.899673"/>
     <use xlink:href="#ABCOracleEdu-Bold-65" x="2240.299667"/>
     <use xlink:href="#ABCOracleEdu-Bold-73" x="2299.499664"/>
    </g>
   </g>
  </g>
  <g id="text_32">
   <!-- Source: ATUS Well-Being Module; 2020 presidential election results -->
   <g style="fill: #999999" transform="translate(73.87 503.745) scale(0.08 -0.08)">
    <defs>
     <path id="ABCOracleEdu-Regular-3a" d="M 422 2470 
L 1171 2470 
L 1171 3245 
L 422 3245 
L 422 2470 
z
M 422 0 
L 1171 0 
L 1171 774 
L 422 774 
L 422 0 
z
" transform="scale(0.015625)"/>
     <path id="ABCOracleEdu-Regular-54" d="M 1370 0 
L 2042 0 
L 2042 3872 
L 3264 3872 
L 3264 4480 
L 147 4480 
L 147 3872 
L 1370 3872 
L 1370 0 
z
" transform="scale(0.015625)"/>
     <path id="ABCOracleEdu-Regular-55" d="M 2208 -96 
C 3200 -96 3885 557 3885 1632 
L 3885 4480 
L 3213 4480 
L 3213 1728 
C 3213 960 2867 512 2208 512 
C 1555 512 1203 960 1203 1728 
L 1203 4480 
L 531 4480 
L 531 1632 
C 531 557 1216 -96 2208 -96 
z
" transform="scale(0.015625)"/>
     <path id="ABCOracleEdu-Regular-3b" d="M 480 2470 
L 1229 2470 
L 1229 3245 
L 480 3245 
L 480 2470 
z
M 397 -986 
L 838 -986 
C 1094 -666 1235 -339 1235 230 
L 1235 774 
L 486 774 
L 486 0 
L 838 0 
C 819 -365 646 -678 397 -986 
z
" transform="scale(0.015625)"/>
    </defs>
    <use xlink:href="#ABCOracleEdu-Regular-53"/>
    <use xlink:href="#ABCOracleEdu-Regular-6f" x="66.199997"/>
    <use xlink:href="#ABCOracleEdu-Regular-75" x="125.199982"/>
    <use xlink:href="#ABCOracleEdu-Regular-72" x="181.799973"/>
    <use xlink:href="#ABCOracleEdu-Regular-63" x="219.799957"/>
    <use xlink:href="#ABCOracleEdu-Regular-65" x="275.099945"/>
    <use xlink:href="#ABCOracleEdu-Regular-3a" x="332.899933"/>
    <use xlink:href="#ABCOracleEdu-Regular-20" x="357.799927"/>
    <use xlink:href="#ABCOracleEdu-Regular-41" x="381.399918"/>
    <use xlink:href="#ABCOracleEdu-Regular-54" x="447.899902"/>
    <use xlink:href="#ABCOracleEdu-Regular-55" x="501.19989"/>
    <use xlink:href="#ABCOracleEdu-Regular-53" x="570.199875"/>
    <use xlink:href="#ABCOracleEdu-Regular-20" x="636.399872"/>
    <use xlink:href="#ABCOracleEdu-Regular-57" x="659.999863"/>
    <use xlink:href="#ABCOracleEdu-Regular-65" x="752.499847"/>
    <use xlink:href="#ABCOracleEdu-Regular-6c" x="810.299835"/>
    <use xlink:href="#ABCOracleEdu-Regular-6c" x="836.199829"/>
    <use xlink:href="#ABCOracleEdu-Regular-2d" x="862.099823"/>
    <use xlink:href="#ABCOracleEdu-Regular-42" x="899.499817"/>
    <use xlink:href="#ABCOracleEdu-Regular-65" x="961.599808"/>
    <use xlink:href="#ABCOracleEdu-Regular-69" x="1019.399796"/>
    <use xlink:href="#ABCOracleEdu-Regular-6e" x="1045.299789"/>
    <use xlink:href="#ABCOracleEdu-Regular-67" x="1102.89978"/>
    <use xlink:href="#ABCOracleEdu-Regular-20" x="1163.199768"/>
    <use xlink:href="#ABCOracleEdu-Regular-4d" x="1186.799759"/>
    <use xlink:href="#ABCOracleEdu-Regular-6f" x="1276.099747"/>
    <use xlink:href="#ABCOracleEdu-Regular-64" x="1335.099731"/>
    <use xlink:href="#ABCOracleEdu-Regular-75" x="1395.999725"/>
    <use xlink:href="#ABCOracleEdu-Regular-6c" x="1452.599716"/>
    <use xlink:href="#ABCOracleEdu-Regular-65" x="1478.49971"/>
    <use xlink:href="#ABCOracleEdu-Regular-3b" x="1536.299698"/>
    <use xlink:href="#ABCOracleEdu-Regular-20" x="1562.599686"/>
    <use xlink:href="#ABCOracleEdu-Regular-32" x="1586.199677"/>
    <use xlink:href="#ABCOracleEdu-Regular-30" x="1645.899673"/>
    <use xlink:href="#ABCOracleEdu-Regular-32" x="1709.899658"/>
    <use xlink:href="#ABCOracleEdu-Regular-30" x="1769.599655"/>
    <use xlink:href="#ABCOracleEdu-Regular-20" x="1833.59964"/>
    <use xlink:href="#ABCOracleEdu-Regular-70" x="1857.199631"/>
    <use xlink:href="#ABCOracleEdu-Regular-72" x="1918.099625"/>
    <use xlink:href="#ABCOracleEdu-Regular-65" x="1956.099609"/>
    <use xlink:href="#ABCOracleEdu-Regular-73" x="2013.899597"/>
    <use xlink:href="#ABCOracleEdu-Regular-69" x="2065.999588"/>
    <use xlink:href="#ABCOracleEdu-Regular-64" x="2091.899582"/>
    <use xlink:href="#ABCOracleEdu-Regular-65" x="2152.799576"/>
    <use xlink:href="#ABCOracleEdu-Regular-6e" x="2210.599564"/>
    <use xlink:href="#ABCOracleEdu-Regular-74" x="2268.199554"/>
    <use xlink:href="#ABCOracleEdu-Regular-69" x="2302.999542"/>
    <use xlink:href="#ABCOracleEdu-Regular-61" x="2328.899536"/>
    <use xlink:href="#ABCOracleEdu-Regular-6c" x="2384.29953"/>
    <use xlink:href="#ABCOracleEdu-Regular-20" x="2410.199524"/>
    <use xlink:href="#ABCOracleEdu-Regular-65" x="2433.799515"/>
    <use xlink:href="#ABCOracleEdu-Regular-6c" x="2491.599503"/>
    <use xlink:href="#ABCOracleEdu-Regular-65" x="2517.499496"/>
    <use xlink:href="#ABCOracleEdu-Regular-63" x="2575.299484"/>
    <use xlink:href="#ABCOracleEdu-Regular-74" x="2630.599472"/>
    <use xlink:href="#ABCOracleEdu-Regular-69" x="2665.39946"/>
    <use xlink:href="#ABCOracleEdu-Regular-6f" x="2691.299454"/>
    <use xlink:href="#ABCOracleEdu-Regular-6e" x="2750.299438"/>
    <use xlink:href="#ABCOracleEdu-Regular-20" x="2807.899429"/>
    <use xlink:href="#ABCOracleEdu-Regular-72" x="2831.49942"/>
    <use xlink:href="#ABCOracleEdu-Regular-65" x="2869.499405"/>
    <use xlink:href="#ABCOracleEdu-Regular-73" x="2927.299393"/>
    <use xlink:href="#ABCOracleEdu-Regular-75" x="2979.399384"/>
    <use xlink:href="#ABCOracleEdu-Regular-6c" x="3035.999374"/>
    <use xlink:href="#ABCOracleEdu-Regular-74" x="3061.899368"/>
    <use xlink:href="#ABCOracleEdu-Regular-73" x="3096.699356"/>
   </g>
  </g>
 </g>
 <defs>
  <clipPath id="pdca9dae455">
   <rect x="92.4" y="48.465" width="540.91" height="413.14"/>
  </clipPath>
 </defs>
</svg>
