<?xml version="1.0" encoding="utf-8" standalone="no"?>
<!DOCTYPE svg PUBLIC "-//W3C//DTD SVG 1.1//EN"
  "http://www.w3.org/Graphics/SVG/1.1/DTD/svg11.dtd">
<svg xmlns:xlink="http://www.w3.org/1999/xlink" width="641.24125pt" height="536.16088pt" viewBox="0 0 641.24125 536.16088" xmlns="http://www.w3.org/2000/svg" version="1.1">
 <metadata>
  <rdf:RDF xmlns:dc="http://purl.org/dc/elements/1.1/" xmlns:cc="http://creativecommons.org/ns#" xmlns:rdf="http://www.w3.org/1999/02/22-rdf-syntax-ns#">
   <cc:Work>
    <dc:type rdf:resource="http://purl.org/dc/dcmitype/StillImage"/>
    <dc:date>2026-01-29T19:54:58.384128</dc:date>
    <dc:format>image/svg+xml</dc:format>
    <dc:creator>
     <cc:Agent>
      <dc:title>Matplotlib v3.9.4, https://matplotlib.org/</dc:title>
     </cc:Agent>
    </dc:creator>
   </cc:Work>
  </rdf:RDF>
 </metadata>
 <defs>
  <style type="text/css">*{stroke-linejoin: round; stroke-linecap: butt}</style>
 </defs>
 <g id="figure_1">
  <g id="patch_1">
   <path d="M 0 536.16088 
L 641.24125 536.16088 
L 641.24125 0 
L 0 0 
z
" style="fill: #f6f7f3"/>
  </g>
  <g id="axes_1">
   <g id="patch_2">
    <path d="M 48.30625 490.646 
L 634.04125 490.646 
L 634.04125 32.21 
L 48.30625 32.21 
z
" style="fill: #f6f7f3"/>
   </g>
   <g id="matplotlib.axis_1">
    <g id="xtick_1">
     <g id="line2d_1">
      <path d="M 106.390187 490.646 
L 106.390187 32.21 
" clip-path="url(#pa9bd4e9e8c)" style="fill: none; stroke: #b0b0b0; stroke-opacity: 0.3; stroke-width: 0.5; stroke-linecap: square"/>
     </g>
     <g id="line2d_2">
      <defs>
       <path id="m14ac81f949" d="M 0 0 
L 0 3.5 
" style="stroke: #3d3733; stroke-width: 0.8"/>
      </defs>
      <g>
       <use xlink:href="#m14ac81f949" x="106.390187" y="490.646" style="fill: #3d3733; stroke: #3d3733; stroke-width: 0.8"/>
      </g>
     </g>
     <g id="text_1">
      <text style="fill: #3d3733; font: 10px 'ABC Oracle Edu'; text-anchor: middle" x="106.390187" y="504.646" transform="rotate(-0 106.390187 504.646)">2010</text>
     </g>
    </g>
    <g id="xtick_2">
     <g id="line2d_3">
      <path d="M 263.77447 490.646 
L 263.77447 32.21 
" clip-path="url(#pa9bd4e9e8c)" style="fill: none; stroke: #b0b0b0; stroke-opacity: 0.3; stroke-width: 0.5; stroke-linecap: square"/>
     </g>
     <g id="line2d_4">
      <g>
       <use xlink:href="#m14ac81f949" x="263.77447" y="490.646" style="fill: #3d3733; stroke: #3d3733; stroke-width: 0.8"/>
      </g>
     </g>
     <g id="text_2">
      <text style="fill: #3d3733; font: 10px 'ABC Oracle Edu'; text-anchor: middle" x="263.77447" y="504.646" transform="rotate(-0 263.77447 504.646)">2015</text>
     </g>
    </g>
    <g id="xtick_3">
     <g id="line2d_5">
      <path d="M 421.158753 490.646 
L 421.158753 32.21 
" clip-path="url(#pa9bd4e9e8c)" style="fill: none; stroke: #b0b0b0; stroke-opacity: 0.3; stroke-width: 0.5; stroke-linecap: square"/>
     </g>
     <g id="line2d_6">
      <g>
       <use xlink:href="#m14ac81f949" x="421.158753" y="490.646" style="fill: #3d3733; stroke: #3d3733; stroke-width: 0.8"/>
      </g>
     </g>
     <g id="text_3">
      <text style="fill: #3d3733; font: 10px 'ABC Oracle Edu'; text-anchor: middle" x="421.158753" y="504.646" transform="rotate(-0 421.158753 504.646)">2020</text>
     </g>
    </g>
    <g id="xtick_4">
     <g id="line2d_7">
      <path d="M 578.629226 490.646 
L 578.629226 32.21 
" clip-path="url(#pa9bd4e9e8c)" style="fill: none; stroke: #b0b0b0; stroke-opacity: 0.3; stroke-width: 0.5; stroke-linecap: square"/>
     </g>
     <g id="line2d_8">
      <g>
       <use xlink:href="#m14ac81f949" x="578.629226" y="490.646" style="fill: #3d3733; stroke: #3d3733; stroke-width: 0.8"/>
      </g>
     </g>
     <g id="text_4">
      <text style="fill: #3d3733; font: 10px 'ABC Oracle Edu'; text-anchor: middle" x="578.629226" y="504.646" transform="rotate(-0 578.629226 504.646)">2025</text>
     </g>
    </g>
   </g>
   <g id="matplotlib.axis_2">
    <g id="ytick_1">
     <g id="line2d_9">
      <path d="M 48.30625 464.280549 
L 634.04125 464.280549 
" clip-path="url(#pa9bd4e9e8c)" style="fill: none; stroke: #b0b0b0; stroke-opacity: 0.3; stroke-width: 0.5; stroke-linecap: square"/>
     </g>
     <g id="line2d_10"/>
     <g id="text_5">
      <text style="fill: #3d3733; font: 10px 'ABC Oracle Edu'; text-anchor: end" x="44.80625" y="467.780549" transform="rotate(-0 44.80625 467.780549)">-20k</text>
     </g>
    </g>
    <g id="ytick_2">
     <g id="line2d_11">
      <path d="M 48.30625 410.473507 
L 634.04125 410.473507 
" clip-path="url(#pa9bd4e9e8c)" style="fill: none; stroke: #b0b0b0; stroke-opacity: 0.3; stroke-width: 0.5; stroke-linecap: square"/>
     </g>
     <g id="line2d_12"/>
     <g id="text_6">
      <text style="fill: #3d3733; font: 10px 'ABC Oracle Edu'; text-anchor: end" x="44.80625" y="413.973507" transform="rotate(-0 44.80625 413.973507)">-15k</text>
     </g>
    </g>
    <g id="ytick_3">
     <g id="line2d_13">
      <path d="M 48.30625 356.666465 
L 634.04125 356.666465 
" clip-path="url(#pa9bd4e9e8c)" style="fill: none; stroke: #b0b0b0; stroke-opacity: 0.3; stroke-width: 0.5; stroke-linecap: square"/>
     </g>
     <g id="line2d_14"/>
     <g id="text_7">
      <text style="fill: #3d3733; font: 10px 'ABC Oracle Edu'; text-anchor: end" x="44.80625" y="360.166465" transform="rotate(-0 44.80625 360.166465)">-10k</text>
     </g>
    </g>
    <g id="ytick_4">
     <g id="line2d_15">
      <path d="M 48.30625 302.859423 
L 634.04125 302.859423 
" clip-path="url(#pa9bd4e9e8c)" style="fill: none; stroke: #b0b0b0; stroke-opacity: 0.3; stroke-width: 0.5; stroke-linecap: square"/>
     </g>
     <g id="line2d_16"/>
     <g id="text_8">
      <text style="fill: #3d3733; font: 10px 'ABC Oracle Edu'; text-anchor: end" x="44.80625" y="306.359423" transform="rotate(-0 44.80625 306.359423)">-5k</text>
     </g>
    </g>
    <g id="ytick_5">
     <g id="line2d_17">
      <path d="M 48.30625 249.05238 
L 634.04125 249.05238 
" clip-path="url(#pa9bd4e9e8c)" style="fill: none; stroke: #b0b0b0; stroke-opacity: 0.3; stroke-width: 0.5; stroke-linecap: square"/>
     </g>
     <g id="line2d_18"/>
     <g id="text_9">
      <text style="fill: #3d3733; font: 10px 'ABC Oracle Edu'; text-anchor: end" x="44.80625" y="252.55238" transform="rotate(-0 44.80625 252.55238)">0</text>
     </g>
    </g>
    <g id="ytick_6">
     <g id="line2d_19">
      <path d="M 48.30625 195.245338 
L 634.04125 195.245338 
" clip-path="url(#pa9bd4e9e8c)" style="fill: none; stroke: #b0b0b0; stroke-opacity: 0.3; stroke-width: 0.5; stroke-linecap: square"/>
     </g>
     <g id="line2d_20"/>
     <g id="text_10">
      <text style="fill: #3d3733; font: 10px 'ABC Oracle Edu'; text-anchor: end" x="44.80625" y="198.745338" transform="rotate(-0 44.80625 198.745338)">+5k</text>
     </g>
    </g>
    <g id="ytick_7">
     <g id="line2d_21">
      <path d="M 48.30625 141.438296 
L 634.04125 141.438296 
" clip-path="url(#pa9bd4e9e8c)" style="fill: none; stroke: #b0b0b0; stroke-opacity: 0.3; stroke-width: 0.5; stroke-linecap: square"/>
     </g>
     <g id="line2d_22"/>
     <g id="text_11">
      <text style="fill: #3d3733; font: 10px 'ABC Oracle Edu'; text-anchor: end" x="44.80625" y="144.938296" transform="rotate(-0 44.80625 144.938296)">+10k</text>
     </g>
    </g>
    <g id="ytick_8">
     <g id="line2d_23">
      <path d="M 48.30625 87.631254 
L 634.04125 87.631254 
" clip-path="url(#pa9bd4e9e8c)" style="fill: none; stroke: #b0b0b0; stroke-opacity: 0.3; stroke-width: 0.5; stroke-linecap: square"/>
     </g>
     <g id="line2d_24"/>
     <g id="text_12">
      <text style="fill: #3d3733; font: 10px 'ABC Oracle Edu'; text-anchor: end" x="44.80625" y="91.131254" transform="rotate(-0 44.80625 91.131254)">+15k</text>
     </g>
    </g>
    <g id="ytick_9">
     <g id="line2d_25">
      <path d="M 48.30625 33.824211 
L 634.04125 33.824211 
" clip-path="url(#pa9bd4e9e8c)" style="fill: none; stroke: #b0b0b0; stroke-opacity: 0.3; stroke-width: 0.5; stroke-linecap: square"/>
     </g>
     <g id="line2d_26"/>
     <g id="text_13">
      <text style="fill: #3d3733; font: 10px 'ABC Oracle Edu'; text-anchor: end" x="44.80625" y="37.324211" transform="rotate(-0 44.80625 37.324211)">+20k</text>
     </g>
    </g>
    <g id="text_14">
     <text style="fill: #3d3733; font: 11px 'ABC Oracle Edu'; text-anchor: middle" x="15.065" y="261.428" transform="rotate(-90 15.065 261.428)">Year-on-Year Change, Employees</text>
    </g>
   </g>
   <g id="line2d_27">
    <path d="M 74.930568 254.433085 
L 77.602481 267.346775 
L 80.015822 267.346775 
L 82.687734 286.71731 
L 85.273456 291.021873 
L 87.945369 292.098014 
L 90.531091 298.554859 
L 93.203004 302.859423 
L 95.874917 302.859423 
L 98.460639 300.707141 
L 101.132552 299.631 
L 103.718274 296.402577 
L 106.390187 295.326437 
L 109.062099 291.021873 
L 111.47544 287.793451 
L 114.147353 278.108183 
L 116.733075 273.80362 
L 119.404988 267.346775 
L 121.99071 271.651338 
L 124.662623 267.346775 
L 127.334535 266.270634 
L 129.920257 263.042211 
L 132.59217 257.661507 
L 135.177892 255.509225 
L 137.849805 244.747817 
L 140.521718 237.214831 
L 142.935058 230.757986 
L 145.606971 223.225 
L 148.192693 219.996577 
L 150.864606 215.692014 
L 156.122241 200.626042 
L 158.794154 194.169197 
L 161.379876 190.940775 
L 164.051789 189.864634 
L 166.637511 189.864634 
L 169.309424 185.56007 
L 171.981336 185.56007 
L 174.480868 188.788493 
L 177.15278 181.255507 
L 179.738502 181.255507 
L 182.410415 180.179366 
L 184.996137 183.407789 
L 187.66805 184.48393 
L 190.339963 186.636211 
L 192.925685 190.940775 
L 195.597598 189.864634 
L 198.18332 186.636211 
L 200.855233 212.463592 
L 203.527145 209.235169 
L 205.940486 214.615873 
L 211.198121 216.768155 
L 213.870034 215.692014 
L 216.455756 212.463592 
L 219.127669 215.692014 
L 221.799581 219.996577 
L 224.385303 217.844296 
L 227.057216 206.006746 
L 229.642938 214.615873 
L 232.314851 203.854465 
L 234.986764 202.778324 
L 237.400105 192.016915 
L 240.072017 196.321479 
L 242.657739 192.016915 
L 245.329652 193.093056 
L 250.587287 175.874803 
L 253.2592 173.722521 
L 255.844922 167.265676 
L 258.516835 176.950944 
L 261.102557 161.884972 
L 263.77447 153.275845 
L 266.446382 151.123563 
L 268.859723 150.047423 
L 271.531636 141.438296 
L 274.117358 139.286014 
L 276.789271 129.600746 
L 279.374993 128.524606 
L 282.046905 131.753028 
L 284.718818 131.753028 
L 287.30454 136.057592 
L 289.976453 137.133732 
L 292.562175 143.590577 
L 295.234088 137.133732 
L 297.906001 137.133732 
L 300.405532 136.057592 
L 303.077445 144.666718 
L 305.663167 151.123563 
L 308.33508 148.971282 
L 310.920802 153.275845 
L 313.592715 154.351986 
L 316.264627 152.199704 
L 318.85035 178.027085 
L 321.522262 166.189535 
L 324.107984 179.103225 
L 326.779897 176.950944 
L 329.45181 182.331648 
L 331.865151 184.48393 
L 334.537063 192.016915 
L 337.122785 193.093056 
L 339.794698 179.103225 
L 342.38042 171.570239 
L 347.724246 182.331648 
L 350.309968 158.656549 
L 352.981881 173.722521 
L 355.567603 152.199704 
L 358.239516 167.265676 
L 360.911428 158.656549 
L 363.324769 159.73269 
L 365.996682 155.428127 
L 368.582404 147.895141 
L 371.254317 142.514437 
L 373.840039 145.742859 
L 376.511952 137.133732 
L 379.183864 138.209873 
L 381.769586 132.829169 
L 384.441499 126.372324 
L 387.027221 131.753028 
L 389.699134 117.763197 
L 392.371047 117.763197 
L 394.784387 114.534775 
L 397.4563 103.773366 
L 400.042022 108.07793 
L 402.713935 117.763197 
L 405.299657 111.306352 
L 407.97157 109.15407 
L 410.643483 116.687056 
L 413.229205 119.915479 
L 415.901118 116.687056 
L 418.48684 117.763197 
L 421.158753 137.133732 
L 423.830665 137.133732 
L 426.330197 138.209873 
L 429.002109 182.331648 
L 431.587831 187.712352 
L 434.259744 201.702183 
L 439.517379 218.920437 
L 442.189292 206.006746 
L 444.775014 202.778324 
L 447.446927 212.463592 
L 452.704562 216.768155 
L 455.376474 225.377282 
L 457.789815 225.377282 
L 460.461728 182.331648 
L 463.04745 172.64638 
L 465.719363 168.341817 
L 468.305085 161.884972 
L 470.976998 153.275845 
L 473.64891 147.895141 
L 476.234632 143.590577 
L 478.906545 129.600746 
L 481.492267 119.915479 
L 484.16418 117.763197 
L 486.836093 105.925648 
L 489.249434 101.621085 
L 491.921346 105.925648 
L 494.507068 97.316521 
L 497.178981 74.717563 
L 499.764703 70.413 
L 502.436616 76.869845 
L 505.108529 115.610915 
L 510.366164 153.275845 
L 512.951886 178.027085 
L 515.623799 196.321479 
L 518.295711 235.062549 
L 520.709052 287.793451 
L 523.380965 314.696972 
L 525.966687 346.981197 
L 528.6386 394.331394 
L 531.224322 442.757732 
L 533.896234 452.443 
L 536.568147 449.214577 
L 539.153869 437.377028 
L 541.825782 436.300887 
L 544.411504 428.767901 
L 547.083417 416.930352 
L 549.75533 401.86438 
L 552.254861 360.971028 
L 554.926774 362.047169 
L 560.184409 340.524352 
L 562.770131 313.620831 
L 565.442044 315.773113 
L 568.113956 299.631 
L 573.371591 301.783282 
L 575.957313 282.412746 
L 578.629226 289.945732 
L 581.301139 298.554859 
L 583.71448 302.859423 
L 586.386392 295.326437 
L 588.972114 298.554859 
L 591.644027 312.54469 
L 594.229749 315.773113 
L 596.901662 311.468549 
L 599.573575 300.707141 
L 602.159297 307.163986 
L 604.83121 311.468549 
L 607.416932 323.306099 
L 607.416932 323.306099 
" clip-path="url(#pa9bd4e9e8c)" style="fill: none; stroke: #fec439; stroke-width: 2; stroke-linecap: square"/>
   </g>
   <g id="line2d_28">
    <path d="M 74.930568 226.453423 
L 77.602481 237.214831 
L 80.015822 239.367113 
L 82.687734 247.976239 
L 85.273456 251.204662 
L 87.945369 253.356944 
L 90.531091 254.433085 
L 93.203004 254.433085 
L 95.874917 252.280803 
L 98.460639 247.976239 
L 101.132552 247.976239 
L 103.718274 244.747817 
L 106.390187 255.509225 
L 109.062099 239.367113 
L 111.47544 239.367113 
L 114.147353 228.605704 
L 116.733075 224.301141 
L 119.404988 214.615873 
L 121.99071 215.692014 
L 124.662623 211.387451 
L 127.334535 211.387451 
L 129.920257 209.235169 
L 132.59217 204.930606 
L 135.177892 206.006746 
L 137.849805 196.321479 
L 140.521718 194.169197 
L 142.935058 190.940775 
L 145.606971 196.321479 
L 148.192693 198.473761 
L 150.864606 195.245338 
L 158.794154 201.702183 
L 161.379876 204.930606 
L 164.051789 212.463592 
L 166.637511 210.31131 
L 169.309424 219.996577 
L 171.981336 222.148859 
L 174.480868 219.996577 
L 177.15278 214.615873 
L 179.738502 216.768155 
L 182.410415 223.225 
L 184.996137 221.072718 
L 187.66805 223.225 
L 190.339963 221.072718 
L 192.925685 221.072718 
L 195.597598 218.920437 
L 198.18332 217.844296 
L 200.855233 206.006746 
L 203.527145 209.235169 
L 205.940486 208.159028 
L 208.612399 214.615873 
L 211.198121 214.615873 
L 213.870034 206.006746 
L 216.455756 201.702183 
L 219.127669 202.778324 
L 221.799581 206.006746 
L 224.385303 199.549901 
L 227.057216 194.169197 
L 229.642938 190.940775 
L 232.314851 198.473761 
L 234.986764 189.864634 
L 237.400105 184.48393 
L 240.072017 181.255507 
L 245.329652 170.494099 
L 247.915374 162.961113 
L 250.587287 166.189535 
L 253.2592 166.189535 
L 255.844922 169.417958 
L 258.516835 173.722521 
L 261.102557 175.874803 
L 263.77447 170.494099 
L 266.446382 181.255507 
L 268.859723 187.712352 
L 271.531636 188.788493 
L 274.117358 194.169197 
L 276.789271 192.016915 
L 279.374993 196.321479 
L 282.046905 201.702183 
L 284.718818 202.778324 
L 289.976453 200.626042 
L 292.562175 202.778324 
L 295.234088 179.103225 
L 297.906001 176.950944 
L 300.405532 182.331648 
L 303.077445 180.179366 
L 305.663167 172.64638 
L 308.33508 169.417958 
L 310.920802 185.56007 
L 313.592715 176.950944 
L 316.264627 175.874803 
L 318.85035 162.961113 
L 321.522262 151.123563 
L 324.107984 146.819 
L 326.779897 185.56007 
L 329.45181 178.027085 
L 331.865151 162.961113 
L 334.537063 157.580408 
L 337.122785 157.580408 
L 339.794698 146.819 
L 342.38042 123.143901 
L 345.052333 120.99162 
L 347.724246 123.143901 
L 350.309968 144.666718 
L 352.981881 150.047423 
L 355.567603 150.047423 
L 358.239516 160.808831 
L 360.911428 164.037254 
L 363.324769 170.494099 
L 365.996682 174.798662 
L 368.582404 174.798662 
L 371.254317 175.874803 
L 373.840039 182.331648 
L 379.183864 188.788493 
L 381.769586 175.874803 
L 384.441499 175.874803 
L 387.027221 176.950944 
L 389.699134 162.961113 
L 392.371047 162.961113 
L 394.784387 160.808831 
L 397.4563 171.570239 
L 400.042022 172.64638 
L 402.713935 170.494099 
L 405.299657 155.428127 
L 407.97157 147.895141 
L 410.643483 146.819 
L 413.229205 153.275845 
L 415.901118 144.666718 
L 418.48684 145.742859 
L 421.158753 143.590577 
L 423.830665 145.742859 
L 426.330197 142.514437 
L 429.002109 155.428127 
L 431.587831 154.351986 
L 434.259744 192.016915 
L 436.845466 225.377282 
L 439.517379 225.377282 
L 442.189292 218.920437 
L 444.775014 224.301141 
L 447.446927 242.595535 
L 450.032649 235.062549 
L 452.704562 244.747817 
L 455.376474 244.747817 
L 457.789815 257.661507 
L 460.461728 245.823958 
L 463.04745 250.128521 
L 465.719363 238.290972 
L 468.305085 231.834127 
L 470.976998 230.757986 
L 473.64891 226.453423 
L 476.234632 221.072718 
L 478.906545 222.148859 
L 481.492267 221.072718 
L 484.16418 223.225 
L 486.836093 223.225 
L 489.249434 222.148859 
L 491.921346 216.768155 
L 494.507068 226.453423 
L 497.178981 237.214831 
L 499.764703 281.336606 
L 502.436616 288.869592 
L 505.108529 297.478718 
L 507.694251 301.783282 
L 510.366164 299.631 
L 512.951886 312.54469 
L 515.623799 324.382239 
L 518.295711 332.991366 
L 520.709052 342.676634 
L 523.380965 369.580155 
L 525.966687 377.113141 
L 528.6386 363.12331 
L 531.224322 315.773113 
L 533.896234 326.534521 
L 536.568147 328.686803 
L 539.153869 329.762944 
L 544.411504 321.153817 
L 547.083417 300.707141 
L 549.75533 302.859423 
L 552.254861 307.163986 
L 554.926774 294.250296 
L 557.512496 279.184324 
L 560.184409 289.945732 
L 562.770131 296.402577 
L 565.442044 281.336606 
L 568.113956 287.793451 
L 570.699679 278.108183 
L 573.371591 273.80362 
L 575.957313 278.108183 
L 578.629226 283.488887 
L 581.301139 280.260465 
L 583.71448 264.118352 
L 586.386392 253.356944 
L 588.972114 255.509225 
L 591.644027 253.356944 
L 594.229749 252.280803 
L 596.901662 254.433085 
L 599.573575 245.823958 
L 602.159297 251.204662 
L 604.83121 253.356944 
L 607.416932 245.823958 
L 607.416932 245.823958 
" clip-path="url(#pa9bd4e9e8c)" style="fill: none; stroke: #67a275; stroke-width: 2; stroke-linecap: square"/>
   </g>
   <g id="line2d_29">
    <path d="M 48.30625 249.05238 
L 634.04125 249.05238 
" clip-path="url(#pa9bd4e9e8c)" style="fill: none; stroke: #3d3733; stroke-opacity: 0.5; stroke-width: 0.8; stroke-linecap: square"/>
   </g>
   <g id="patch_3">
    <path d="M 48.30625 490.646 
L 634.04125 490.646 
" style="fill: none; stroke: #000000; stroke-width: 0.8; stroke-linejoin: miter; stroke-linecap: square"/>
   </g>
   <g id="text_15">
    <text style="fill: #888888; font: italic 8px 'ABC Oracle Edu'; text-anchor: start" x="54.1636" y="527.32088" transform="rotate(-0 54.1636 527.32088)">Source: BLS Current Employment Statistics, Information Supersector (NAICS 50)</text>
   </g>
   <g id="text_16">
    <text style="fill: #3d3733; font: 700 14px 'ABC Oracle Edu'; text-anchor: middle" x="341.17375" y="17.21" transform="rotate(-0 341.17375 17.21)">Year-on-Year Information Job Growth in the Bay Area</text>
   </g>
   <g id="legend_1">
    <g id="line2d_30">
     <path d="M 57.30625 44.71 
L 67.30625 44.71 
L 77.30625 44.71 
" style="fill: none; stroke: #fec439; stroke-width: 2; stroke-linecap: square"/>
    </g>
    <g id="text_17">
     <text style="font: 10px 'ABC Oracle Edu'; text-anchor: start" x="85.30625" y="48.21" transform="rotate(-0 85.30625 48.21)">San Francisco Metro Area</text>
    </g>
    <g id="line2d_31">
     <path d="M 57.30625 58.66 
L 67.30625 58.66 
L 77.30625 58.66 
" style="fill: none; stroke: #67a275; stroke-width: 2; stroke-linecap: square"/>
    </g>
    <g id="text_18">
     <text style="font: 10px 'ABC Oracle Edu'; text-anchor: start" x="85.30625" y="62.16" transform="rotate(-0 85.30625 62.16)">San Jose Metro Area</text>
    </g>
   </g>
  </g>
 </g>
 <defs>
  <clipPath id="pa9bd4e9e8c">
   <rect x="48.30625" y="32.21" width="585.735" height="458.436"/>
  </clipPath>
 </defs>
</svg>
