<?xml version="1.0" encoding="UTF-8"?>
<svg width="900" height="750" style="background: rgb(246, 247, 243);" xmlns="http://www.w3.org/2000/svg"><defs><style>
        @font-face { font-family: 'ABC Oracle Edu'; src: url('/Users/azizsunderji/Dropbox/Home Economics/Brand Assets/OracleFont/Oracle Aziz Sunderji/Desktop/ABCOracle-Regular.otf') format('opentype'); font-weight: 400; }
        @font-face { font-family: 'ABC Oracle Edu'; src: url('/Users/azizsunderji/Dropbox/Home Economics/Brand Assets/OracleFont/Oracle Aziz Sunderji/Desktop/ABCOracle-Bold.otf') format('opentype'); font-weight: 700; }
        @font-face { font-family: 'ABC Oracle Edu'; src: url('/Users/azizsunderji/Dropbox/Home Economics/Brand Assets/OracleFont/Oracle Aziz Sunderji/Desktop/ABCOracle-Light.otf') format('opentype'); font-weight: 300; }
        @font-face { font-family: 'ABC Oracle Edu'; src: url('/Users/azizsunderji/Dropbox/Home Economics/Brand Assets/OracleFont/Oracle Aziz Sunderji/Desktop/ABCOracle-Medium.otf') format('opentype'); font-weight: 500; }
    </style></defs><g transform="translate(50,100)"><line x1="0" x2="720" y1="590" y2="590" stroke="#ddd" stroke-width="0.5"></line><line x1="0" x2="720" y1="500.6060606060606" y2="500.6060606060606" stroke="#ddd" stroke-width="0.5"></line><line x1="0" x2="720" y1="411.21212121212125" y2="411.21212121212125" stroke="#ddd" stroke-width="0.5"></line><line x1="0" x2="720" y1="321.8181818181818" y2="321.8181818181818" stroke="#ddd" stroke-width="0.5"></line><line x1="0" x2="720" y1="232.4242424242424" y2="232.4242424242424" stroke="#ddd" stroke-width="0.5"></line><line x1="0" x2="720" y1="143.03030303030303" y2="143.03030303030303" stroke="#ddd" stroke-width="0.5"></line><line x1="0" x2="720" y1="53.636363636363654" y2="53.636363636363654" stroke="#ddd" stroke-width="0.5"></line><text x="-8" y="590" dy="0.35em" text-anchor="end" font-family="ABC Oracle Edu, sans-serif" font-weight="300" font-size="11" fill="#999">0</text><text x="-8" y="500.6060606060606" dy="0.35em" text-anchor="end" font-family="ABC Oracle Edu, sans-serif" font-weight="300" font-size="11" fill="#999">5</text><text x="-8" y="411.21212121212125" dy="0.35em" text-anchor="end" font-family="ABC Oracle Edu, sans-serif" font-weight="300" font-size="11" fill="#999">10</text><text x="-8" y="321.8181818181818" dy="0.35em" text-anchor="end" font-family="ABC Oracle Edu, sans-serif" font-weight="300" font-size="11" fill="#999">15</text><text x="-8" y="232.4242424242424" dy="0.35em" text-anchor="end" font-family="ABC Oracle Edu, sans-serif" font-weight="300" font-size="11" fill="#999">20</text><text x="-8" y="143.03030303030303" dy="0.35em" text-anchor="end" font-family="ABC Oracle Edu, sans-serif" font-weight="300" font-size="11" fill="#999">25</text><text x="-8" y="53.636363636363654" dy="0.35em" text-anchor="end" font-family="ABC Oracle Edu, sans-serif" font-weight="300" font-size="11" fill="#999">30%</text><text x="0" y="615" text-anchor="middle" font-family="ABC Oracle Edu, sans-serif" font-weight="300" font-size="11" fill="#999">2005</text><text x="189.4736842105263" y="615" text-anchor="middle" font-family="ABC Oracle Edu, sans-serif" font-weight="300" font-size="11" fill="#999">2010</text><text x="378.9473684210526" y="615" text-anchor="middle" font-family="ABC Oracle Edu, sans-serif" font-weight="300" font-size="11" fill="#999">2015</text><text x="568.421052631579" y="615" text-anchor="middle" font-family="ABC Oracle Edu, sans-serif" font-weight="300" font-size="11" fill="#999">2020</text><text x="720" y="615" text-anchor="middle" font-family="ABC Oracle Edu, sans-serif" font-weight="300" font-size="11" fill="#999">2024</text><path fill="none" stroke="#0BB4FF" stroke-width="2.5" d="M0,502.394L37.895,497.03L75.789,493.455L113.684,491.667L151.579,488.091L189.474,489.879L227.368,486.303L265.263,484.515L303.158,484.515L341.053,480.939L378.947,477.364L416.842,468.424L454.737,463.061L492.632,459.485L530.526,448.758L606.316,55.424L644.211,150.182L682.105,202.03L720,219.909"></path><path fill="none" stroke="#3D3733" stroke-width="2.5" d="M0,534.576L37.895,531L75.789,527.424L113.684,527.424L151.579,525.636L189.474,525.636L227.368,527.424L265.263,525.636L303.158,525.636L341.053,525.636L378.947,523.848L416.842,516.697L454.737,514.909L492.632,514.909L530.526,509.545L606.316,387.97L644.211,407.636L682.105,414.788L720,421.939"></path><circle cx="720" cy="219.90909090909096" r="4" fill="#0BB4FF"></circle><circle cx="720" cy="421.9393939393939" r="4" fill="#3D3733"></circle><text x="730" y="219.90909090909096" dy="0.35em" font-family="ABC Oracle Edu, sans-serif" font-weight="500" font-size="13" fill="#0BB4FF">College degree</text><text x="730" y="235.90909090909096" dy="0.35em" font-family="ABC Oracle Edu, sans-serif" font-weight="700" font-size="13" fill="#0BB4FF">21%</text><text x="730" y="421.9393939393939" dy="0.35em" font-family="ABC Oracle Edu, sans-serif" font-weight="500" font-size="13" fill="#3D3733">No degree</text><text x="730" y="437.9393939393939" dy="0.35em" font-family="ABC Oracle Edu, sans-serif" font-weight="700" font-size="13" fill="#3D3733">9%</text><text x="568.421052631579" y="40.42424242424245" text-anchor="middle" font-family="ABC Oracle Edu, sans-serif" font-weight="300" font-style="italic" font-size="10" fill="#aaa">No 2020 data</text></g><text x="50" y="35" font-family="ABC Oracle Edu, sans-serif" font-weight="700" font-size="22" fill="#3D3733">The Work-From-Home Surge</text><text x="50" y="58" font-family="ABC Oracle Edu, sans-serif" font-weight="400" font-size="14" fill="#888">Share of workers who report working from home, by education</text><text x="50" y="76" font-family="ABC Oracle Edu, sans-serif" font-weight="300" font-size="11.5" fill="#aaa">Workers ages 25–64. No 2020 data (ACS suspended due to COVID).</text><text x="50" y="738" font-family="ABC Oracle Edu, sans-serif" font-style="italic" font-weight="300" font-size="10" fill="#aaa">Source: American Community Survey (IPUMS), 2005–2024.</text></svg>