<svg xmlns="http://www.w3.org/2000/svg" width="898" height="740" viewBox="0 0 898 740">
<defs><style type="text/css">
@font-face { font-family: 'ABC Oracle Edu'; src: url('/Users/azizsunderji/Dropbox/Home Economics/Brand Assets/OracleFont/Oracle Aziz Sunderji/Desktop/ABCOracle-Light.otf') format('opentype'); font-weight: 300; font-style: normal; }
@font-face { font-family: 'ABC Oracle Edu'; src: url('/Users/azizsunderji/Dropbox/Home Economics/Brand Assets/OracleFont/Oracle Aziz Sunderji/Desktop/ABCOracle-Regular.otf') format('opentype'); font-weight: 400; font-style: normal; }
@font-face { font-family: 'ABC Oracle Edu'; src: url('/Users/azizsunderji/Dropbox/Home Economics/Brand Assets/OracleFont/Oracle Aziz Sunderji/Desktop/ABCOracle-Medium.otf') format('opentype'); font-weight: 500; font-style: normal; }
@font-face { font-family: 'ABC Oracle Edu'; src: url('/Users/azizsunderji/Dropbox/Home Economics/Brand Assets/OracleFont/Oracle Aziz Sunderji/Desktop/ABCOracle-Bold.otf') format('opentype'); font-weight: 700; font-style: normal; }
</style></defs>
<rect width="898" height="740" fill="#F6F7F3"/>
<line x1="50.0" y1="674.3" x2="429.0" y2="674.3" stroke="#D8DAD1" stroke-width="0.5"/>
<line x1="50.0" y1="553.7" x2="429.0" y2="553.7" stroke="#D8DAD1" stroke-width="0.5"/>
<line x1="50.0" y1="433.1" x2="429.0" y2="433.1" stroke="#D8DAD1" stroke-width="0.5"/>
<line x1="50.0" y1="312.4" x2="429.0" y2="312.4" stroke="#D8DAD1" stroke-width="0.5"/>
<line x1="50.0" y1="191.8" x2="429.0" y2="191.8" stroke="#D8DAD1" stroke-width="0.5"/>
<line x1="50.0" y1="71.2" x2="429.0" y2="71.2" stroke="#D8DAD1" stroke-width="0.5"/>
<line x1="50.0" y1="286.7" x2="429.0" y2="613.2" stroke="#3D3733" stroke-width="1.5" opacity="0.4" stroke-dasharray="6,3"/>
<circle cx="166.7" cy="402.9" r="18.0" fill="#3D3733" stroke="#3D3733" stroke-width="1"/>
<circle cx="122.4" cy="457.2" r="14.9" fill="#3D3733" stroke="#3D3733" stroke-width="1"/>
<circle cx="90.2" cy="357.1" r="13.1" fill="#3D3733" stroke="#3D3733" stroke-width="1"/>
<circle cx="203.1" cy="469.2" r="12.5" fill="#3D3733" stroke="#3D3733" stroke-width="0.5"/>
<circle cx="191.4" cy="524.7" r="11.8" fill="#3D3733" stroke="#3D3733" stroke-width="0.5"/>
<circle cx="157.5" cy="509.0" r="11.4" fill="#F4743B" stroke="#3D3733" stroke-width="1.2"/>
<circle cx="137.4" cy="334.2" r="11.2" fill="#3D3733" stroke="#3D3733" stroke-width="0.5"/>
<circle cx="126.5" cy="390.8" r="11.0" fill="#3D3733" stroke="#3D3733" stroke-width="0.5"/>
<circle cx="164.2" cy="152.0" r="11.0" fill="#3D3733" stroke="#3D3733" stroke-width="1"/>
<circle cx="135.7" cy="448.7" r="10.3" fill="#3D3733" stroke="#3D3733" stroke-width="0.5"/>
<circle cx="196.8" cy="359.5" r="10.1" fill="#3D3733" stroke="#3D3733" stroke-width="0.5"/>
<circle cx="141.2" cy="640.5" r="9.8" fill="#3D3733" stroke="#3D3733" stroke-width="1"/>
<circle cx="236.5" cy="486.1" r="9.5" fill="#3D3733" stroke="#3D3733" stroke-width="0.5"/>
<circle cx="93.9" cy="225.6" r="9.4" fill="#3D3733" stroke="#3D3733" stroke-width="0.5"/>
<circle cx="75.5" cy="295.6" r="9.2" fill="#3D3733" stroke="#3D3733" stroke-width="0.5"/>
<circle cx="206.9" cy="534.4" r="9.0" fill="#3D3733" stroke="#3D3733" stroke-width="0.5"/>
<circle cx="231.5" cy="559.7" r="8.5" fill="#3D3733" stroke="#3D3733" stroke-width="1"/>
<circle cx="144.1" cy="304.0" r="8.4" fill="#3D3733" stroke="#3D3733" stroke-width="0.5"/>
<circle cx="162.5" cy="187.0" r="8.4" fill="#3D3733" stroke="#3D3733" stroke-width="0.5"/>
<circle cx="198.5" cy="360.7" r="8.0" fill="#3D3733" stroke="#3D3733" stroke-width="0.5"/>
<circle cx="234.9" cy="353.5" r="7.9" fill="#3D3733" stroke="#3D3733" stroke-width="0.5"/>
<circle cx="93.9" cy="275.1" r="7.8" fill="#3D3733" stroke="#3D3733" stroke-width="0.5"/>
<circle cx="400.9" cy="626.0" r="7.8" fill="#3D3733" stroke="#3D3733" stroke-width="1"/>
<circle cx="110.2" cy="412.6" r="7.8" fill="#3D3733" stroke="#3D3733" stroke-width="0.5"/>
<circle cx="183.4" cy="492.2" r="7.5" fill="#3D3733" stroke="#3D3733" stroke-width="0.5"/>
<circle cx="201.0" cy="583.8" r="7.5" fill="#3D3733" stroke="#3D3733" stroke-width="0.5"/>
<circle cx="136.6" cy="270.2" r="7.2" fill="#3D3733" stroke="#3D3733" stroke-width="0.5"/>
<circle cx="119.4" cy="360.7" r="7.1" fill="#3D3733" stroke="#3D3733" stroke-width="0.5"/>
<circle cx="280.9" cy="442.7" r="7.1" fill="#3D3733" stroke="#3D3733" stroke-width="0.5"/>
<circle cx="111.1" cy="386.0" r="7.1" fill="#3D3733" stroke="#3D3733" stroke-width="0.5"/>
<circle cx="122.8" cy="222.0" r="7.0" fill="#3D3733" stroke="#3D3733" stroke-width="0.5"/>
<circle cx="86.8" cy="408.9" r="7.0" fill="#3D3733" stroke="#3D3733" stroke-width="0.5"/>
<circle cx="178.0" cy="336.6" r="6.9" fill="#3D3733" stroke="#3D3733" stroke-width="0.5"/>
<circle cx="89.3" cy="279.9" r="6.9" fill="#3D3733" stroke="#3D3733" stroke-width="0.5"/>
<circle cx="160.4" cy="603.1" r="6.6" fill="#3D3733" stroke="#3D3733" stroke-width="0.5"/>
<circle cx="57.1" cy="84.5" r="6.1" fill="#3D3733" stroke="#3D3733" stroke-width="0.5"/>
<circle cx="221.5" cy="342.6" r="6.1" fill="#3D3733" stroke="#3D3733" stroke-width="0.5"/>
<circle cx="113.2" cy="203.9" r="6.1" fill="#3D3733" stroke="#3D3733" stroke-width="0.5"/>
<circle cx="134.5" cy="424.6" r="6.0" fill="#3D3733" stroke="#3D3733" stroke-width="0.5"/>
<circle cx="86.8" cy="348.6" r="5.8" fill="#3D3733" stroke="#3D3733" stroke-width="0.5"/>
<circle cx="344.9" cy="394.5" r="5.6" fill="#3D3733" stroke="#3D3733" stroke-width="1"/>
<circle cx="60.0" cy="360.7" r="5.5" fill="#3D3733" stroke="#3D3733" stroke-width="0.5"/>
<circle cx="182.6" cy="269.0" r="5.4" fill="#3D3733" stroke="#3D3733" stroke-width="0.5"/>
<circle cx="146.6" cy="314.9" r="5.2" fill="#3D3733" stroke="#3D3733" stroke-width="0.5"/>
<circle cx="74.7" cy="189.4" r="4.8" fill="#3D3733" stroke="#3D3733" stroke-width="0.5"/>
<circle cx="75.5" cy="465.6" r="4.7" fill="#3D3733" stroke="#3D3733" stroke-width="0.5"/>
<circle cx="90.2" cy="276.3" r="4.7" fill="#3D3733" stroke="#3D3733" stroke-width="0.5"/>
<circle cx="50.0" cy="257.0" r="4.6" fill="#3D3733" stroke="#3D3733" stroke-width="0.5"/>
<circle cx="50.0" cy="267.8" r="4.6" fill="#3D3733" stroke="#3D3733" stroke-width="0.5"/>
<circle cx="70.5" cy="370.3" r="4.5" fill="#3D3733" stroke="#3D3733" stroke-width="0.5"/>
<circle cx="50.0" cy="213.5" r="4.3" fill="#3D3733" stroke="#3D3733" stroke-width="0.5"/>
<circle cx="50.0" cy="416.2" r="4.1" fill="#3D3733" stroke="#3D3733" stroke-width="0.5"/>
<circle cx="50.0" cy="291.9" r="4.0" fill="#3D3733" stroke="#3D3733" stroke-width="0.5"/>
<circle cx="50.0" cy="201.5" r="3.0" fill="#3D3733" stroke="#3D3733" stroke-width="0.5"/>
<text x="400.9" y="614.2" text-anchor="middle" font-family="ABC Oracle Edu, system-ui, sans-serif" font-size="9" font-weight="500" fill="#3D3733">Austin</text>
<text x="90.2" y="340.0" text-anchor="middle" font-family="ABC Oracle Edu, system-ui, sans-serif" font-size="9" font-weight="500" fill="#3D3733">Chicago</text>
<text x="231.5" y="547.2" text-anchor="middle" font-family="ABC Oracle Edu, system-ui, sans-serif" font-size="9" font-weight="500" fill="#3D3733">Denver</text>
<text x="122.4" y="438.3" text-anchor="middle" font-family="ABC Oracle Edu, system-ui, sans-serif" font-size="9" font-weight="500" fill="#3D3733">Los Angeles</text>
<text x="164.2" y="137.1" text-anchor="middle" font-family="ABC Oracle Edu, system-ui, sans-serif" font-size="9" font-weight="500" fill="#3D3733">Miami</text>
<text x="166.7" y="380.9" text-anchor="middle" font-family="ABC Oracle Edu, system-ui, sans-serif" font-size="9" font-weight="500" fill="#3D3733">New York</text>
<text x="344.9" y="384.8" text-anchor="middle" font-family="ABC Oracle Edu, system-ui, sans-serif" font-size="9" font-weight="500" fill="#3D3733">Salt Lake City</text>
<text x="141.2" y="626.8" text-anchor="middle" font-family="ABC Oracle Edu, system-ui, sans-serif" font-size="9" font-weight="500" fill="#3D3733">San Francisco</text>
<text x="157.5" y="493.6" text-anchor="middle" font-family="ABC Oracle Edu, system-ui, sans-serif" font-size="9" font-weight="500" fill="#F4743B">D.C.</text>
<text x="239.5" y="28.0" text-anchor="middle" font-family="ABC Oracle Edu, system-ui, sans-serif" font-size="14" font-weight="500" fill="#3D3733">Multifamily permits per 1K workers</text>
<text x="424.0" y="60.0" text-anchor="end" font-family="ABC Oracle Edu, system-ui, sans-serif" font-size="12" font-weight="400" fill="#3D3733" opacity="0.7">r = –0.51</text>
<line x1="50.0" y1="685.0" x2="50.0" y2="689.0" stroke="#ccc" stroke-width="1"/>
<text x="50.0" y="701.0" text-anchor="middle" font-family="ABC Oracle Edu, system-ui, sans-serif" font-size="11" fill="#3D3733">0</text>
<line x1="133.7" y1="685.0" x2="133.7" y2="689.0" stroke="#ccc" stroke-width="1"/>
<text x="133.7" y="701.0" text-anchor="middle" font-family="ABC Oracle Edu, system-ui, sans-serif" font-size="11" fill="#3D3733">20</text>
<line x1="217.3" y1="685.0" x2="217.3" y2="689.0" stroke="#ccc" stroke-width="1"/>
<text x="217.3" y="701.0" text-anchor="middle" font-family="ABC Oracle Edu, system-ui, sans-serif" font-size="11" fill="#3D3733">40</text>
<line x1="301.0" y1="685.0" x2="301.0" y2="689.0" stroke="#ccc" stroke-width="1"/>
<text x="301.0" y="701.0" text-anchor="middle" font-family="ABC Oracle Edu, system-ui, sans-serif" font-size="11" fill="#3D3733">60</text>
<line x1="384.6" y1="685.0" x2="384.6" y2="689.0" stroke="#ccc" stroke-width="1"/>
<text x="384.6" y="701.0" text-anchor="middle" font-family="ABC Oracle Edu, system-ui, sans-serif" font-size="11" fill="#3D3733">80</text>
<line x1="50.0" y1="685" x2="429.0" y2="685" stroke="#ccc" stroke-width="1"/>
<text x="239.5" y="725.0" text-anchor="middle" font-family="ABC Oracle Edu, system-ui, sans-serif" font-size="11" fill="#3D3733" opacity="0.6">Cumulative MF permits per 1K workers</text>
<text x="42.0" y="678.3" text-anchor="end" font-family="ABC Oracle Edu, system-ui, sans-serif" font-size="11" fill="#3D3733">10</text>
<text x="42.0" y="557.7" text-anchor="end" font-family="ABC Oracle Edu, system-ui, sans-serif" font-size="11" fill="#3D3733">20</text>
<text x="42.0" y="437.1" text-anchor="end" font-family="ABC Oracle Edu, system-ui, sans-serif" font-size="11" fill="#3D3733">30</text>
<text x="42.0" y="316.4" text-anchor="end" font-family="ABC Oracle Edu, system-ui, sans-serif" font-size="11" fill="#3D3733">40</text>
<text x="42.0" y="195.8" text-anchor="end" font-family="ABC Oracle Edu, system-ui, sans-serif" font-size="11" fill="#3D3733">50</text>
<text x="42.0" y="75.2" text-anchor="end" font-family="ABC Oracle Edu, system-ui, sans-serif" font-size="11" fill="#3D3733">60%</text>
<text transform="translate(12.0,362.5) rotate(-90)" text-anchor="middle" font-family="ABC Oracle Edu, system-ui, sans-serif" font-size="11" fill="#3D3733" opacity="0.6">Cumulative rent growth (%)</text>
<line x1="489.0" y1="674.3" x2="868.0" y2="674.3" stroke="#D8DAD1" stroke-width="0.5"/>
<line x1="489.0" y1="553.7" x2="868.0" y2="553.7" stroke="#D8DAD1" stroke-width="0.5"/>
<line x1="489.0" y1="433.1" x2="868.0" y2="433.1" stroke="#D8DAD1" stroke-width="0.5"/>
<line x1="489.0" y1="312.4" x2="868.0" y2="312.4" stroke="#D8DAD1" stroke-width="0.5"/>
<line x1="489.0" y1="191.8" x2="868.0" y2="191.8" stroke="#D8DAD1" stroke-width="0.5"/>
<line x1="489.0" y1="71.2" x2="868.0" y2="71.2" stroke="#D8DAD1" stroke-width="0.5"/>
<line x1="489.0" y1="213.8" x2="868.0" y2="545.5" stroke="#0BB4FF" stroke-width="1.5" opacity="0.4" stroke-dasharray="6,3"/>
<circle cx="643.0" cy="402.9" r="18.0" fill="#0BB4FF" stroke="#3D3733" stroke-width="1"/>
<circle cx="659.2" cy="457.2" r="14.9" fill="#0BB4FF" stroke="#3D3733" stroke-width="1"/>
<circle cx="665.3" cy="357.1" r="13.1" fill="#0BB4FF" stroke="#3D3733" stroke-width="1"/>
<circle cx="675.5" cy="469.2" r="12.5" fill="#0BB4FF" stroke="#0BB4FF" stroke-width="0.5"/>
<circle cx="596.3" cy="524.7" r="11.8" fill="#0BB4FF" stroke="#0BB4FF" stroke-width="0.5"/>
<circle cx="793.2" cy="509.0" r="11.4" fill="#F4743B" stroke="#3D3733" stroke-width="1.2"/>
<circle cx="734.3" cy="334.2" r="11.2" fill="#0BB4FF" stroke="#0BB4FF" stroke-width="0.5"/>
<circle cx="683.6" cy="390.8" r="11.0" fill="#0BB4FF" stroke="#0BB4FF" stroke-width="0.5"/>
<circle cx="624.7" cy="152.0" r="11.0" fill="#0BB4FF" stroke="#3D3733" stroke-width="1"/>
<circle cx="714.0" cy="448.7" r="10.3" fill="#0BB4FF" stroke="#0BB4FF" stroke-width="0.5"/>
<circle cx="724.2" cy="359.5" r="10.1" fill="#0BB4FF" stroke="#0BB4FF" stroke-width="0.5"/>
<circle cx="799.2" cy="640.5" r="9.8" fill="#0BB4FF" stroke="#3D3733" stroke-width="1"/>
<circle cx="772.9" cy="486.1" r="9.5" fill="#0BB4FF" stroke="#0BB4FF" stroke-width="0.5"/>
<circle cx="567.9" cy="225.6" r="9.4" fill="#0BB4FF" stroke="#0BB4FF" stroke-width="0.5"/>
<circle cx="638.9" cy="295.6" r="9.2" fill="#0BB4FF" stroke="#0BB4FF" stroke-width="0.5"/>
<circle cx="730.2" cy="534.4" r="9.0" fill="#0BB4FF" stroke="#0BB4FF" stroke-width="0.5"/>
<circle cx="791.1" cy="559.7" r="8.5" fill="#0BB4FF" stroke="#3D3733" stroke-width="1"/>
<circle cx="681.5" cy="304.0" r="8.4" fill="#0BB4FF" stroke="#0BB4FF" stroke-width="0.5"/>
<circle cx="726.2" cy="187.0" r="8.4" fill="#0BB4FF" stroke="#0BB4FF" stroke-width="0.5"/>
<circle cx="748.5" cy="360.7" r="8.0" fill="#0BB4FF" stroke="#0BB4FF" stroke-width="0.5"/>
<circle cx="683.6" cy="353.5" r="7.9" fill="#0BB4FF" stroke="#0BB4FF" stroke-width="0.5"/>
<circle cx="630.8" cy="275.1" r="7.8" fill="#0BB4FF" stroke="#0BB4FF" stroke-width="0.5"/>
<circle cx="841.9" cy="626.0" r="7.8" fill="#0BB4FF" stroke="#3D3733" stroke-width="1"/>
<circle cx="675.5" cy="412.6" r="7.8" fill="#0BB4FF" stroke="#0BB4FF" stroke-width="0.5"/>
<circle cx="762.7" cy="492.2" r="7.5" fill="#0BB4FF" stroke="#0BB4FF" stroke-width="0.5"/>
<circle cx="616.6" cy="583.8" r="7.5" fill="#0BB4FF" stroke="#0BB4FF" stroke-width="0.5"/>
<circle cx="657.2" cy="270.2" r="7.2" fill="#0BB4FF" stroke="#0BB4FF" stroke-width="0.5"/>
<circle cx="578.0" cy="360.7" r="7.1" fill="#0BB4FF" stroke="#0BB4FF" stroke-width="0.5"/>
<circle cx="687.6" cy="442.7" r="7.1" fill="#0BB4FF" stroke="#0BB4FF" stroke-width="0.5"/>
<circle cx="703.9" cy="386.0" r="7.1" fill="#0BB4FF" stroke="#0BB4FF" stroke-width="0.5"/>
<circle cx="632.8" cy="222.0" r="7.0" fill="#0BB4FF" stroke="#0BB4FF" stroke-width="0.5"/>
<circle cx="673.4" cy="408.9" r="7.0" fill="#0BB4FF" stroke="#0BB4FF" stroke-width="0.5"/>
<circle cx="701.8" cy="336.6" r="6.9" fill="#0BB4FF" stroke="#0BB4FF" stroke-width="0.5"/>
<circle cx="622.7" cy="279.9" r="6.9" fill="#0BB4FF" stroke="#0BB4FF" stroke-width="0.5"/>
<circle cx="746.5" cy="603.1" r="6.6" fill="#0BB4FF" stroke="#0BB4FF" stroke-width="0.5"/>
<circle cx="582.1" cy="84.5" r="6.1" fill="#0BB4FF" stroke="#0BB4FF" stroke-width="0.5"/>
<circle cx="691.7" cy="342.6" r="6.1" fill="#0BB4FF" stroke="#0BB4FF" stroke-width="0.5"/>
<circle cx="574.0" cy="203.9" r="6.1" fill="#0BB4FF" stroke="#0BB4FF" stroke-width="0.5"/>
<circle cx="829.7" cy="424.6" r="6.0" fill="#0BB4FF" stroke="#0BB4FF" stroke-width="0.5"/>
<circle cx="624.7" cy="348.6" r="5.8" fill="#0BB4FF" stroke="#0BB4FF" stroke-width="0.5"/>
<circle cx="691.7" cy="394.5" r="5.6" fill="#0BB4FF" stroke="#3D3733" stroke-width="1"/>
<circle cx="561.8" cy="360.7" r="5.5" fill="#0BB4FF" stroke="#0BB4FF" stroke-width="0.5"/>
<circle cx="687.6" cy="269.0" r="5.4" fill="#0BB4FF" stroke="#0BB4FF" stroke-width="0.5"/>
<circle cx="602.4" cy="314.9" r="5.2" fill="#0BB4FF" stroke="#0BB4FF" stroke-width="0.5"/>
<circle cx="651.1" cy="189.4" r="4.8" fill="#0BB4FF" stroke="#0BB4FF" stroke-width="0.5"/>
<circle cx="561.8" cy="465.6" r="4.7" fill="#0BB4FF" stroke="#0BB4FF" stroke-width="0.5"/>
<circle cx="553.7" cy="276.3" r="4.7" fill="#0BB4FF" stroke="#0BB4FF" stroke-width="0.5"/>
<circle cx="574.0" cy="257.0" r="4.6" fill="#0BB4FF" stroke="#0BB4FF" stroke-width="0.5"/>
<circle cx="563.8" cy="267.8" r="4.6" fill="#0BB4FF" stroke="#0BB4FF" stroke-width="0.5"/>
<circle cx="565.9" cy="370.3" r="4.5" fill="#0BB4FF" stroke="#0BB4FF" stroke-width="0.5"/>
<circle cx="594.3" cy="213.5" r="4.3" fill="#0BB4FF" stroke="#0BB4FF" stroke-width="0.5"/>
<circle cx="515.1" cy="416.2" r="4.1" fill="#0BB4FF" stroke="#0BB4FF" stroke-width="0.5"/>
<circle cx="624.7" cy="291.9" r="4.0" fill="#0BB4FF" stroke="#0BB4FF" stroke-width="0.5"/>
<circle cx="539.5" cy="201.5" r="3.0" fill="#0BB4FF" stroke="#0BB4FF" stroke-width="0.5"/>
<text x="841.9" y="614.2" text-anchor="middle" font-family="ABC Oracle Edu, system-ui, sans-serif" font-size="9" font-weight="500" fill="#3D3733">Austin</text>
<text x="665.3" y="340.0" text-anchor="middle" font-family="ABC Oracle Edu, system-ui, sans-serif" font-size="9" font-weight="500" fill="#3D3733">Chicago</text>
<text x="791.1" y="547.2" text-anchor="middle" font-family="ABC Oracle Edu, system-ui, sans-serif" font-size="9" font-weight="500" fill="#3D3733">Denver</text>
<text x="659.2" y="438.3" text-anchor="middle" font-family="ABC Oracle Edu, system-ui, sans-serif" font-size="9" font-weight="500" fill="#3D3733">Los Angeles</text>
<text x="624.7" y="137.1" text-anchor="middle" font-family="ABC Oracle Edu, system-ui, sans-serif" font-size="9" font-weight="500" fill="#3D3733">Miami</text>
<text x="643.0" y="380.9" text-anchor="middle" font-family="ABC Oracle Edu, system-ui, sans-serif" font-size="9" font-weight="500" fill="#3D3733">New York</text>
<text x="691.7" y="384.8" text-anchor="middle" font-family="ABC Oracle Edu, system-ui, sans-serif" font-size="9" font-weight="500" fill="#3D3733">Salt Lake City</text>
<text x="799.2" y="626.8" text-anchor="middle" font-family="ABC Oracle Edu, system-ui, sans-serif" font-size="9" font-weight="500" fill="#3D3733">San Francisco</text>
<text x="793.2" y="493.6" text-anchor="middle" font-family="ABC Oracle Edu, system-ui, sans-serif" font-size="9" font-weight="500" fill="#F4743B">D.C.</text>
<text x="678.5" y="28.0" text-anchor="middle" font-family="ABC Oracle Edu, system-ui, sans-serif" font-size="14" font-weight="500" fill="#3D3733">Work-from-home share</text>
<text x="863.0" y="60.0" text-anchor="end" font-family="ABC Oracle Edu, system-ui, sans-serif" font-size="12" font-weight="400" fill="#0BB4FF" opacity="0.7">r = –0.55</text>
<line x1="525.3" y1="685.0" x2="525.3" y2="689.0" stroke="#ccc" stroke-width="1"/>
<text x="525.3" y="701.0" text-anchor="middle" font-family="ABC Oracle Edu, system-ui, sans-serif" font-size="11" fill="#3D3733">8</text>
<line x1="606.5" y1="685.0" x2="606.5" y2="689.0" stroke="#ccc" stroke-width="1"/>
<text x="606.5" y="701.0" text-anchor="middle" font-family="ABC Oracle Edu, system-ui, sans-serif" font-size="11" fill="#3D3733">12</text>
<line x1="687.6" y1="685.0" x2="687.6" y2="689.0" stroke="#ccc" stroke-width="1"/>
<text x="687.6" y="701.0" text-anchor="middle" font-family="ABC Oracle Edu, system-ui, sans-serif" font-size="11" fill="#3D3733">16</text>
<line x1="768.8" y1="685.0" x2="768.8" y2="689.0" stroke="#ccc" stroke-width="1"/>
<text x="768.8" y="701.0" text-anchor="middle" font-family="ABC Oracle Edu, system-ui, sans-serif" font-size="11" fill="#3D3733">20</text>
<line x1="850.0" y1="685.0" x2="850.0" y2="689.0" stroke="#ccc" stroke-width="1"/>
<text x="850.0" y="701.0" text-anchor="middle" font-family="ABC Oracle Edu, system-ui, sans-serif" font-size="11" fill="#3D3733">24</text>
<line x1="489.0" y1="685" x2="868.0" y2="685" stroke="#ccc" stroke-width="1"/>
<text x="678.5" y="725.0" text-anchor="middle" font-family="ABC Oracle Edu, system-ui, sans-serif" font-size="11" fill="#3D3733" opacity="0.6">Average WFH share (%)</text>
<text x="481.0" y="678.3" text-anchor="end" font-family="ABC Oracle Edu, system-ui, sans-serif" font-size="11" fill="#3D3733" opacity="0.4">10</text>
<text x="481.0" y="557.7" text-anchor="end" font-family="ABC Oracle Edu, system-ui, sans-serif" font-size="11" fill="#3D3733" opacity="0.4">20</text>
<text x="481.0" y="437.1" text-anchor="end" font-family="ABC Oracle Edu, system-ui, sans-serif" font-size="11" fill="#3D3733" opacity="0.4">30</text>
<text x="481.0" y="316.4" text-anchor="end" font-family="ABC Oracle Edu, system-ui, sans-serif" font-size="11" fill="#3D3733" opacity="0.4">40</text>
<text x="481.0" y="195.8" text-anchor="end" font-family="ABC Oracle Edu, system-ui, sans-serif" font-size="11" fill="#3D3733" opacity="0.4">50</text>
<text x="481.0" y="75.2" text-anchor="end" font-family="ABC Oracle Edu, system-ui, sans-serif" font-size="11" fill="#3D3733" opacity="0.4">60%</text>
<text x="50" y="735" font-family="ABC Oracle Edu, system-ui, sans-serif" font-size="11" font-weight="300" fill="#999" font-style="italic">Source: Zillow ZORI, Census BPS, ACS 1-Year WFH estimates. Bubble size = employed population.</text>
</svg>